<?xml version="1.0" encoding="UTF-8" standalone="no"?>
<svg
   xmlns:dc="http://purl.org/dc/elements/1.1/"
   xmlns:cc="http://creativecommons.org/ns#"
   xmlns:rdf="http://www.w3.org/1999/02/22-rdf-syntax-ns#"
   xmlns:svg="http://www.w3.org/2000/svg"
   xmlns="http://www.w3.org/2000/svg"
   version="1.1"
   id="svg4331"
   viewBox="0 0 63.999999 63.999999"
   height="64"
   width="64">
  <defs
     id="defs4333" />
  <metadata
     id="metadata4336">
    <rdf:RDF>
      <cc:Work
         rdf:about="">
        <dc:format>image/svg+xml</dc:format>
        <dc:type
           rdf:resource="http://purl.org/dc/dcmitype/StillImage" />
        <dc:title></dc:title>
      </cc:Work>
    </rdf:RDF>
  </metadata>
  <g
     transform="translate(0,-988.3622)"
     id="layer1">
    <path
       id="path18"
       style="fill=#d64937;fill-opacity:1;fill-rule:evenodd;stroke:none"
       d="m 32.000261,989.67255 c -17.376259,0 -31.46662432,14.08775 -31.46662432,31.46665 0,13.9028 9.01614572,25.6978 21.51879832,29.8586 1.572602,0.2913 2.149952,-0.6826 2.149952,-1.5137 0,-0.7504 -0.02918,-3.2291 -0.04273,-5.8585 -8.754046,1.9035 -10.601253,-3.7126 -10.601253,-3.7126 -1.431391,-3.6371 -3.493802,-4.6042 -3.493802,-4.6042 -2.8549656,-1.953 0.215203,-1.9129 0.215203,-1.9129 3.159794,0.2215 4.823583,3.2432 4.823583,3.2432 2.806506,4.81 7.361215,3.4192 9.156836,2.6153 0.282422,-2.0338 1.097903,-3.4225 1.997798,-4.2077 -6.989167,-0.7957 -14.336312,-3.4938 -14.336312,-15.551 0,-3.4354 1.229214,-6.2424 3.242123,-8.4461 -0.326714,-0.793 -1.403774,-3.993 0.304828,-8.3273 0,0 2.642367,-0.8456 8.655563,3.2255 2.510014,-0.6972 5.201883,-1.0468 7.876035,-1.0588 2.674153,0.012 5.368106,0.3616 7.88281,1.0588 6.0059,-4.0711 8.644619,-3.2255 8.644619,-3.2255 1.712771,4.3343 0.63519,7.5343 0.308476,8.3273 2.017599,2.2037 3.238476,5.0107 3.238476,8.4461 0,12.0858 -7.361214,14.747 -14.368098,15.5259 1.128646,0.9765 2.134319,2.8915 2.134319,5.8272 0,4.2103 -0.03647,7.5988 -0.03647,8.6353 0,0.8373 0.566408,1.8185 2.161416,1.5095 12.495879,-4.1655 21.500563,-15.9563 21.500563,-29.8544 0,-17.3789 -14.088284,-31.46665 -31.466106,-31.46665" fill="#d64937"/>
  </g>
</svg>
