<?xml version="1.0" encoding="UTF-8" standalone="no"?>
<svg
   xmlns:dc="http://purl.org/dc/elements/1.1/"
   xmlns:cc="http://creativecommons.org/ns#"
   xmlns:rdf="http://www.w3.org/1999/02/22-rdf-syntax-ns#"
   xmlns:svg="http://www.w3.org/2000/svg"
   xmlns="http://www.w3.org/2000/svg"
   xmlns:sodipodi="http://sodipodi.sourceforge.net/DTD/sodipodi-0.dtd"
   xmlns:inkscape="http://www.inkscape.org/namespaces/inkscape"
   viewBox="0 0 64 64"
   id="svg2"
   version="1.1"
   inkscape:version="0.91 r13725"
   sodipodi:docname="easy-setup.svg"
   width="64"
   height="64">
  <metadata
     id="metadata12">
    <rdf:RDF>
      <cc:Work
         rdf:about="">
        <dc:format>image/svg+xml</dc:format>
        <dc:type
           rdf:resource="http://purl.org/dc/dcmitype/StillImage" />
        <dc:title></dc:title>
      </cc:Work>
    </rdf:RDF>
  </metadata>
  <sodipodi:namedview
     pagecolor="#f9f9f9"
     bordercolor="#666666"
     borderopacity="1"
     objecttolerance="10"
     gridtolerance="10"
     guidetolerance="10"
     inkscape:pageopacity="0"
     inkscape:pageshadow="2"
     inkscape:window-width="1920"
     inkscape:window-height="1006"
     id="namedview10"
     showgrid="false"
     inkscape:zoom="9.8333333"
     inkscape:cx="12"
     inkscape:cy="32.338983"
     inkscape:window-x="0"
     inkscape:window-y="0"
     inkscape:window-maximized="1"
     inkscape:current-layer="a6" />
  <defs
     id="defs3051">
    <style
       type="text/css"
       id="current-color-scheme">
      .ColorScheme-Text {
        color:#4d4d4d;
      }
      </style>
  </defs>
  <a
     transform="matrix(1.3686441,0,0,1.3686441,-3.0550847,36.944915)"
     id="a6">
    <path
       style="color:#4d4d4d;fill:#d64937;fill-opacity:1;stroke:none"
       d="m 8.1253862,-25.136223 -1.4292763,2.606328 -2.6063274,1.429276 2.6063274,1.429277 1.4292763,2.606327 1.4292763,-2.606327 2.6063275,-1.429277 -2.6063275,-1.429276 -1.4292763,-2.606328 z m 13.4520118,0 -1.429276,2.606328 -2.606327,1.429276 2.606327,1.429277 1.429276,2.606327 1.429277,-2.606327 2.606327,-1.429277 -2.606327,-1.429276 -1.429277,-2.606328 z m 17.950029,0 -35.4376445,35.437645 7.6087945,7.608795 35.437644,-35.437645 -7.608794,-7.608795 z m -0.183916,3.988312 3.804396,3.804398 -8.333941,8.3391962 -3.809653,-3.8096522 8.339198,-8.333942 z m -25.83732,6.773299 -1.429276,2.606327 -2.6063276,1.429276 2.6063276,1.4292766 1.429276,2.6063273 1.429276,-2.6063273 2.606328,-1.4292766 -2.606328,-1.429276 -1.429276,-2.606327 z"
       class="ColorScheme-Text"
       id="path8"
       inkscape:connector-curvature="0" />
  </a>
</svg>
