<?xml version="1.0" encoding="UTF-8" standalone="no"?>
<svg
   xmlns:dc="http://purl.org/dc/elements/1.1/"
   xmlns:cc="http://creativecommons.org/ns#"
   xmlns:rdf="http://www.w3.org/1999/02/22-rdf-syntax-ns#"
   xmlns:svg="http://www.w3.org/2000/svg"
   xmlns="http://www.w3.org/2000/svg"
   xmlns:xlink="http://www.w3.org/1999/xlink"
   xmlns:sodipodi="http://sodipodi.sourceforge.net/DTD/sodipodi-0.dtd"
   xmlns:inkscape="http://www.inkscape.org/namespaces/inkscape"
   width="48"
   height="48"
   id="svg2"
   version="1.1"
   inkscape:version="0.91 r13725"
   sodipodi:docname="application.svg">
  <metadata
     id="metadata62">
    <rdf:RDF>
      <cc:Work
         rdf:about="">
        <dc:format>image/svg+xml</dc:format>
        <dc:type
           rdf:resource="http://purl.org/dc/dcmitype/StillImage" />
      </cc:Work>
    </rdf:RDF>
  </metadata>
  <sodipodi:namedview
     pagecolor="#f9f9f9"
     bordercolor="#666666"
     borderopacity="1"
     objecttolerance="10"
     gridtolerance="10"
     guidetolerance="10"
     inkscape:pageopacity="0"
     inkscape:pageshadow="2"
     inkscape:window-width="780"
     inkscape:window-height="480"
     id="namedview60"
     showgrid="false"
     inkscape:zoom="4.9166667"
     inkscape:cx="24"
     inkscape:cy="24"
     inkscape:window-x="0"
     inkscape:window-y="0"
     inkscape:window-maximized="0"
     inkscape:current-layer="g36" />
  <defs
     id="defs4">
    <linearGradient
       id="a"
       y1="543.8"
       y2="513.8"
       x2="0"
       gradientUnits="userSpaceOnUse"
       gradientTransform="matrix(1.125 0 0 1-51.07 0)">
      <stop
         stop-color="#197cf1"
         id="stop7" />
      <stop
         offset="1"
         stop-color="#20bcfa"
         id="stop9" />
    </linearGradient>
    <linearGradient
       xlink:href="#a"
       id="b"
       y1="44"
       y2="11"
       x2="0"
       gradientUnits="userSpaceOnUse" />
    <linearGradient
       id="c"
       y1="10"
       y2="14"
       x2="0"
       gradientUnits="userSpaceOnUse">
      <stop
         stop-color="#1d1e1e"
         id="stop13" />
      <stop
         offset="1"
         stop-color="#44484c"
         id="stop15" />
    </linearGradient>
    <linearGradient
       xlink:href="#a"
       id="d"
       y1="14"
       y2="10"
       gradientUnits="userSpaceOnUse"
       x2="0" />
    <linearGradient
       xlink:href="#a"
       id="e"
       y1="516.8"
       y2="503.8"
       x2="0"
       gradientUnits="userSpaceOnUse" />
    <linearGradient
       id="f"
       y1="18"
       y2="15"
       x2="0"
       gradientUnits="userSpaceOnUse">
      <stop
         stop-color="#c6cdd1"
         id="stop20" />
      <stop
         offset="1"
         stop-color="#e0e5e7"
         id="stop22" />
    </linearGradient>
    <linearGradient
       xlink:href="#f"
       id="g"
       y1="517.8"
       y2="514.8"
       x2="0"
       gradientUnits="userSpaceOnUse" />
    <linearGradient
       id="h"
       y1="19"
       y2="3"
       x2="0"
       gradientUnits="userSpaceOnUse"
       gradientTransform="translate(0-2)">
      <stop
         stop-color="#7cbaf8"
         id="stop26" />
      <stop
         offset="1"
         stop-color="#f4fcff"
         id="stop28" />
    </linearGradient>
    <linearGradient
       id="i"
       y1="23"
       x1="16"
       y2="39"
       x2="32"
       gradientUnits="userSpaceOnUse">
      <stop
         stop-color="#292c2f"
         id="stop31" />
      <stop
         offset="1"
         stop-opacity="0"
         id="stop33" />
    </linearGradient>
    <path
       fill-rule="evenodd"
       id="j"
       d="m10 10l-1 1 1 1-4 2h36l-4-2 1-1-1-1h-14z" />
  </defs>
  <g
     transform="translate(-384.57-499.8)"
     id="g36">
    <path
       fill="url(#b)"
       fill-rule="evenodd"
       d="m9 11v2l1-1zm30 0l-1 1 1 1z"
       transform="translate(384.57 499.8)"
       id="path38" />
    <rect
       width="36"
       x="390.57"
       y="513.8"
       fill="url(#a)"
       rx="0"
       height="30"
       id="rect40" />
    <rect
       width="36"
       x="390.57"
       y="542.8"
       fill="#1c5593"
       height="1"
       id="rect44" />
    <use
       fill="url(#d)"
       xlink:href="#j"
       transform="translate(384.57 499.8)"
       id="use46" />
    <use
       opacity=".6"
       fill="url(#c)"
       xlink:href="#j"
       transform="translate(384.57 499.8)"
       id="use48" />
    <path
       opacity=".2"
       d="m10 10l-1 1h30l-1-1h-14z"
       transform="translate(384.57 499.8)"
       id="path50" />
    <path
       fill="url(#e)"
       d="m400.57 516.8v-5c0-4.432 3.568-8 8-8 4.432 0 8 3.568 8 8v5h-1v-5c0-3.878-3.122-7-7-7-3.878 0-7 3.122-7 7v5z"
       id="path52" />
    <path
       fill="url(#g)"
       d="m401.07143 514.798a1.5 1.5 0 0 1 1.5 1.5 1.5 1.5 0 0 1 -1.5 1.5 1.5 1.5 0 0 1 -1.5 -1.5 1.5 1.5 0 0 1 1.5 -1.5m0 1a.5 .5 0 0 0 -.5 .5 .5 .5 0 0 0 .5 .5 .5 .5 0 0 0 .5 -.5 .5 .5 0 0 0 -.5 -.5"
       id="path54" />
    <path
       fill="url(#f)"
       d="M31.5 15A1.5 1.5 0 0 0 30 16.5 1.5 1.5 0 0 0 31.5 18 1.5 1.5 0 0 0 33 16.5 1.5 1.5 0 0 0 31.5 15M31.5 16A.5 .5 0 0 1 32 16.5 .5 .5 0 0 1 31.5 17 .5 .5 0 0 1 31 16.5 .5 .5 0 0 1 31.5 16"
       transform="translate(384.57 499.8)"
       id="path56" />
  </g>
</svg>
