<?xml version="1.0" encoding="UTF-8" standalone="no"?>
<svg
   xmlns:dc="http://purl.org/dc/elements/1.1/"
   xmlns:cc="http://creativecommons.org/ns#"
   xmlns:rdf="http://www.w3.org/1999/02/22-rdf-syntax-ns#"
   xmlns:svg="http://www.w3.org/2000/svg"
   xmlns="http://www.w3.org/2000/svg"
   xmlns:sodipodi="http://sodipodi.sourceforge.net/DTD/sodipodi-0.dtd"
   xmlns:inkscape="http://www.inkscape.org/namespaces/inkscape"
   viewBox="0 0 64 64"
   id="svg2"
   version="1.1"
   inkscape:version="0.91 r13725"
   sodipodi:docname="language.svg"
   width="64"
   height="64">
  <metadata
     id="metadata10">
    <rdf:RDF>
      <cc:Work
         rdf:about="">
        <dc:format>image/svg+xml</dc:format>
        <dc:type
           rdf:resource="http://purl.org/dc/dcmitype/StillImage" />
        <dc:title></dc:title>
      </cc:Work>
    </rdf:RDF>
  </metadata>
  <sodipodi:namedview
     pagecolor="#f9f9f9"
     bordercolor="#666666"
     borderopacity="1"
     objecttolerance="10"
     gridtolerance="10"
     guidetolerance="10"
     inkscape:pageopacity="0"
     inkscape:pageshadow="2"
     inkscape:window-width="1920"
     inkscape:window-height="1006"
     id="namedview8"
     showgrid="false"
     inkscape:zoom="10.727273"
     inkscape:cx="20.957163"
     inkscape:cy="19.869986"
     inkscape:window-x="0"
     inkscape:window-y="0"
     inkscape:window-maximized="1"
     inkscape:current-layer="svg2" />
  <defs
     id="defs3051">
    <style
       type="text/css"
       id="current-color-scheme">
      .ColorScheme-Text {
        color:#4d4d4d;
      }
      </style>
  </defs>
  <path
     style="color:#4d4d4d;fill:currentColor;fill-opacity:1;stroke:none"
     d="m 32,8.9152542 c -1.848976,0 -3.638595,0.2412933 -5.359764,0.6481302 -0.802184,0.1896124 -1.583268,0.4227481 -2.35018,0.6932206 -0.309809,0.109277 -0.620787,0.210619 -0.924293,0.332518 -0.0055,0.0022 -0.01125,0.0035 -0.01703,0.0058 -1.765337,0.710689 -3.410388,1.642263 -4.9258,2.744695 -0.09479,0.06897 -0.188112,0.138162 -0.281807,0.208542 -0.693662,0.520956 -1.359986,1.073813 -1.989481,1.668233 -0.03292,0.03111 -0.06871,0.05887 -0.101458,0.09018 -1.357922,1.297429 -2.547754,2.760867 -3.556268,4.356571 -0.04464,0.07073 -0.08573,0.142923 -0.129621,0.214168 -0.474109,0.768555 -0.907649,1.564154 -1.290625,2.389632 -0.01125,0.02453 -0.02251,0.04877 -0.03382,0.07327 C 10.227749,24.106906 9.6332387,25.98853 9.28708,27.96487 9.0575255,29.276104 8.9152542,30.62079 8.9152542,32 c 0,9.821059 6.0831078,18.148445 14.6928548,21.495416 0.0069,0.0029 0.0101,0.0084 0.01703,0.01125 0.01818,0.0069 0.03815,0.0098 0.05636,0.01702 0.956441,0.368046 1.93941,0.673134 2.953223,0.913022 0.01154,0.0027 0.02222,0.0087 0.03382,0.01125 1.712117,0.402264 3.493013,0.636776 5.331468,0.636776 1.999419,0 3.925665,-0.279528 5.771186,-0.755215 l 0,-2.992675 C 35.941285,51.880525 34.011319,52.199153 32,52.199153 c -2.446013,0 -4.777206,-0.455988 -6.943459,-1.245541 0.03924,-0.0367 0.100938,-0.05445 0.112712,-0.112711 0.02597,-0.114558 -0.0277,-0.166239 -0.03382,-0.349428 0.04328,-0.188141 0.24819,-0.208571 0.287434,-0.400151 -0.08022,-0.137354 -0.267985,-0.04767 -0.388879,-0.118367 -0.117444,-0.06839 -0.168894,-0.220863 -0.152158,-0.366338 0.200837,-0.08484 0.58871,0.202454 0.732673,-0.07889 0.07185,-0.133026 -0.08033,-0.457563 0.01703,-0.591772 0.06752,-0.09061 0.437981,-0.0947 0.5805,-0.118367 0.204589,-0.03549 0.442618,-0.07684 0.557955,-0.152157 0.125812,-0.08253 0.30942,-0.320589 0.287434,-0.557958 -0.01154,-0.113693 -0.08844,-0.153485 -0.174722,-0.253615 -0.07243,-0.08426 -0.09993,-0.190593 -0.152158,-0.270524 -0.09032,-0.135046 -0.230703,-0.111153 -0.270524,-0.304341 0.27644,-0.05425 0.699119,0.225249 1.099004,0.112711 0.189584,-0.05338 0.453067,-0.458875 0.541049,-0.636859 0.0029,-0.05598 0.02655,-0.139864 0.05636,-0.208542 0.03549,-0.07474 0.107113,-0.136055 0.118367,-0.174722 0.0029,-0.105036 0.0101,-0.187535 0.03382,-0.253615 0.07012,-0.195643 0.250556,-0.255606 0.366334,-0.400151 0.08772,-0.109075 0.131064,-0.240399 0.214169,-0.349428 0.09061,-0.118598 0.171347,-0.222191 0.231079,-0.326883 0.05685,-0.351667 -0.138884,-0.599404 -0.05636,-0.907383 0.09234,-0.345983 0.566618,-0.554046 0.901751,-0.710128 0.115423,-0.05367 0.232925,-0.141538 0.326883,-0.174722 0.232001,-0.08137 0.520549,-0.0348 0.732669,-0.112712 0.360988,-0.131871 0.402517,-0.522182 0.580501,-0.851024 0.08484,-0.155534 0.191805,-0.311829 0.208541,-0.422694 0.01443,-0.09984 -0.03567,-0.192122 -0.01703,-0.309976 0.01731,-0.115712 0.126072,-0.216015 0.157813,-0.343792 0.04184,-0.166499 0.05636,-0.411547 0.05636,-0.597408 0,-0.152359 -0.07197,-0.284836 -0.07889,-0.422693 -0.02597,-0.49964 0.181619,-0.556486 0.366338,-0.828482 0.09205,-0.135046 0.132333,-0.29195 0.197259,-0.388877 0.310259,-0.463109 0.84495,-0.686451 0.805937,-1.386439 -0.01443,-0.231713 -0.15611,-0.754527 -0.326883,-0.828479 -0.09724,-0.04242 -0.321071,-3.81e-4 -0.462148,-0.05636 -0.455346,-0.169961 -0.722994,-0.736022 -1.194814,-0.772121 -0.100419,-0.0058 -0.19674,0.04175 -0.309976,0.03945 -0.186698,-2.89e-4 -0.463952,-0.128496 -0.670676,-0.152158 -0.131294,-0.01443 -0.310036,0.03867 -0.38888,0 -0.120617,-0.05829 -0.133545,-0.283394 -0.231078,-0.349428 -0.0782,-0.05309 -0.226057,-0.06741 -0.343789,-0.112711 -0.189584,-0.07358 -0.344607,-0.159689 -0.563594,-0.174722 -0.06752,-0.0029 -0.147252,0.02857 -0.225452,0.01702 -0.121195,-0.01731 -0.220315,-0.162979 -0.332521,-0.231079 -0.139663,-0.08484 -0.268995,-0.126216 -0.326883,-0.247988 0.126678,-0.414919 -0.219334,-0.532357 -0.304341,-0.772121 -0.04011,-0.112249 -0.01962,-0.243746 -0.05635,-0.343789 -0.04992,-0.143703 -0.193681,-0.229723 -0.349425,-0.349429 -0.278749,-0.214399 -0.525848,-0.412983 -0.924293,-0.462145 -0.175156,-0.0202 -0.346384,0.05301 -0.557956,0.03945 -0.22421,-0.01443 -0.508542,-0.214197 -0.676311,-0.405786 -0.163036,-0.187275 -0.240947,-0.350118 -0.383244,-0.4396 -0.134757,-0.0857 -0.313967,-0.08729 -0.405786,-0.174723 -0.04069,-0.03896 -0.03705,-0.10189 -0.07889,-0.191632 -0.06752,-0.139951 -0.180349,-0.215323 -0.0958,-0.383244 -0.153802,-0.07849 -0.158766,0.142144 -0.326883,0.112711 -0.150051,-0.212668 -0.274334,-0.315918 -0.614314,-0.253615 -0.155245,0.0029 -0.241005,0.225885 -0.422696,0.231079 -0.148897,2.88e-4 -0.265533,-0.163354 -0.462145,-0.191633 -0.148608,-0.0202 -0.322803,0.04418 -0.428332,0.02251 -0.16419,-0.03174 -0.215929,-0.171549 -0.366335,-0.270524 -0.109652,-0.07243 -0.321371,-0.198991 -0.383241,-0.19726 -0.193623,2.89e-4 -0.330461,0.412005 -0.597407,0.270525 -0.130141,-0.16419 0.210157,-0.24643 0.05635,-0.400151 -0.116578,-0.116867 -0.210994,0.04836 -0.30434,0.112711 -0.106479,0.07358 -0.208658,0.14806 -0.326883,0.191632 -0.264609,0.09869 -0.430081,0.05105 -0.636862,0.157813 -0.191892,0.09955 -0.201299,0.265244 -0.309974,0.462145 -0.08916,0.161594 -0.289612,0.396054 -0.422696,0.40579 -0.161304,0.01154 -0.315816,-0.22978 -0.462145,-0.29307 -0.441207,-0.191026 -0.653719,0.169529 -1.020103,0.174723 -0.339981,2.89e-4 -0.828656,-0.548266 -0.811573,-0.867932 0.01154,-0.194777 0.111903,-0.491379 0.135248,-0.732672 0.01731,-0.191892 0.150426,-0.303781 0.152157,-0.479052 2.88e-4,-0.233733 -0.304843,-0.417536 -0.45651,-0.445238 -0.359948,-0.06608 -0.861193,0.145549 -1.273718,-0.01703 -0.07849,-0.13014 0.09113,-0.21717 0.135248,-0.34379 0.02597,-0.07214 0.01299,-0.174261 0.03945,-0.253614 0.04559,-0.122061 0.173655,-0.219277 0.231078,-0.349428 0.04328,-0.09898 0.05194,-0.243083 0.0958,-0.366335 0.04992,-0.139951 0.141192,-0.22297 0.152157,-0.321247 0.01443,-0.130141 -0.03226,-0.280595 -0.135247,-0.366335 -0.320186,0.01731 -0.528162,0.02886 -0.710128,0.112711 -0.416881,0.189584 -0.33882,0.751524 -0.755211,0.884838 -0.143991,0.04646 -0.343094,0.05033 -0.5016,0.07889 -0.136489,0.02597 -0.298437,0.0984 -0.4396,0.0958 -0.166499,-2.88e-4 -0.458752,-0.163757 -0.557958,-0.270524 -0.03665,-0.03965 -0.078,-0.155822 -0.135248,-0.270524 0.226692,-1.095513 0.557087,-2.151256 0.952471,-3.173025 0.268995,-0.147223 0.500567,-0.367705 0.817211,-0.38888 0.163325,-0.01154 0.406531,0.04628 0.563591,0.07889 0.145146,0.0029 0.257713,0.125754 0.383245,0.135247 0.356053,0.0029 0.442205,-0.250585 0.732669,-0.405786 0.300015,0.04213 0.495442,-0.05457 0.766486,-0.02251 0.184678,0.0202 0.317952,0.22574 0.462145,0.236705 0.121483,0.0058 0.232319,-0.119925 0.349428,-0.101457 0.113981,0.01731 0.308502,0.266744 0.326883,0.405786 0.0202,0.172847 -0.128236,0.333924 -0.07889,0.524142 0.181503,0.184678 0.51285,0.220489 0.772121,0.326883 0.168807,-0.139374 0.02597,-0.395993 0,-0.597407 -0.0058,-0.08917 0.01154,-0.171952 0,-0.253615 -0.01731,-0.138797 -0.07831,-0.26432 -0.07889,-0.383241 -0.0017,-0.548234 0.443833,-0.803626 0.811573,-1.020103 0.159285,-0.09407 0.284577,-0.257973 0.422693,-0.326883 0.194778,-0.09753 0.340266,-0.122984 0.5016,-0.214169 0.291878,-0.163902 0.543928,-0.298858 0.772121,-0.48469 0.105901,-0.24845 0.0055,-0.577194 0.01703,-0.822845 0.105901,-0.06464 0.192556,0.02857 0.304338,0.01703 0.17631,-0.03751 0.193392,-0.289615 0.293069,-0.388879 0.05771,-0.05685 0.215583,-0.0956 0.287434,-0.152158 0.175733,-0.137643 0.229982,-0.346487 0.383242,-0.405786 0.05483,-0.0202 0.183956,-0.01443 0.270524,-0.03945 0.114558,-0.03174 0.276209,-0.167596 0.462148,-0.231079 0.120618,-0.04126 0.39898,-0.04905 0.445238,-0.0958 0.05685,-0.05771 2e-4,-0.217343 0.01703,-0.304341 0.09349,-0.434917 0.751184,-0.529925 1.138459,-0.676311 0.271246,-0.103016 0.547161,-0.289044 0.845387,-0.231078 -0.05829,0.206608 -0.334899,0.132477 -0.287434,0.383244 0.06579,0.348464 0.530724,-0.100505 0.653769,-0.152157 0.234887,-0.09869 0.632845,-0.158564 0.941199,-0.270525 0.270669,-0.09811 0.75651,-0.24868 0.501597,-0.557958 -0.212668,-0.01443 -0.316226,0.247613 -0.501597,0.326886 -0.12812,0.01731 -0.09947,-0.107979 -0.208542,-0.118367 -0.103304,-0.0058 -0.164046,0.09736 -0.270524,0.07889 -0.105901,-0.01731 -0.254076,-0.186005 -0.270524,-0.309976 -0.04242,-0.321571 0.272515,-0.447735 0.405786,-0.687585 -0.08801,-0.29081 -0.489443,-0.06103 -0.732669,-0.174723 0.02597,-0.173424 0.20355,-0.293612 0.405786,-0.326883 0.165633,-0.0029 0.538114,-0.0075 0.636859,0.07327 0.05771,0.04848 0.0046,0.173106 0.0958,0.253614 0.0984,0.08888 0.215987,0.07742 0.34379,0.05636 0.04646,-0.219305 -0.284058,-0.16471 -0.247988,-0.309976 0.259992,-0.17025 0.684627,-0.02741 1.003196,-0.07326 0.183236,-0.0029 0.372926,-0.161853 0.535411,-0.253615 0.154668,-0.08743 0.360151,-0.239793 0.524142,-0.0958 0.04501,0.156976 -0.143645,0.209148 -0.231078,0.287434 -0.294706,0.2623 -0.599335,0.563447 -0.82848,0.867934 0.140817,0.137355 0.393364,0.06781 0.631223,0.0958 0.09292,0.01154 0.211687,0.04467 0.309976,0.06198 0.114847,0.0202 0.236965,0.01327 0.326883,0.03382 0.162171,0.03982 0.206436,0.214169 0.366338,0.214169 0.263455,-4.91e-4 0.267552,-0.284 0.118338,-0.462148 0.04703,-0.181793 0.120416,-0.278258 0.05636,-0.405787 -0.118598,-0.237484 -0.558109,-0.0066 -0.580501,-0.309976 -0.01443,-0.192181 0.161247,-0.183004 0.231078,-0.326883 -0.03174,-0.371203 0.306338,-0.399932 0.270525,-0.732669 -0.01731,-0.139375 -0.133257,-0.134469 -0.231078,-0.264898 -0.0505,-0.06723 -0.07436,-0.201963 -0.135248,-0.253615 -0.201415,-0.17025 -0.606436,-0.137123 -0.631224,-0.462145 -0.01154,-0.191603 0.04519,-0.349907 0.01703,-0.557958 -0.02597,-0.1942 -0.157034,-0.735041 -0.326883,-0.772121 -0.214976,-0.04675 -0.441057,0.323206 -0.698856,0.445238 -0.14024,0.06666 -0.338494,0.139259 -0.479051,0.112711 -0.09118,-0.01731 -0.273584,-0.150368 -0.287434,-0.326883 -0.01731,-0.20228 0.137787,-0.206925 0.174722,-0.422696 -0.03174,-0.127254 -0.168316,-0.09612 -0.293069,-0.191632 -0.141394,-0.107633 -0.251278,-0.340133 -0.439603,-0.366335 -0.09378,-0.01443 -0.216593,0.07254 -0.309973,0.07889 -0.172184,0.01039 -0.305513,-0.0331 -0.450874,-0.07889 0.464231,-0.163093 0.935345,-0.310034 1.414616,-0.4396 0.08974,0.09638 0.121714,0.280336 0.231078,0.34379 0.073,0.04184 0.199135,0.02923 0.287434,0.05636 0.282788,0.0857 0.519115,0.239937 0.82848,0.174722 0.106189,-0.186409 -0.21844,-0.236936 -0.0958,-0.383241 0.207186,0.01731 0.342024,0.10443 0.501597,0.169067 0.222768,-0.163036 0.368663,-0.177695 0.360699,-0.439603 -0.002,-0.158073 -0.126187,-0.232752 -0.208542,-0.343792 0.171808,-0.02894 0.345449,-0.05422 0.518613,-0.07886 0.03818,0.04187 0.06998,0.105584 0.118367,0.112712 0.109653,0.01731 0.435864,-0.142982 0.501597,-0.174723 0.01212,-0.0061 0.03307,-0.02981 0.05073,-0.03945 0.728151,-0.07894 1.464084,-0.123983 2.214413,-0.123983 3.450108,0 6.689423,0.860124 9.524711,2.372726 -0.09563,0.02929 -0.189497,0.04963 -0.30434,0.09017 -0.135912,0.0479 -0.387691,0.283164 -0.422694,0.366335 -0.058,0.137354 0.01443,0.284779 0,0.495961 0.109942,0.0479 0.178445,0.263253 0.366335,0.366335 0.07099,0.03896 0.162228,0.01962 0.225452,0.05636 0.109941,0.06204 0.19723,0.199856 0.174722,0.309976 -0.03174,0.158131 -0.236532,0.113923 -0.343792,0.231078 0.01731,0.224211 -0.1579,0.256039 -0.214169,0.405787 0.03549,0.09494 0.176339,0.07765 0.191632,0.191632 -0.0202,0.122926 -0.239244,0.140961 -0.191632,0.270524 0.20632,0.161017 0.424886,-0.03125 0.619952,-0.05635 0.430964,-0.05367 0.868154,0.0556 1.132821,-0.152157 -0.03607,-0.206032 0.219478,-0.278229 0.197259,-0.462148 -0.01731,-0.138797 -0.24819,-0.157814 -0.349428,-0.253615 -0.05425,-0.05136 -0.0692,-0.170972 -0.135248,-0.270525 -0.07618,-0.114269 -0.21968,-0.192815 -0.304338,-0.304337 -0.113115,-0.15034 -0.35012,-0.370306 -0.349428,-0.484691 0.0017,-0.131294 0.1622,-0.164074 0.191633,-0.343792 -0.03549,-0.165056 -0.342529,-0.05592 -0.366335,-0.231078 0.0061,-0.05601 0.03333,-0.09404 0.06198,-0.129621 0.884542,0.483521 1.716403,1.045505 2.513623,1.651327 -0.0089,0.0012 -0.02539,-0.0014 -0.03382,0 -0.193046,0.03549 -0.263772,0.277219 -0.422693,0.46778 -0.11023,0.133026 -0.320788,0.273093 -0.48469,0.343793 -0.07993,0.03549 -0.174694,0.03214 -0.247988,0.07889 -0.10821,0.07185 -0.147598,0.243833 -0.270524,0.326883 -0.08859,0.06002 -0.425071,0.229347 -0.518507,0.231078 -0.109652,0.0017 -0.208946,-0.104285 -0.287434,-0.07889 -0.115712,0.03636 -0.106017,0.263628 -0.236705,0.309976 -0.255375,0.09061 -0.677485,-0.228452 -0.766489,0.152158 0.109364,0.220459 0.383753,0.165661 0.574865,0.287433 0.12033,0.0756 0.374132,0.412121 0.405787,0.541049 0.0029,0.109076 -0.01183,0.538025 -0.05636,0.653769 -0.119175,0.30746 -0.401585,0.20505 -0.755214,0.197259 -0.09667,-0.0017 -0.197981,0.02568 -0.287434,0.01703 -0.596424,-0.0404 -1.195828,-0.255981 -1.465342,0.169067 0.0202,0.326909 0.09497,0.549997 0.02251,0.834115 -0.05281,0.208629 -0.240313,0.39391 -0.231079,0.574865 0.0058,0.09292 0.112769,0.184043 0.135248,0.309976 0.01443,0.06724 -0.03174,0.209639 0,0.270525 0.09811,0.189583 0.36121,0.02828 0.535413,0.05635 0.17025,0.0029 0.368124,0.271593 0.366335,0.462146 -0.0017,0.133025 -0.123994,0.351078 -0.208542,0.479054 -0.168518,0.255375 -0.396056,0.269341 -0.636859,0.405787 -0.200837,0.113981 -0.288098,0.303472 -0.405786,0.501597 -0.127832,0.214111 -0.204676,0.343971 -0.152158,0.653765 -0.17227,0.341395 -0.4324,0.553304 -0.789031,0.715763 -0.105901,0.0479 -0.252835,0.06513 -0.349428,0.135248 -0.07676,0.0554 -0.121714,0.203781 -0.231078,0.326883 -0.134757,0.150628 -0.272573,0.211802 -0.34379,0.326886 -0.05483,0.08945 -0.07526,0.26406 -0.135247,0.383241 -0.08253,0.161593 -0.258405,0.241928 -0.366335,0.405787 -0.04963,0.0756 -0.08042,0.227384 -0.135277,0.326882 -0.12206,0.221903 -0.332279,0.385406 -0.309973,0.580501 0.0202,0.189006 0.239187,0.218786 0.253615,0.383244 0.01154,0.09292 -0.06602,0.146704 -0.06198,0.247988 2.89e-4,0.147743 0.106825,0.252576 0.118338,0.366335 0.0029,0.286251 -0.104141,0.401879 -0.157813,0.597407 -0.02597,0.09349 -0.0101,0.197808 -0.03382,0.270524 -0.04704,0.142837 -0.250152,0.27569 -0.253615,0.445236 -2.88e-4,0.120618 0.12486,0.214457 0.135248,0.383244 0.0058,0.116001 -0.06022,0.242361 -0.03945,0.349428 0.04098,0.209783 0.41758,0.451394 0.580501,0.614314 0.217862,0.217863 0.503481,0.384682 0.597407,0.614317 0.07935,0.194778 0.07959,0.456022 0.231078,0.603043 0.11225,0.107921 0.295612,0.174607 0.439603,0.287434 0.134469,0.104458 0.284981,0.192555 0.428329,0.304338 0.234599,0.183523 0.584457,0.552334 0.958106,0.524142 0.194778,-0.01443 0.398657,-0.174925 0.619953,-0.214169 0.227962,-0.04011 0.519914,-0.06282 0.749579,-0.03945 0.176309,0.01731 0.358159,0.121656 0.541048,0.112711 0.193335,-0.01154 0.417468,-0.152186 0.636859,-0.247988 0.379918,-0.165344 0.944169,-0.385628 1.499156,-0.30434 0.422739,0.06146 0.406026,0.541634 0.698856,0.727033 0.340009,0.0029 0.610207,-0.122724 0.879202,-0.05636 0.203435,0.05021 0.448306,0.35743 0.467784,0.518503 0.0202,0.167076 -0.09384,0.42104 -0.118367,0.524142 -0.05309,0.224788 -0.0554,0.488733 -0.0958,0.631224 -0.03174,0.11023 -0.120098,0.177204 -0.118367,0.287434 0.0017,0.101284 0.127774,0.35227 0.231078,0.48469 0.126678,0.162459 0.331033,0.28602 0.484691,0.462145 0.281922,0.322292 0.402312,0.713264 0.597407,1.138456 0.04952,0.107719 0.101371,0.252894 0.14653,0.38888 l 7.749394,0 c 0.154725,-0.628122 0.331067,-1.247956 0.439602,-1.893671 0.03878,-0.228596 0.07503,-0.456708 0.107085,-0.687582 0.143587,-1.04472 0.242413,-2.104763 0.242413,-3.190046 0,-0.871905 -0.05892,-1.729362 -0.152158,-2.575617 -0.09341,-0.847704 -0.240716,-1.679718 -0.422696,-2.496716 -0.139547,-0.626448 -0.290008,-1.248403 -0.479051,-1.854219 -0.03425,-0.109768 -0.08097,-0.213274 -0.118367,-0.321247 -0.112885,-0.343519 -0.238033,-0.678377 -0.366335,-1.014465 -0.16168,-0.42347 -0.333102,-0.840247 -0.518507,-1.251176 -0.0066,-0.01472 -0.01068,-0.03027 -0.01702,-0.0451 -0.0052,-0.01154 -0.01154,-0.02222 -0.01702,-0.03382 -0.07107,-0.155995 -0.151003,-0.308063 -0.225451,-0.462145 -0.278835,-0.577286 -0.577508,-1.14176 -0.901748,-1.690779 -0.0043,-0.0072 -0.0069,-0.01529 -0.01125,-0.02251 -0.167306,-0.282817 -0.333753,-0.564964 -0.512755,-0.839759 -0.450185,-0.691097 -0.928746,-1.358324 -1.448432,-1.995117 -0.518507,-0.635344 -1.068862,-1.244342 -1.651327,-1.820402 -0.267379,-0.264436 -0.554054,-0.5097 -0.834116,-0.76085 -0.004,-0.0035 -0.0072,-0.0078 -0.01125,-0.01125 -0.815856,-0.730699 -1.671913,-1.413796 -2.58684,-2.023329 C 41.14873,10.342018 36.748593,8.9152542 32,8.9152542 Z m -7.25907,4.2438508 c -0.06585,0.125263 -0.130833,0.251912 -0.264898,0.293069 0.03549,0.188141 -0.219709,0.307671 -0.247988,0.45651 -0.01731,0.10013 0.02741,0.21893 0.03382,0.309976 0.05771,0.92137 -0.703095,1.354922 -1.600604,1.330077 -0.176309,0.168518 -0.129909,0.484742 -0.225451,0.715762 -0.0808,0.194201 -0.369503,0.399808 -0.563591,0.383242 -0.143414,-0.01154 -0.303994,-0.215612 -0.304341,-0.349425 -4.61e-4,-0.164768 0.23835,-0.251278 0.0958,-0.439603 0.0202,-0.12812 0.305613,-0.201818 0.270524,-0.405787 -0.03607,-0.212379 -0.332916,-0.102352 -0.59741,-0.135247 -0.148896,-0.0202 -0.322791,-0.105555 -0.479051,-0.18035 1.207306,-0.797275 2.511479,-1.452181 3.883151,-1.97821 z m 15.600238,2.16983 c -0.07849,0.01154 -0.155736,0.02741 -0.219796,0.06764 -0.146588,0.08945 -0.196682,0.226952 -0.309976,0.270524 -0.156399,0.05916 -0.264349,0.0084 -0.287434,0.152157 -0.01731,0.118598 0.09955,0.176339 0.0958,0.287434 -0.05685,0.141394 -0.219709,0.178618 -0.247988,0.349428 0.194777,0.318397 0.665138,0.03414 0.907383,-0.03945 0.109076,-0.03174 0.262214,-0.02597 0.321248,-0.112711 0.06723,-0.101861 0.0089,-0.28097 0.06198,-0.428332 0.05598,-0.16217 0.210677,-0.182081 0.191633,-0.326883 -0.01731,-0.143702 -0.276787,-0.243169 -0.512869,-0.219795 z m -21.179804,2.243099 c 0.174867,0.04559 0.637488,0.552265 0.253615,0.715763 -0.03636,0.01731 -0.562781,0.07194 -0.653766,0.05635 -0.133026,-0.0202 -0.214746,-0.207416 -0.349428,-0.231078 -0.266052,-0.04675 -0.623539,0.318999 -0.805938,0.01703 0.04646,-0.171116 0.236302,-0.175964 0.439603,-0.231078 0.360988,-0.09851 0.803577,-0.408592 1.115914,-0.326987 z m 0.732669,0.929928 c 0.09032,0.0058 0.201068,0.104632 0.309976,0.112712 0.103016,0.0058 0.184794,-0.05561 0.247988,-0.03945 0.161016,0.04242 0.230675,0.286655 0.07889,0.405786 -0.125811,0.01443 -0.175299,-0.05618 -0.270524,-0.03945 -0.261723,0.04501 -0.362428,0.558016 -0.557955,0.541049 -0.18439,-0.01731 -0.283077,-0.463605 -0.0958,-0.59741 0.0058,-0.116867 -0.08495,-0.13848 -0.07889,-0.253615 0.05656,-0.07214 0.212783,-0.142606 0.366335,-0.129621 z m -0.867931,0.05636 c 0.05338,0.0017 0.09846,0.0176 0.118367,0.03945 -0.02597,0.205166 -0.191084,0.191546 -0.349428,0.287434 -0.273843,0.165345 -0.431385,0.418982 -0.518504,0.772121 -0.02597,0.103593 -0.29238,0.370886 -0.422696,0.34379 -0.305668,-0.06406 0.08261,-0.624509 0.152157,-0.710124 0.07676,-0.09494 0.179628,-0.17807 0.270525,-0.287434 0.08801,-0.10619 0.146241,-0.25122 0.231078,-0.309976 0.0932,-0.06406 0.357548,-0.141308 0.518506,-0.135248 z m 27.430045,0.118367 0.0058,0 c 0.137297,0.03714 0.126735,0.15839 0.231078,0.231078 0.07676,0.05338 0.178619,0.04184 0.264898,0.0958 0.101284,0.06377 0.156255,0.230588 0.270524,0.326883 0.161593,0.135911 0.448724,0.235291 0.676311,0.34379 0.04525,0.02164 0.09932,0.05402 0.152157,0.07889 0.145867,0.191228 0.294888,0.378324 0.433968,0.574865 -0.0032,0.02568 -0.0092,0.05601 -0.0058,0.07889 0.01731,0.114269 0.09733,0.233906 0.152158,0.309976 0.148896,0.205166 0.360182,0.387832 0.524142,0.636859 -0.002,0.238148 0.09791,0.373301 0.264897,0.439603 0.310375,0.530384 0.594709,1.074292 0.856664,1.634417 -0.08567,-0.0058 -0.174232,-0.01154 -0.259242,-0.03382 -0.189584,-0.334354 -1.146481,-0.356558 -1.228634,0.135248 -0.03665,0.216996 0.108441,0.520532 -0.214168,0.557955 -0.204878,0.02597 -0.412539,-0.209638 -0.693221,-0.270524 -0.115135,-0.02597 -0.276815,-0.0072 -0.366335,-0.03945 -0.210071,-0.07243 -0.185659,-0.272631 -0.366334,-0.400148 -0.105036,-0.07358 -0.375127,-0.17908 -0.541049,-0.197259 -0.103304,-0.01154 -0.201011,0.03134 -0.309976,0.01703 -0.129563,-0.01443 -0.313272,-0.10241 -0.422694,-0.169067 -0.104458,-0.06377 -0.317245,-0.16243 -0.343792,-0.253615 -0.04097,-0.141971 0.260425,-0.301934 0.270524,-0.422696 0.0058,-0.0909 -0.112769,-0.147483 -0.135247,-0.287434 -0.01443,-0.08455 0.03509,-0.174809 0.01702,-0.231078 -0.0029,-0.09955 -0.194201,-0.211284 -0.349428,-0.214169 -0.137355,-0.0017 -0.265764,0.114904 -0.383245,0.118367 -0.169384,2.88e-4 -0.444098,-0.09534 -0.653765,-0.07889 -0.128409,0.01154 -0.246834,0.08657 -0.366335,0.0958 -0.335739,0.0029 -0.608185,-0.01731 -0.867932,0 -0.189295,0.01154 -0.517141,0.07194 -0.69322,0.152158 -0.08945,0.04069 -0.155389,0.13897 -0.270525,0.197259 -0.05194,0.02597 -0.122666,0.02482 -0.191632,0.05636 -0.109364,0.04963 -0.222797,0.165373 -0.326883,0.191632 -0.150628,0.03867 -0.381368,-0.02857 -0.653768,-0.01703 -0.195644,0.01154 -0.521482,0.0061 -0.524142,-0.231079 -0.0029,-0.356543 0.610135,-0.224816 0.946838,-0.287433 0.126966,-0.02597 0.192382,-0.141048 0.343789,-0.231079 0.07243,-0.04328 0.162979,-0.04905 0.231079,-0.0958 0.116866,-0.08022 0.29298,-0.273612 0.309976,-0.366335 0.01731,-0.0857 -0.04955,-0.207041 -0.03945,-0.270525 0.01443,-0.08108 0.109421,-0.16722 0.214168,-0.270524 0.162459,-0.16015 0.336048,-0.373932 0.535414,-0.479052 0.1362,-0.07185 0.326337,-0.06622 0.388879,-0.174722 0.01443,-0.123504 -0.01991,-0.197837 -0.01702,-0.309977 0.08397,-0.07647 0.138422,-0.137152 0.208542,-0.152157 0.207763,-0.04501 0.411982,0.145636 0.653766,0.135248 0.104459,-0.0058 0.197836,-0.07771 0.309976,-0.152157 0.09436,-0.06262 0.195095,-0.110778 0.287434,-0.157814 0.101862,-0.05281 0.209061,-0.166931 0.332519,-0.174722 0.303189,-0.01731 0.420226,0.319025 0.557955,0.501597 0.115424,0.151782 0.442044,0.411938 0.631224,0.518503 0.106478,0.05973 0.249113,0.06527 0.366334,0.118367 0.250181,0.11225 0.747251,0.487484 0.755215,0.732673 0.0058,0.122349 -0.114847,0.21414 -0.0958,0.326883 0.189295,0.03174 0.395736,-0.176714 0.400151,-0.366335 0.0017,-0.118598 -0.118598,-0.185169 -0.0958,-0.309976 0.08859,-0.190738 0.347991,0.0046 0.462146,-0.07327 -0.0202,-0.215553 -0.317612,-0.237513 -0.501597,-0.349428 -0.09927,-0.0606 -0.161882,-0.188948 -0.264898,-0.231078 -0.149185,-0.06118 -0.312158,-0.04551 -0.428332,-0.135248 -0.109075,-0.08426 -0.157553,-0.272082 -0.264897,-0.400151 -0.156399,-0.18612 -0.499684,-0.216679 -0.405787,-0.636859 0.04591,-0.06233 0.152735,-0.157207 0.225423,-0.135248 z m -25.147495,0.580498 c 0.09753,0.0017 0.185053,0.01299 0.225451,0.05073 -0.06262,0.254509 -0.61111,0.19293 -0.811573,0.101457 0.01154,-0.09551 0.161622,-0.12258 0.287434,-0.135248 0.08917,-0.0058 0.200636,-0.01703 0.298705,-0.01703 z m 23.856867,0.462139 c -0.124946,0.04098 -0.190161,0.310201 0,0.34379 0.08859,-0.05309 0.157207,-0.124687 0.135248,-0.287434 -0.04877,-0.05281 -0.09398,-0.07021 -0.135248,-0.05636 z m -25.108043,0.0058 c 0.06579,-0.0017 0.134498,0.0022 0.202886,0.02828 -0.177752,0.148608 -0.371794,0.230559 -0.676311,0.326883 -0.146588,0.04646 -0.397935,0.107258 -0.422693,-0.05636 -0.03174,-0.20026 0.215583,-0.15712 0.349428,-0.174722 0.168519,-0.0202 0.349339,-0.117646 0.546684,-0.123994 z m 25.05732,0.535411 c -0.06204,0.01731 -0.131179,0.06037 -0.197259,0.12962 0.0029,0.215266 0.02626,0.354207 -0.01703,0.541049 0.12408,0.237484 0.398835,0.02684 0.462145,-0.135248 0.07445,-0.400982 -0.06302,-0.585911 -0.247988,-0.535413 z m 1.640053,1.06519 c -0.169298,-0.0055 -0.329281,0.0019 -0.428329,0.08455 0.141106,0.231136 0.433864,0.309316 0.749576,0.366335 0.113981,-0.08541 0.122782,-0.275314 0.174723,-0.422693 -0.136662,0.0017 -0.320589,-0.01933 -0.490326,-0.02828 l -0.0058,0 z m -34.18188,7.822529 c 0.472371,-0.01443 0.678108,0.599791 1.059555,0.789028 0.09551,0.04819 0.220344,0.0509 0.34379,0.07889 0.10013,0.0202 0.174722,0.0632 0.270524,0.0958 0.203723,0.06897 0.457003,0.06282 0.619952,0.135248 0.245564,0.109075 0.420027,0.569694 0.631224,0.693217 0.01154,0.124658 -0.02049,0.290242 0.01703,0.383244 0.09984,0.135046 0.241409,0.10896 0.405786,0.19726 0.196509,0.106189 0.258953,0.378465 0.445239,0.462148 0.06348,0.0029 0.225393,0.02626 0.326883,0.05635 0.255375,0.07705 0.338938,0.374643 0.557955,0.309976 0.143703,-0.04184 0.129361,-0.189612 0.152157,-0.326885 0.09494,-0.103305 0.201444,-0.267639 0.349428,-0.270525 0.239505,-0.0029 0.262012,0.24643 0.349428,0.479055 0.04877,0.131294 0.174781,0.244698 0.208542,0.383244 0.05916,0.239504 0.03215,0.955879 -0.01703,1.099004 -0.0606,0.175733 -0.298794,0.250614 -0.445238,0.445239 -0.06868,0.0909 -0.09964,0.223373 -0.152158,0.287434 -0.09378,0.114846 -0.239706,0.147425 -0.309976,0.253614 -0.04011,0.05944 -0.07462,0.190017 -0.112711,0.270525 -0.116001,0.245275 -0.271967,0.415854 -0.174723,0.710127 0.03982,0.120906 0.230502,0.201299 0.231079,0.34379 3.75e-4,0.167941 -0.355537,0.317611 -0.383242,0.501596 -0.0202,0.1362 0.109162,0.385524 0.152158,0.563594 0.03174,0.134758 0.286914,0.214775 0.366334,0.304341 0.135046,0.151782 0.242765,0.367275 0.366335,0.557955 0.244121,0.375099 0.43848,0.831467 0.676311,1.194815 0.124946,0.190449 0.299444,0.360468 0.383241,0.557958 0.04242,0.09984 0.03878,0.220373 0.07889,0.309976 0.137643,0.310981 0.745747,0.634793 1.059556,0.789028 0.146876,0.07214 0.304816,0.09912 0.439602,0.174723 0.204012,0.113981 0.612661,0.418356 0.715763,0.597407 0.09234,0.161016 0.146617,0.550072 0.191632,0.805938 0.05944,0.33822 0.0025,0.597534 0.01703,0.963745 0.01154,0.19824 0.0763,0.398878 0.07889,0.597407 8.94e-4,0.06925 -0.03685,0.125985 -0.03945,0.197259 -0.0058,0.240081 0.06022,0.507795 0.03945,0.749579 -0.01154,0.131583 -0.04926,0.239504 -0.03945,0.349428 0.01154,0.119464 0.06966,0.216593 0.07889,0.321247 0.0058,0.112827 -0.03408,0.261724 -0.02251,0.349426 0.02597,0.243255 0.205714,0.431404 0.253615,0.653768 0.03809,0.177176 0.06224,0.543095 0.03945,0.755215 -0.01443,0.111384 -0.07878,0.221815 -0.0958,0.343789 -0.01154,0.09638 0.01443,0.197404 0,0.287434 -0.01731,0.134757 -0.103881,0.240716 -0.0958,0.366335 0.01731,0.259703 0.303103,0.472851 0.34379,0.732669 0.01443,0.08714 -0.01991,0.186554 -0.01703,0.270525 0.0029,0.07912 0.03353,0.147973 0.05636,0.219795 C 15.891793,46.065758 11.800847,39.532806 11.800847,32 c 0,-0.903133 0.07785,-1.783395 0.191633,-2.654521 0.182658,8.95e-4 0.379144,-0.191776 0.5805,-0.197259 z m 7.839571,2.181102 c 0.184966,-0.08484 0.230963,0.268158 0.07889,0.293069 -0.143991,0.0202 -0.218555,-0.228625 -0.07889,-0.293069 z"
     class="ColorScheme-Text"
     id="path6"
     inkscape:connector-curvature="0"
     sodipodi:nodetypes="ssccccccccccccscccccsccsccccccccccccccccccccccccccccccsccccccccccccccccccccccccccccccccccccccccccccccccccccccccccccccccccccccccccccccccccccccccccccccccccccccccccccccccccccccccccccccccccccccccccccccscccccccccccccccccccccccccccccccccccccccccccccccccccccccccccccccscccccccccccccccccccccccscccccccccccsssccsscccccccccccccccccccccccccccccccccccccccccccccccccccccccccccccccccccccccccccccccccccccccccccccccccccccccccccccccccccccccccccccccccccccccccccccccccccccccccccccccccccccccccccccccccccccccccccccccccccccscccccc" />
  <path
     inkscape:connector-curvature="0"
     style="color:#4d4d4d;fill:currentColor;fill-opacity:1;stroke:none"
     d="m 38.652542,38.703391 0,2.04096 0,10.204803 2.04096,0 6.122882,0 0,4.081921 0,2.04096 6.122881,6.122881 0,-6.122881 8.163842,0 2.04096,0 0,-10.204802 0,-2.040961 -2.04096,0 -6.122881,0 0,-6.122881 -14.286724,0 -2.04096,0 z m 2.04096,2.04096 12.245763,0 0,4.081921 0,2.040961 0,2.04096 -4.081921,0 -2.04096,0 -6.122882,0 0,-8.163842 z m 14.286724,6.122882 6.122881,0 0,8.163842 -10.204802,0 -2.040961,0 0,-4.081921 2.040961,0 0,4.081921 4.081921,-4.081921 0,-2.040961 0,-2.04096 z"
     class="ColorScheme-Text"
     id="path6-3" />
</svg>
