<svg xmlns="http://www.w3.org/2000/svg" viewBox="0 0 500 500">
  <path d="M207.8 496.4C8 462.4-70.2 214.4 73.8 72c131-129.6 354.4-76.6 413 98.2 60 178.3-93.6 357.8-279 326.2zm81.3-48c162-34 218.8-234 98-346.5C259-18 48.7 73 48.7 248 48.6 377.2 165 474.2 289 448zm-193-84c-2-2-3.2-7-3.2-12.6 0-16.8-3-15.8 49-15.8 55.4 0 56-.2 56-17.6 0-17.7-1-18-45.4-18-55.4 0-58.6-2.7-58.6-48.2 0-48 .4-48.2 78-48.2 63.8 0 59.4-1.2 59.4 16.5 0 15 .8 15-51.6 15-53.3 0-53.2 0-53 16.3 0 16.4-1.2 16 44.7 17 56.7 1.6 60 4.4 60 49.3 0 29-2.6 37-14.6 44-10.3 6-114.7 8-120.4 2zM302.4 289v-53.4H287c-18.4 0-20.5-1.6-20.4-15.6 0-14.7 1-15.5 19-16.2l15.6-.6 1-22c1.8-38.2 8-42.6 60-43.6 41.3-.8 42.8-.3 42.8 15.3 0 16 1.4 15.3-36 15.3h-33V204h32c36.8 0 37.2.3 37.2 15.8 0 15.4-.4 15.6-37 15.6H336V278c0 40.3-.3 43-4.4 48.3-4 5.3-22.2 16-27 16-1.4 0-2.2-18.2-2.2-53.5z" fill="#d64937"/>
</svg>
