<?xml version="1.0" standalone="no"?>
<!DOCTYPE svg PUBLIC "-//W3C//DTD SVG 20010904//EN"
 "http://www.w3.org/TR/2001/REC-SVG-20010904/DTD/svg10.dtd">
<svg version="1.0" xmlns="http://www.w3.org/2000/svg"
 width="40.444447mm" height="40.44445mm" viewBox="0 0 512.000000 512.000000"
 preserveAspectRatio="xMidYMid meet">
<metadata>
Created by potrace 1.14, written by Peter Selinger 2001-2017
</metadata>
<g transform="translate(0.000000,512.000000) scale(0.100000,-0.100000)"
fill="#d64937" stroke="none">
<path d="M1136 4788 c-3 -79 -9 -199 -11 -268 -8 -175 -33 -573 -46 -707 -6
-62 -8 -117 -5 -121 14 -23 380 -186 446 -198 13 -3 27 -7 29 -10 8 -7 -45 -4
-100 6 -30 6 -72 13 -94 16 -42 5 -106 22 -218 56 -75 24 -85 20 -88 -32 -3
-58 -29 -289 -49 -425 -6 -38 -19 -133 -30 -210 -11 -77 -22 -156 -25 -175 -3
-19 -16 -111 -30 -205 -25 -179 -46 -320 -71 -470 -18 -108 -42 -265 -63 -405
-5 -30 -18 -111 -29 -180 -57 -333 -94 -561 -102 -623 -5 -38 -12 -72 -15 -77
-3 -5 -10 -39 -15 -77 -5 -37 -12 -84 -16 -104 -6 -36 -6 -36 38 -47 157 -40
543 -56 763 -32 570 62 1078 309 1454 706 89 94 92 96 111 79 50 -45 56 -190
15 -348 -14 -54 -32 -114 -40 -134 -8 -19 -15 -41 -15 -48 0 -17 149 -215 245
-324 42 -48 98 -104 124 -124 77 -59 117 -69 292 -75 153 -4 157 -4 164 17 3
11 3 25 0 31 -8 12 -10 12 95 0 47 -6 118 -8 157 -4 l73 6 0 48 c0 38 -6 55
-26 80 -39 46 -76 60 -170 67 l-86 6 -54 68 c-56 68 -144 197 -144 210 0 4 12
10 28 14 47 11 263 121 343 174 106 70 211 183 239 257 19 52 22 72 17 173 -3
89 -1 128 14 184 23 92 37 106 64 67 11 -17 25 -30 30 -30 11 0 62 83 103 165
65 130 80 263 38 326 l-24 35 64 115 c64 114 106 223 119 311 5 32 11 45 20
42 13 -6 18 5 31 66 6 32 7 33 15 13 10 -27 29 -30 29 -5 0 46 -24 140 -49
192 l-28 58 34 -20 c38 -23 53 -18 32 11 -8 11 -36 50 -63 88 -27 37 -100 120
-161 183 -100 102 -119 127 -165 220 -29 58 -59 122 -66 142 -15 44 -27 37
121 63 186 32 195 35 207 61 6 13 34 38 62 55 82 51 127 90 158 138 28 45 36
88 19 107 -9 10 28 70 44 69 6 0 11 19 13 43 3 39 5 42 19 30 15 -12 16 -7 9
45 -8 73 -40 137 -110 220 l-55 64 24 23 c100 94 82 295 -33 375 -40 28 -50
30 -130 30 -56 0 -109 -7 -147 -18 l-60 -19 -80 28 c-68 24 -99 28 -207 30
-70 2 -145 8 -165 13 -75 21 -310 13 -460 -15 -102 -19 -157 -24 -211 -21 -71
5 -73 5 -66 -16 3 -12 16 -33 28 -46 l21 -23 -40 17 c-22 9 -44 17 -50 18 -14
3 -19 -78 -6 -101 8 -15 1 -25 -39 -60 -27 -23 -65 -69 -85 -101 -34 -54 -40
-59 -81 -66 -171 -25 -349 -147 -389 -265 -28 -82 -27 -202 3 -262 56 -113
151 -179 313 -218 46 -11 85 -24 87 -28 1 -5 9 -18 17 -28 13 -16 16 -17 25
-4 7 11 8 4 3 -22 -6 -40 5 -49 27 -23 18 22 24 11 9 -14 -18 -27 -9 -33 32
-20 52 15 159 13 209 -5 25 -9 72 -19 105 -22 147 -12 143 -11 169 -62 13 -26
36 -81 51 -122 23 -65 26 -85 22 -150 -9 -132 -122 -600 -144 -600 -3 0 -29
21 -57 48 -29 26 -94 85 -146 132 -111 100 -359 329 -564 520 -76 71 -142 133
-406 385 -333 319 -729 730 -1084 1128 -99 110 -102 108 -110 -65z m978 -2048
c203 -58 388 -281 485 -583 17 -54 31 -108 31 -121 0 -14 4 -37 10 -51 10 -26
11 -26 82 -19 l71 7 -70 -84 c-97 -115 -197 -271 -289 -452 -99 -195 -133
-244 -235 -342 -290 -277 -749 -438 -1484 -520 -63 -7 -63 -7 -20 41 6 6 20
23 33 38 225 264 706 737 820 806 16 10 33 24 37 30 4 6 72 54 151 106 l144
95 -46 92 c-136 269 -167 542 -87 757 38 103 113 180 198 202 80 21 89 21 169
-2z m1257 -201 c75 -1 78 -1 68 -20 -16 -31 -38 -34 -108 -15 -64 17 -80 21
-131 26 -17 2 -10 5 20 10 25 4 51 5 59 3 8 -2 49 -4 92 -4z m93 -2014 c86
-101 84 -95 43 -95 -33 0 -41 7 -99 80 -35 44 -80 108 -101 142 -33 55 -36 63
-20 69 13 4 31 -12 72 -65 30 -39 77 -98 105 -131z"/>
</g>
</svg>
