<svg id="svg" version="1.1" width="153" height="153" viewBox="0 0 400 400" xmlns="http://www.w3.org/2000/svg" xmlns:xlink="http://www.w3.org/1999/xlink" ><g id="svgg"><path id="path0" d="" stroke="none" fill="#000000" fill-rule="evenodd"></path><path id="path1" d="" stroke="none" fill="#550000" fill-rule="evenodd"></path><path id="path2" d="M49.119 236.698 C 50.944 236.772,53.824 236.772,55.519 236.697 C 57.214 236.622,55.720 236.561,52.200 236.562 C 48.680 236.562,47.294 236.624,49.119 236.698 " stroke="none" fill="#990000" fill-rule="evenodd"></path><path id="path3" d="" stroke="none" fill="#a21717" fill-rule="evenodd"></path><path id="path4" d="" stroke="none" fill="#993300" fill-rule="evenodd"></path><path id="path5" d="" stroke="none" fill="#b11414" fill-rule="evenodd"></path><path id="path6" d="" stroke="none" fill="#b60000" fill-rule="evenodd"></path><path id="path7" d="" stroke="none" fill="#b62400" fill-rule="evenodd"></path><path id="path8" d="" stroke="none" fill="#b13b14" fill-rule="evenodd"></path><path id="path9" d="" stroke="none" fill="#c61c1c" fill-rule="evenodd"></path><path id="path10" d="" stroke="none" fill="#bb3311" fill-rule="evenodd"></path><path id="path11" d="" stroke="none" fill="#c32d0f" fill-rule="evenodd"></path><path id="path12" d="" stroke="none" fill="#c92828" fill-rule="evenodd"></path><path id="path13" d="M244.854 160.400 C 244.582 160.959,244.646 165.515,244.922 165.239 C 245.099 165.062,245.178 163.855,245.097 162.558 C 245.017 161.261,244.908 160.290,244.854 160.400 M42.305 237.483 C 42.802 237.579,43.522 237.575,43.905 237.475 C 44.287 237.375,43.880 237.296,43.000 237.301 C 42.120 237.305,41.807 237.387,42.305 237.483 M132.100 237.496 C 133.365 237.575,135.435 237.575,136.700 237.496 C 137.965 237.416,136.930 237.351,134.400 237.351 C 131.870 237.351,130.835 237.416,132.100 237.496 " stroke="none" fill="#d11717" fill-rule="evenodd"></path><path id="path14" d="" stroke="none" fill="#c6422f" fill-rule="evenodd"></path><path id="path15" d="M215.611 179.585 C 215.109 179.902,215.126 179.997,215.728 180.228 C 216.117 180.377,216.547 180.387,216.684 180.249 C 216.821 180.112,216.713 180.000,216.443 180.000 C 216.173 180.000,216.064 179.820,216.200 179.600 C 216.504 179.107,216.371 179.104,215.611 179.585 M213.600 180.376 C 213.600 181.047,214.309 181.213,214.546 180.598 C 214.685 180.235,214.544 180.000,214.187 180.000 C 213.864 180.000,213.600 180.169,213.600 180.376 M141.520 234.080 C 141.893 234.453,142.107 234.453,142.480 234.080 C 142.853 233.707,142.747 233.600,142.000 233.600 C 141.253 233.600,141.147 233.707,141.520 234.080 M358.900 238.276 C 359.285 238.376,359.915 238.376,360.300 238.276 C 360.685 238.175,360.370 238.093,359.600 238.093 C 358.830 238.093,358.515 238.175,358.900 238.276 " stroke="none" fill="#d33721" fill-rule="evenodd"></path><path id="path16" d="" stroke="none" fill="#e12d2d" fill-rule="evenodd"></path><path id="path17" d="M320.400 197.325 C 320.400 197.394,320.985 197.979,321.700 198.625 L 323.000 199.800 321.825 198.500 C 320.730 197.288,320.400 197.016,320.400 197.325 M49.300 237.097 C 51.005 237.172,53.795 237.172,55.500 237.097 C 57.205 237.022,55.810 236.961,52.400 236.961 C 48.990 236.961,47.595 237.022,49.300 237.097 " stroke="none" fill="#dd3311" fill-rule="evenodd"></path><path id="path18" d="" stroke="none" fill="#d14600" fill-rule="evenodd"></path><path id="path19" d="M175.000 4.800 C 174.864 5.020,173.604 5.200,172.200 5.200 C 170.796 5.200,169.536 5.380,169.400 5.600 C 169.264 5.820,168.184 6.000,167.000 6.000 C 165.816 6.000,164.736 6.180,164.600 6.400 C 164.464 6.620,163.654 6.800,162.800 6.800 C 161.946 6.800,161.136 6.980,161.000 7.200 C 160.864 7.420,160.043 7.600,159.176 7.600 C 158.309 7.600,157.600 7.780,157.600 8.000 C 157.600 8.220,156.700 8.400,155.600 8.400 C 154.500 8.400,153.600 8.580,153.600 8.800 C 153.600 9.020,152.880 9.200,152.000 9.200 C 151.120 9.200,150.400 9.380,150.400 9.600 C 150.400 9.820,149.961 10.000,149.424 10.000 C 148.887 10.000,148.336 10.180,148.200 10.400 C 148.064 10.620,147.344 10.800,146.600 10.800 C 145.856 10.800,145.136 10.980,145.000 11.200 C 144.864 11.420,144.313 11.600,143.776 11.600 C 143.239 11.600,142.800 11.780,142.800 12.000 C 142.800 12.220,142.182 12.400,141.428 12.400 C 140.673 12.400,138.558 12.870,136.728 13.445 C 133.402 14.490,132.781 14.706,130.681 15.550 C 130.066 15.798,129.211 16.000,128.781 16.000 C 128.352 16.000,128.000 16.180,128.000 16.400 C 128.000 16.620,127.640 16.800,127.200 16.800 C 126.760 16.800,126.400 16.980,126.400 17.200 C 126.400 17.420,126.058 17.600,125.641 17.600 C 125.223 17.600,123.855 18.140,122.600 18.800 C 121.345 19.460,120.084 20.000,119.797 20.000 C 119.161 20.000,115.852 21.682,115.667 22.100 C 115.593 22.265,115.188 22.400,114.767 22.400 C 114.345 22.400,114.000 22.580,114.000 22.800 C 114.000 23.020,113.640 23.200,113.200 23.200 C 112.760 23.200,112.399 23.335,112.397 23.500 C 112.393 23.859,110.456 24.800,109.720 24.800 C 109.434 24.800,109.200 24.980,109.200 25.200 C 109.200 25.420,108.840 25.600,108.400 25.600 C 107.960 25.600,107.600 25.780,107.600 26.000 C 107.600 26.220,107.240 26.400,106.800 26.400 C 106.360 26.400,106.000 26.580,106.000 26.800 C 106.000 27.020,105.640 27.200,105.200 27.200 C 104.760 27.200,104.400 27.380,104.400 27.600 C 104.400 27.820,104.040 28.000,103.600 28.000 C 103.160 28.000,102.800 28.153,102.800 28.339 C 102.800 28.526,102.035 29.018,101.100 29.434 C 100.165 29.850,99.066 30.493,98.658 30.864 C 98.250 31.234,97.350 31.767,96.658 32.047 C 95.966 32.327,95.109 32.881,94.753 33.278 C 94.397 33.675,93.852 34.000,93.541 34.000 C 93.231 34.000,92.717 34.360,92.400 34.800 C 92.083 35.240,91.621 35.600,91.374 35.600 C 91.126 35.600,90.598 35.960,90.200 36.400 C 89.802 36.840,89.268 37.200,89.013 37.200 C 88.758 37.200,88.032 37.740,87.400 38.400 C 86.768 39.060,86.051 39.600,85.806 39.600 C 85.562 39.600,84.659 40.320,83.800 41.200 C 82.941 42.080,82.038 42.800,81.794 42.800 C 81.549 42.800,80.832 43.340,80.200 44.000 C 79.568 44.660,78.849 45.200,78.604 45.200 C 78.358 45.200,77.546 45.830,76.800 46.600 C 76.054 47.370,75.245 48.000,75.003 48.000 C 74.761 48.000,73.859 48.720,73.000 49.600 C 72.141 50.480,71.238 51.200,70.994 51.200 C 70.485 51.200,70.014 51.634,66.278 55.548 C 64.781 57.117,63.374 58.400,63.152 58.400 C 62.625 58.400,58.400 62.625,58.400 63.152 C 58.400 63.374,57.117 64.781,55.548 66.278 C 51.634 70.014,51.200 70.485,51.200 70.994 C 51.200 71.238,50.480 72.141,49.600 73.000 C 48.720 73.859,48.000 74.761,48.000 75.003 C 48.000 75.245,47.370 76.054,46.600 76.800 C 45.830 77.546,45.200 78.358,45.200 78.604 C 45.200 78.849,44.660 79.568,44.000 80.200 C 43.340 80.832,42.800 81.549,42.800 81.794 C 42.800 82.038,42.080 82.941,41.200 83.800 C 40.320 84.659,39.600 85.562,39.600 85.806 C 39.600 86.051,39.060 86.768,38.400 87.400 C 37.740 88.032,37.200 88.758,37.200 89.013 C 37.200 89.268,36.840 89.802,36.400 90.200 C 35.960 90.598,35.600 91.126,35.600 91.374 C 35.600 91.621,35.240 92.083,34.800 92.400 C 34.360 92.717,34.000 93.231,34.000 93.541 C 34.000 93.852,33.675 94.397,33.278 94.753 C 32.881 95.109,32.327 95.966,32.047 96.658 C 31.767 97.350,31.234 98.250,30.864 98.658 C 30.493 99.066,29.850 100.165,29.434 101.100 C 29.018 102.035,28.526 102.800,28.339 102.800 C 28.153 102.800,28.000 103.160,28.000 103.600 C 28.000 104.040,27.820 104.400,27.600 104.400 C 27.380 104.400,27.200 104.760,27.200 105.200 C 27.200 105.640,27.020 106.000,26.800 106.000 C 26.580 106.000,26.400 106.360,26.400 106.800 C 26.400 107.240,26.220 107.600,26.000 107.600 C 25.780 107.600,25.600 107.960,25.600 108.400 C 25.600 108.840,25.420 109.200,25.200 109.200 C 24.980 109.200,24.800 109.434,24.800 109.720 C 24.800 110.456,23.859 112.393,23.500 112.397 C 23.335 112.399,23.200 112.760,23.200 113.200 C 23.200 113.640,23.020 114.000,22.800 114.000 C 22.580 114.000,22.400 114.345,22.400 114.767 C 22.400 115.188,22.265 115.593,22.100 115.667 C 21.682 115.852,20.000 119.161,20.000 119.797 C 20.000 120.084,19.460 121.345,18.800 122.600 C 18.140 123.855,17.600 125.223,17.600 125.641 C 17.600 126.058,17.420 126.400,17.200 126.400 C 16.980 126.400,16.800 126.760,16.800 127.200 C 16.800 127.640,16.620 128.000,16.400 128.000 C 16.180 128.000,16.000 128.352,16.000 128.781 C 16.000 129.211,15.798 130.066,15.550 130.681 C 14.706 132.781,14.490 133.402,13.445 136.728 C 12.870 138.558,12.400 140.673,12.400 141.428 C 12.400 142.182,12.220 142.800,12.000 142.800 C 11.780 142.800,11.600 143.239,11.600 143.776 C 11.600 144.313,11.420 144.864,11.200 145.000 C 10.980 145.136,10.800 145.856,10.800 146.600 C 10.800 147.344,10.620 148.064,10.400 148.200 C 10.180 148.336,10.000 148.887,10.000 149.424 C 10.000 149.961,9.820 150.400,9.600 150.400 C 9.380 150.400,9.200 151.120,9.200 152.000 C 9.200 152.880,9.020 153.600,8.800 153.600 C 8.580 153.600,8.400 154.500,8.400 155.600 C 8.400 156.700,8.220 157.600,8.000 157.600 C 7.780 157.600,7.600 158.309,7.600 159.176 C 7.600 160.043,7.420 160.864,7.200 161.000 C 6.980 161.136,6.800 161.946,6.800 162.800 C 6.800 163.654,6.620 164.464,6.400 164.600 C 6.180 164.736,6.000 165.816,6.000 167.000 C 6.000 168.184,5.820 169.264,5.600 169.400 C 5.380 169.536,5.200 170.807,5.200 172.224 C 5.200 173.675,5.025 174.800,4.800 174.800 C 4.538 174.800,4.400 183.467,4.400 200.000 C 4.400 216.533,4.538 225.200,4.800 225.200 C 5.029 225.200,5.200 226.400,5.200 228.000 C 5.200 229.600,5.371 230.800,5.600 230.800 C 5.820 230.800,6.000 231.779,6.000 232.976 C 6.000 234.173,6.180 235.264,6.400 235.400 C 6.620 235.536,6.800 236.447,6.800 237.424 C 6.800 238.401,6.980 239.200,7.200 239.200 C 7.420 239.200,7.600 239.920,7.600 240.800 C 7.600 241.680,7.780 242.400,8.000 242.400 C 8.220 242.400,8.400 243.300,8.400 244.400 C 8.400 245.500,8.580 246.400,8.800 246.400 C 9.020 246.400,9.200 247.120,9.200 248.000 C 9.200 248.880,9.380 249.600,9.600 249.600 C 9.820 249.600,10.000 250.140,10.000 250.800 C 10.000 251.460,10.180 252.000,10.400 252.000 C 10.620 252.000,10.800 252.619,10.800 253.376 C 10.800 254.133,10.980 254.864,11.200 255.000 C 11.420 255.136,11.600 255.676,11.600 256.200 C 11.600 256.724,11.780 257.264,12.000 257.400 C 12.220 257.536,12.400 258.156,12.400 258.778 C 12.400 259.945,13.397 263.670,14.037 264.895 C 14.237 265.277,14.400 265.941,14.400 266.371 C 14.400 266.801,14.580 267.264,14.800 267.400 C 15.020 267.536,15.200 268.051,15.200 268.544 C 15.200 269.037,15.349 269.611,15.530 269.820 C 15.712 270.029,16.101 270.965,16.394 271.900 C 16.688 272.835,17.079 273.600,17.264 273.600 C 17.449 273.600,17.600 274.125,17.600 274.767 C 17.600 275.408,17.735 275.993,17.900 276.067 C 18.449 276.311,20.000 279.662,20.000 280.604 C 20.000 281.115,20.136 281.593,20.302 281.667 C 20.468 281.740,21.232 283.060,22.000 284.600 C 22.768 286.140,23.532 287.460,23.698 287.533 C 23.864 287.607,24.000 288.012,24.000 288.433 C 24.000 288.855,24.135 289.201,24.300 289.203 C 24.659 289.207,25.600 291.144,25.600 291.880 C 25.600 292.166,25.780 292.400,26.000 292.400 C 26.220 292.400,26.400 292.760,26.400 293.200 C 26.400 293.640,26.535 294.001,26.700 294.003 C 27.059 294.007,28.000 295.944,28.000 296.680 C 28.000 296.966,28.138 297.200,28.306 297.200 C 28.474 297.200,29.038 298.100,29.561 299.200 C 30.083 300.300,30.623 301.200,30.761 301.200 C 30.898 301.200,31.447 302.119,31.980 303.241 C 32.513 304.364,33.186 305.373,33.475 305.484 C 33.764 305.595,34.000 305.987,34.000 306.354 C 34.000 306.722,34.360 307.283,34.800 307.600 C 35.240 307.917,35.600 308.457,35.600 308.800 C 35.600 309.143,35.960 309.683,36.400 310.000 C 36.840 310.317,37.200 310.780,37.200 311.029 C 37.200 311.278,37.740 312.046,38.400 312.737 C 39.060 313.428,39.601 314.129,39.603 314.296 C 39.604 314.463,40.316 315.320,41.183 316.200 C 42.051 317.080,42.770 317.998,42.780 318.241 C 42.791 318.483,43.340 319.246,44.000 319.937 C 44.660 320.628,45.200 321.339,45.200 321.518 C 45.200 321.697,45.830 322.454,46.600 323.200 C 47.370 323.946,48.000 324.755,48.000 324.997 C 48.000 325.239,48.720 326.141,49.600 327.000 C 50.480 327.859,51.200 328.775,51.200 329.035 C 51.200 329.296,52.820 331.100,54.800 333.044 C 56.780 334.989,58.400 336.770,58.400 337.003 C 58.400 337.548,62.491 341.600,63.040 341.600 C 63.268 341.600,65.040 343.220,66.978 345.200 C 68.916 347.180,70.712 348.800,70.969 348.800 C 71.227 348.800,72.141 349.520,73.000 350.400 C 73.859 351.280,74.759 352.000,75.000 352.000 C 75.241 352.000,76.141 352.720,77.000 353.600 C 77.859 354.480,78.764 355.200,79.011 355.200 C 79.258 355.200,79.883 355.650,80.400 356.200 C 80.917 356.750,81.502 357.200,81.701 357.200 C 81.900 357.200,82.754 357.920,83.600 358.800 C 84.446 359.680,85.405 360.400,85.733 360.400 C 86.061 360.400,86.783 360.940,87.339 361.600 C 87.894 362.260,88.602 362.800,88.912 362.800 C 89.222 362.800,89.802 363.160,90.200 363.600 C 90.598 364.040,91.126 364.400,91.374 364.400 C 91.621 364.400,92.083 364.760,92.400 365.200 C 92.717 365.640,93.257 366.000,93.600 366.000 C 93.943 366.000,94.483 366.360,94.800 366.800 C 95.117 367.240,95.697 367.600,96.088 367.600 C 96.480 367.600,96.800 367.780,96.800 368.000 C 96.800 368.220,97.048 368.400,97.351 368.400 C 97.654 368.400,98.134 368.679,98.416 369.020 C 98.699 369.361,99.682 369.982,100.600 370.400 C 101.518 370.818,102.497 371.435,102.775 371.770 C 103.053 372.105,103.892 372.494,104.640 372.634 C 105.388 372.774,106.000 373.049,106.000 373.245 C 106.000 373.440,106.234 373.600,106.520 373.600 C 107.256 373.600,109.193 374.541,109.197 374.900 C 109.199 375.065,109.560 375.200,110.000 375.200 C 110.440 375.200,110.800 375.380,110.800 375.600 C 110.800 375.820,111.145 376.000,111.567 376.000 C 111.988 376.000,112.393 376.137,112.467 376.304 C 112.678 376.786,119.325 380.007,120.100 380.003 C 120.485 380.001,120.800 380.180,120.800 380.400 C 120.800 380.620,121.065 380.800,121.388 380.800 C 121.711 380.800,122.617 381.160,123.400 381.600 C 124.183 382.040,125.179 382.400,125.612 382.400 C 126.045 382.400,126.400 382.580,126.400 382.800 C 126.400 383.020,126.760 383.200,127.200 383.200 C 127.640 383.200,128.000 383.380,128.000 383.600 C 128.000 383.820,128.540 384.000,129.200 384.000 C 129.860 384.000,130.400 384.180,130.400 384.400 C 130.400 384.620,130.839 384.800,131.376 384.800 C 131.913 384.800,132.464 384.980,132.600 385.200 C 132.736 385.420,133.199 385.600,133.629 385.600 C 134.059 385.600,134.723 385.759,135.105 385.954 C 136.326 386.576,141.075 388.000,141.929 388.000 C 142.382 388.000,142.864 388.180,143.000 388.400 C 143.136 388.620,143.676 388.800,144.200 388.800 C 144.724 388.800,145.253 388.962,145.376 389.161 C 145.498 389.359,146.679 389.647,147.999 389.800 C 149.320 389.953,150.400 390.241,150.400 390.439 C 150.400 390.638,151.120 390.800,152.000 390.800 C 152.880 390.800,153.600 390.980,153.600 391.200 C 153.600 391.420,154.500 391.600,155.600 391.600 C 156.700 391.600,157.600 391.780,157.600 392.000 C 157.600 392.220,158.320 392.400,159.200 392.400 C 160.080 392.400,160.800 392.580,160.800 392.800 C 160.800 393.020,161.599 393.200,162.576 393.200 C 163.553 393.200,164.464 393.380,164.600 393.600 C 164.736 393.820,165.816 394.000,167.000 394.000 C 168.184 394.000,169.264 394.180,169.400 394.400 C 169.536 394.620,170.807 394.800,172.224 394.800 C 173.675 394.800,174.800 394.975,174.800 395.200 C 174.800 395.462,183.392 395.600,199.776 395.600 C 215.996 395.600,224.839 395.460,225.000 395.200 C 225.136 394.980,226.396 394.800,227.800 394.800 C 229.204 394.800,230.464 394.620,230.600 394.400 C 230.736 394.180,231.816 394.000,233.000 394.000 C 234.184 394.000,235.264 393.820,235.400 393.600 C 235.536 393.380,236.436 393.200,237.400 393.200 C 238.364 393.200,239.264 393.020,239.400 392.800 C 239.536 392.580,240.267 392.400,241.024 392.400 C 241.781 392.400,242.400 392.220,242.400 392.000 C 242.400 391.780,243.300 391.600,244.400 391.600 C 245.500 391.600,246.400 391.420,246.400 391.200 C 246.400 390.980,247.120 390.800,248.000 390.800 C 248.880 390.800,249.600 390.638,249.600 390.439 C 249.600 390.241,250.680 389.953,252.001 389.800 C 253.321 389.647,254.502 389.359,254.624 389.161 C 254.747 388.962,255.276 388.800,255.800 388.800 C 256.324 388.800,256.864 388.620,257.000 388.400 C 257.136 388.180,257.856 388.000,258.600 388.000 C 259.344 388.000,260.064 387.820,260.200 387.600 C 260.336 387.380,260.876 387.200,261.400 387.200 C 261.924 387.200,262.464 387.020,262.600 386.800 C 262.736 386.580,263.276 386.400,263.800 386.400 C 264.324 386.400,264.864 386.220,265.000 386.000 C 265.136 385.780,265.676 385.600,266.200 385.600 C 266.724 385.600,267.264 385.420,267.400 385.200 C 267.536 384.980,268.076 384.800,268.600 384.800 C 269.124 384.800,269.664 384.620,269.800 384.400 C 269.936 384.180,270.487 384.000,271.024 384.000 C 271.561 384.000,272.000 383.820,272.000 383.600 C 272.000 383.380,272.360 383.200,272.800 383.200 C 273.240 383.200,273.600 383.020,273.600 382.800 C 273.600 382.580,274.125 382.400,274.767 382.400 C 275.408 382.400,275.993 382.265,276.067 382.100 C 276.243 381.702,279.548 379.999,280.138 380.002 C 280.593 380.004,292.010 374.426,292.400 374.011 C 292.648 373.748,294.182 373.038,295.900 372.392 C 296.615 372.123,297.200 371.779,297.200 371.628 C 297.200 371.477,297.965 371.025,298.900 370.623 C 299.835 370.221,300.960 369.593,301.400 369.228 C 301.840 368.862,302.740 368.302,303.400 367.982 C 304.060 367.662,304.949 367.085,305.375 366.700 C 305.802 366.315,306.347 366.000,306.587 366.000 C 306.827 366.000,307.283 365.640,307.600 365.200 C 307.917 364.760,308.457 364.400,308.800 364.400 C 309.143 364.400,309.683 364.040,310.000 363.600 C 310.317 363.160,310.773 362.800,311.013 362.800 C 311.254 362.800,311.968 362.260,312.600 361.600 C 313.232 360.940,314.000 360.400,314.306 360.400 C 314.612 360.400,315.554 359.680,316.400 358.800 C 317.246 357.920,318.140 357.200,318.388 357.200 C 318.635 357.200,319.255 356.750,319.765 356.200 C 320.275 355.650,320.852 355.200,321.048 355.200 C 321.244 355.200,322.169 354.480,323.103 353.600 C 324.037 352.720,325.002 352.000,325.246 352.000 C 325.491 352.000,326.322 351.280,327.094 350.400 C 327.865 349.520,328.714 348.800,328.981 348.800 C 329.247 348.800,331.070 347.182,333.032 345.204 C 334.995 343.226,336.786 341.606,337.014 341.604 C 337.534 341.599,341.599 337.511,341.604 336.987 C 341.606 336.774,343.226 334.995,345.204 333.032 C 347.182 331.070,348.800 329.247,348.800 328.981 C 348.800 328.714,349.520 327.865,350.400 327.094 C 351.280 326.322,352.000 325.491,352.000 325.246 C 352.000 325.002,352.720 324.037,353.600 323.103 C 354.480 322.169,355.200 321.244,355.200 321.048 C 355.200 320.852,355.650 320.275,356.200 319.765 C 356.750 319.255,357.200 318.635,357.200 318.388 C 357.200 318.140,357.920 317.246,358.800 316.400 C 359.680 315.554,360.400 314.612,360.400 314.306 C 360.400 314.000,360.940 313.232,361.600 312.600 C 362.260 311.968,362.800 311.254,362.800 311.013 C 362.800 310.773,363.160 310.317,363.600 310.000 C 364.040 309.683,364.400 309.143,364.400 308.800 C 364.400 308.457,364.760 307.917,365.200 307.600 C 365.640 307.283,366.000 306.827,366.000 306.587 C 366.000 306.347,366.315 305.802,366.700 305.375 C 367.085 304.949,367.662 304.060,367.982 303.400 C 368.302 302.740,368.862 301.840,369.228 301.400 C 369.593 300.960,370.221 299.835,370.623 298.900 C 371.025 297.965,371.477 297.200,371.628 297.200 C 371.779 297.200,372.123 296.615,372.392 295.900 C 373.038 294.182,373.748 292.648,374.011 292.400 C 374.426 292.010,380.004 280.593,380.002 280.138 C 379.999 279.548,381.702 276.243,382.100 276.067 C 382.265 275.993,382.400 275.408,382.400 274.767 C 382.400 274.125,382.580 273.600,382.800 273.600 C 383.020 273.600,383.200 273.240,383.200 272.800 C 383.200 272.360,383.380 272.000,383.600 272.000 C 383.820 272.000,384.000 271.561,384.000 271.024 C 384.000 270.487,384.180 269.936,384.400 269.800 C 384.620 269.664,384.800 269.124,384.800 268.600 C 384.800 268.076,384.980 267.536,385.200 267.400 C 385.420 267.264,385.600 266.724,385.600 266.200 C 385.600 265.676,385.780 265.136,386.000 265.000 C 386.220 264.864,386.400 264.324,386.400 263.800 C 386.400 263.276,386.580 262.736,386.800 262.600 C 387.020 262.464,387.200 261.924,387.200 261.400 C 387.200 260.876,387.380 260.336,387.600 260.200 C 387.820 260.064,388.000 259.344,388.000 258.600 C 388.000 257.856,388.180 257.136,388.400 257.000 C 388.620 256.864,388.800 256.324,388.800 255.800 C 388.800 255.276,388.962 254.747,389.161 254.624 C 389.359 254.502,389.647 253.321,389.800 252.001 C 389.953 250.680,390.241 249.600,390.439 249.600 C 390.638 249.600,390.800 248.880,390.800 248.000 C 390.800 247.120,390.980 246.400,391.200 246.400 C 391.420 246.400,391.600 245.500,391.600 244.400 C 391.600 243.300,391.780 242.400,392.000 242.400 C 392.220 242.400,392.400 241.781,392.400 241.024 C 392.400 240.267,392.580 239.536,392.800 239.400 C 393.020 239.264,393.200 238.364,393.200 237.400 C 393.200 236.436,393.380 235.536,393.600 235.400 C 393.820 235.264,394.000 234.184,394.000 233.000 C 394.000 231.816,394.180 230.736,394.400 230.600 C 394.620 230.464,394.800 229.193,394.800 227.776 C 394.800 226.325,394.975 225.200,395.200 225.200 C 395.462 225.200,395.600 216.533,395.600 200.000 C 395.600 183.467,395.462 174.800,395.200 174.800 C 394.975 174.800,394.800 173.675,394.800 172.224 C 394.800 170.807,394.620 169.536,394.400 169.400 C 394.180 169.264,394.000 168.184,394.000 167.000 C 394.000 165.816,393.820 164.736,393.600 164.600 C 393.380 164.464,393.200 163.553,393.200 162.576 C 393.200 161.599,393.020 160.800,392.800 160.800 C 392.580 160.800,392.400 160.080,392.400 159.200 C 392.400 158.320,392.220 157.600,392.000 157.600 C 391.780 157.600,391.600 156.700,391.600 155.600 C 391.600 154.500,391.420 153.600,391.200 153.600 C 390.980 153.600,390.800 152.880,390.800 152.000 C 390.800 151.120,390.638 150.400,390.439 150.400 C 390.241 150.400,389.953 149.320,389.800 147.999 C 389.647 146.679,389.359 145.498,389.161 145.376 C 388.962 145.253,388.800 144.724,388.800 144.200 C 388.800 143.676,388.620 143.136,388.400 143.000 C 388.180 142.864,388.000 142.382,388.000 141.929 C 388.000 141.075,386.576 136.326,385.954 135.105 C 385.759 134.723,385.600 134.059,385.600 133.629 C 385.600 133.199,385.420 132.736,385.200 132.600 C 384.980 132.464,384.800 131.913,384.800 131.376 C 384.800 130.839,384.620 130.400,384.400 130.400 C 384.180 130.400,384.000 129.860,384.000 129.200 C 384.000 128.540,383.820 128.000,383.600 128.000 C 383.380 128.000,383.200 127.640,383.200 127.200 C 383.200 126.760,383.020 126.400,382.800 126.400 C 382.580 126.400,382.400 126.045,382.400 125.612 C 382.400 125.179,382.040 124.183,381.600 123.400 C 381.160 122.617,380.800 121.711,380.800 121.388 C 380.800 121.065,380.620 120.800,380.400 120.800 C 380.180 120.800,380.001 120.485,380.003 120.100 C 380.007 119.325,376.786 112.678,376.304 112.467 C 376.137 112.393,376.000 111.988,376.000 111.567 C 376.000 111.145,375.820 110.800,375.600 110.800 C 375.380 110.800,375.200 110.440,375.200 110.000 C 375.200 109.560,375.065 109.199,374.900 109.197 C 374.541 109.193,373.600 107.256,373.600 106.520 C 373.600 106.234,373.440 106.000,373.245 106.000 C 373.049 106.000,372.774 105.388,372.634 104.640 C 372.494 103.892,372.105 103.053,371.770 102.775 C 371.435 102.497,370.818 101.518,370.400 100.600 C 369.982 99.682,369.361 98.699,369.020 98.416 C 368.679 98.134,368.400 97.654,368.400 97.351 C 368.400 97.048,368.220 96.800,368.000 96.800 C 367.780 96.800,367.600 96.480,367.600 96.088 C 367.600 95.697,367.240 95.117,366.800 94.800 C 366.360 94.483,366.000 93.943,366.000 93.600 C 366.000 93.257,365.640 92.717,365.200 92.400 C 364.760 92.083,364.400 91.621,364.400 91.374 C 364.400 91.126,364.040 90.598,363.600 90.200 C 363.160 89.802,362.800 89.222,362.800 88.912 C 362.800 88.602,362.260 87.894,361.600 87.339 C 360.940 86.783,360.400 86.061,360.400 85.733 C 360.400 85.405,359.680 84.446,358.800 83.600 C 357.920 82.754,357.200 81.900,357.200 81.701 C 357.200 81.502,356.750 80.917,356.200 80.400 C 355.650 79.883,355.200 79.258,355.200 79.011 C 355.200 78.764,354.480 77.859,353.600 77.000 C 352.720 76.141,352.000 75.241,352.000 75.000 C 352.000 74.759,351.280 73.859,350.400 73.000 C 349.520 72.141,348.800 71.227,348.800 70.969 C 348.800 70.712,347.180 68.916,345.200 66.978 C 343.220 65.040,341.600 63.257,341.600 63.014 C 341.600 62.468,337.524 58.400,336.977 58.400 C 336.758 58.400,334.989 56.780,333.044 54.800 C 331.100 52.820,329.296 51.200,329.035 51.200 C 328.775 51.200,327.859 50.480,327.000 49.600 C 326.141 48.720,325.239 48.000,324.997 48.000 C 324.755 48.000,323.946 47.370,323.200 46.600 C 322.454 45.830,321.697 45.200,321.518 45.200 C 321.339 45.200,320.628 44.660,319.937 44.000 C 319.246 43.340,318.483 42.791,318.241 42.780 C 317.998 42.770,317.080 42.051,316.200 41.183 C 315.320 40.316,314.463 39.604,314.296 39.603 C 314.129 39.601,313.428 39.060,312.737 38.400 C 312.046 37.740,311.278 37.200,311.029 37.200 C 310.780 37.200,310.317 36.840,310.000 36.400 C 309.683 35.960,309.143 35.600,308.800 35.600 C 308.457 35.600,307.917 35.240,307.600 34.800 C 307.283 34.360,306.722 34.000,306.354 34.000 C 305.987 34.000,305.595 33.764,305.484 33.475 C 305.373 33.186,304.364 32.513,303.241 31.980 C 302.119 31.447,301.200 30.898,301.200 30.761 C 301.200 30.623,300.300 30.083,299.200 29.561 C 298.100 29.038,297.200 28.474,297.200 28.306 C 297.200 28.138,296.966 28.000,296.680 28.000 C 295.944 28.000,294.007 27.059,294.003 26.700 C 294.001 26.535,293.640 26.400,293.200 26.400 C 292.760 26.400,292.400 26.220,292.400 26.000 C 292.400 25.780,292.040 25.600,291.600 25.600 C 291.160 25.600,290.800 25.420,290.800 25.200 C 290.800 24.980,290.440 24.800,290.000 24.800 C 289.560 24.800,289.200 24.620,289.200 24.400 C 289.200 24.180,288.855 24.000,288.433 24.000 C 288.012 24.000,287.607 23.864,287.533 23.698 C 287.460 23.532,286.140 22.768,284.600 22.000 C 283.060 21.232,281.740 20.468,281.667 20.302 C 281.593 20.136,281.115 20.000,280.604 20.000 C 279.662 20.000,276.311 18.449,276.067 17.900 C 275.993 17.735,275.408 17.600,274.767 17.600 C 274.125 17.600,273.600 17.449,273.600 17.264 C 273.600 17.079,272.835 16.688,271.900 16.394 C 270.965 16.101,270.029 15.712,269.820 15.530 C 269.611 15.349,269.037 15.200,268.544 15.200 C 268.051 15.200,267.536 15.020,267.400 14.800 C 267.264 14.580,266.801 14.400,266.371 14.400 C 265.941 14.400,265.277 14.237,264.895 14.037 C 263.670 13.397,259.945 12.400,258.778 12.400 C 258.156 12.400,257.536 12.220,257.400 12.000 C 257.264 11.780,256.724 11.600,256.200 11.600 C 255.676 11.600,255.136 11.420,255.000 11.200 C 254.864 10.980,254.133 10.800,253.376 10.800 C 252.619 10.800,252.000 10.620,252.000 10.400 C 252.000 10.180,251.460 10.000,250.800 10.000 C 250.140 10.000,249.600 9.820,249.600 9.600 C 249.600 9.380,248.880 9.200,248.000 9.200 C 247.120 9.200,246.400 9.020,246.400 8.800 C 246.400 8.580,245.500 8.400,244.400 8.400 C 243.300 8.400,242.400 8.220,242.400 8.000 C 242.400 7.780,241.680 7.600,240.800 7.600 C 239.920 7.600,239.200 7.420,239.200 7.200 C 239.200 6.980,238.401 6.800,237.424 6.800 C 236.447 6.800,235.536 6.620,235.400 6.400 C 235.264 6.180,234.173 6.000,232.976 6.000 C 231.779 6.000,230.800 5.820,230.800 5.600 C 230.800 5.371,229.600 5.200,228.000 5.200 C 226.400 5.200,225.200 5.029,225.200 4.800 C 225.200 4.538,216.608 4.400,200.224 4.400 C 184.004 4.400,175.161 4.540,175.000 4.800 M215.400 9.200 C 215.537 9.421,217.337 9.600,219.424 9.600 C 221.675 9.600,223.200 9.762,223.200 10.000 C 223.200 10.228,224.392 10.400,225.976 10.400 C 227.503 10.400,228.864 10.580,229.000 10.800 C 229.136 11.020,230.126 11.200,231.200 11.200 C 232.274 11.200,233.264 11.380,233.400 11.600 C 233.536 11.820,234.436 12.000,235.400 12.000 C 236.364 12.000,237.264 12.180,237.400 12.400 C 237.536 12.620,238.436 12.800,239.400 12.800 C 240.364 12.800,241.264 12.980,241.400 13.200 C 241.536 13.420,242.267 13.600,243.024 13.600 C 243.781 13.600,244.400 13.780,244.400 14.000 C 244.400 14.220,245.019 14.400,245.776 14.400 C 246.533 14.400,247.264 14.580,247.400 14.800 C 247.536 15.020,248.256 15.200,249.000 15.200 C 249.744 15.200,250.464 15.380,250.600 15.600 C 250.736 15.820,251.467 16.000,252.224 16.000 C 252.981 16.000,253.600 16.180,253.600 16.400 C 253.600 16.620,254.129 16.800,254.776 16.800 C 255.423 16.800,256.064 16.980,256.200 17.200 C 256.336 17.420,256.887 17.600,257.424 17.600 C 257.961 17.600,258.400 17.780,258.400 18.000 C 258.400 18.220,258.940 18.400,259.600 18.400 C 260.260 18.400,260.800 18.580,260.800 18.800 C 260.800 19.020,261.115 19.203,261.500 19.206 C 262.318 19.213,265.061 20.127,265.459 20.526 C 265.610 20.677,266.108 20.801,266.567 20.801 C 267.025 20.802,267.955 21.141,268.633 21.555 C 269.312 21.969,270.616 22.434,271.531 22.588 C 272.447 22.743,273.297 23.034,273.422 23.235 C 273.546 23.436,274.087 23.600,274.624 23.600 C 275.161 23.600,275.600 23.780,275.600 24.000 C 275.600 24.220,275.960 24.400,276.400 24.400 C 276.840 24.400,277.200 24.580,277.200 24.800 C 277.200 25.020,277.515 25.199,277.900 25.198 C 278.676 25.195,288.522 30.009,288.733 30.494 C 288.807 30.662,289.124 30.800,289.439 30.800 C 290.181 30.800,291.618 31.613,292.443 32.500 C 292.801 32.885,293.388 33.200,293.747 33.200 C 294.106 33.200,294.400 33.380,294.400 33.600 C 294.400 33.820,294.760 34.000,295.200 34.000 C 295.640 34.000,296.000 34.180,296.000 34.400 C 296.000 34.620,296.341 34.800,296.757 34.800 C 297.174 34.800,297.617 35.068,297.743 35.395 C 297.869 35.723,298.878 36.387,299.986 36.870 C 301.094 37.354,302.000 37.906,302.000 38.096 C 302.000 38.286,302.540 38.630,303.200 38.860 C 303.860 39.090,304.400 39.441,304.400 39.639 C 304.400 39.838,304.760 40.000,305.200 40.000 C 305.640 40.000,306.000 40.150,306.000 40.332 C 306.000 40.515,306.495 40.919,307.100 41.230 C 307.705 41.540,308.491 42.111,308.847 42.497 C 309.203 42.884,309.772 43.200,310.111 43.200 C 310.451 43.200,311.183 43.740,311.739 44.400 C 312.294 45.060,312.990 45.600,313.286 45.600 C 313.582 45.600,314.083 45.960,314.400 46.400 C 314.717 46.840,315.207 47.200,315.489 47.200 C 315.771 47.200,316.653 47.920,317.448 48.800 C 318.243 49.680,319.102 50.400,319.357 50.400 C 319.613 50.400,320.537 51.114,321.411 51.987 C 322.285 52.860,323.210 53.580,323.467 53.587 C 323.723 53.594,325.070 54.770,326.461 56.200 C 327.851 57.630,329.171 58.801,329.394 58.801 C 329.900 58.803,341.200 70.137,341.200 70.643 C 341.200 70.846,342.370 72.149,343.800 73.539 C 345.230 74.930,346.400 76.278,346.400 76.536 C 346.400 76.794,347.016 77.571,347.768 78.261 C 348.521 78.952,349.405 80.031,349.733 80.659 C 350.060 81.286,350.885 82.329,351.564 82.975 C 352.244 83.621,352.800 84.366,352.800 84.630 C 352.800 84.894,353.338 85.535,353.996 86.055 C 354.654 86.575,355.194 87.275,355.196 87.612 C 355.198 87.948,355.560 88.483,356.000 88.800 C 356.440 89.117,356.800 89.579,356.800 89.826 C 356.800 90.074,357.160 90.602,357.600 91.000 C 358.040 91.398,358.400 92.016,358.400 92.374 C 358.400 92.731,358.760 93.283,359.200 93.600 C 359.640 93.917,360.000 94.457,360.000 94.800 C 360.000 95.143,360.360 95.683,360.800 96.000 C 361.240 96.317,361.600 96.897,361.600 97.288 C 361.600 97.680,361.768 98.000,361.973 98.000 C 362.178 98.000,362.471 98.405,362.623 98.900 C 362.776 99.395,363.373 100.520,363.950 101.400 C 364.528 102.280,365.360 103.695,365.800 104.544 C 366.240 105.393,366.825 106.177,367.100 106.287 C 367.375 106.396,367.600 106.826,367.600 107.243 C 367.600 107.659,367.780 108.000,368.000 108.000 C 368.220 108.000,368.400 108.345,368.400 108.767 C 368.400 109.188,368.535 109.593,368.700 109.667 C 369.120 109.853,370.800 113.163,370.800 113.804 C 370.800 114.095,370.935 114.393,371.100 114.467 C 371.595 114.687,374.000 119.654,374.000 120.456 C 374.000 120.865,374.180 121.200,374.400 121.200 C 374.620 121.200,374.800 121.560,374.800 122.000 C 374.800 122.440,374.980 122.800,375.200 122.800 C 375.420 122.800,375.600 123.160,375.600 123.600 C 375.600 124.040,375.780 124.400,376.000 124.400 C 376.220 124.400,376.400 124.940,376.400 125.600 C 376.400 126.260,376.535 126.801,376.700 126.803 C 377.147 126.808,378.000 128.826,378.000 129.880 C 378.000 130.386,378.150 130.800,378.333 130.800 C 378.639 130.800,379.342 133.039,379.872 135.700 C 379.992 136.305,380.230 136.800,380.400 136.800 C 380.570 136.800,380.826 137.385,380.969 138.100 C 381.594 141.224,381.710 141.600,382.045 141.600 C 382.240 141.600,382.400 142.039,382.400 142.576 C 382.400 143.113,382.580 143.664,382.800 143.800 C 383.020 143.936,383.200 144.476,383.200 145.000 C 383.200 145.524,383.380 146.064,383.600 146.200 C 383.820 146.336,384.000 147.056,384.000 147.800 C 384.000 148.544,384.180 149.264,384.400 149.400 C 384.620 149.536,384.800 150.076,384.800 150.600 C 384.800 151.124,384.980 151.664,385.200 151.800 C 385.420 151.936,385.600 152.656,385.600 153.400 C 385.600 154.144,385.780 154.864,386.000 155.000 C 386.220 155.136,386.400 155.867,386.400 156.624 C 386.400 157.381,386.580 158.000,386.800 158.000 C 387.020 158.000,387.200 158.799,387.200 159.776 C 387.200 160.753,387.380 161.664,387.600 161.800 C 387.820 161.936,388.000 162.836,388.000 163.800 C 388.000 164.764,388.180 165.664,388.400 165.800 C 388.620 165.936,388.800 167.027,388.800 168.224 C 388.800 169.421,388.980 170.400,389.200 170.400 C 389.429 170.400,389.600 171.600,389.600 173.200 C 389.600 174.800,389.771 176.000,390.000 176.000 C 390.235 176.000,390.400 177.392,390.400 179.376 C 390.400 181.233,390.580 182.864,390.800 183.000 C 391.039 183.148,391.200 185.737,391.200 189.424 C 391.200 193.275,391.351 195.600,391.600 195.600 C 391.840 195.600,392.000 197.192,392.000 199.576 C 392.000 201.796,391.823 203.662,391.600 203.800 C 391.361 203.948,391.200 206.596,391.200 210.400 C 391.200 214.204,391.039 216.852,390.800 217.000 C 390.580 217.136,390.400 218.767,390.400 220.624 C 390.400 222.608,390.235 224.000,390.000 224.000 C 389.771 224.000,389.600 225.200,389.600 226.800 C 389.600 228.400,389.429 229.600,389.200 229.600 C 388.980 229.600,388.800 230.579,388.800 231.776 C 388.800 232.973,388.620 234.064,388.400 234.200 C 388.180 234.336,388.000 235.236,388.000 236.200 C 388.000 237.164,387.820 238.064,387.600 238.200 C 387.380 238.336,387.200 239.056,387.200 239.800 C 387.200 240.544,387.020 241.264,386.800 241.400 C 386.580 241.536,386.400 242.267,386.400 243.024 C 386.400 243.781,386.220 244.400,386.000 244.400 C 385.780 244.400,385.600 245.120,385.600 246.000 C 385.600 246.880,385.420 247.600,385.200 247.600 C 384.980 247.600,384.800 248.219,384.800 248.976 C 384.800 249.733,384.620 250.464,384.400 250.600 C 384.180 250.736,384.000 251.276,384.000 251.800 C 384.000 252.324,383.820 252.864,383.600 253.000 C 383.380 253.136,383.200 253.856,383.200 254.600 C 383.200 255.344,383.020 256.064,382.800 256.200 C 382.580 256.336,382.400 256.876,382.400 257.400 C 382.400 257.924,382.220 258.464,382.000 258.600 C 381.780 258.736,381.600 259.276,381.600 259.800 C 381.600 260.324,381.420 260.864,381.200 261.000 C 380.980 261.136,380.800 261.676,380.800 262.200 C 380.800 262.724,380.620 263.264,380.400 263.400 C 380.180 263.536,380.000 264.072,380.000 264.590 C 380.000 265.109,379.808 265.597,379.574 265.675 C 379.340 265.753,379.046 266.578,378.922 267.509 C 378.797 268.439,378.538 269.200,378.347 269.200 C 378.156 269.200,378.000 269.740,378.000 270.400 C 378.000 271.060,377.820 271.600,377.600 271.600 C 377.380 271.600,377.200 271.960,377.200 272.400 C 377.200 272.840,377.020 273.200,376.800 273.200 C 376.580 273.200,376.400 273.560,376.400 274.000 C 376.400 274.440,376.220 274.800,376.000 274.800 C 375.780 274.800,375.600 275.233,375.600 275.762 C 375.600 276.730,374.059 280.085,373.500 280.333 C 373.335 280.407,373.200 280.786,373.200 281.177 C 373.200 281.955,370.783 286.919,370.300 287.133 C 370.135 287.207,370.000 287.494,370.000 287.772 C 370.000 288.508,368.879 290.636,368.192 291.207 C 367.866 291.477,367.600 291.946,367.600 292.249 C 367.600 292.552,367.420 292.800,367.200 292.800 C 366.980 292.800,366.800 293.160,366.800 293.600 C 366.800 294.040,366.620 294.400,366.400 294.400 C 366.180 294.400,366.000 294.720,366.000 295.111 C 366.000 295.502,365.640 296.130,365.200 296.507 C 364.760 296.884,364.400 297.464,364.400 297.796 C 364.400 298.128,364.220 298.400,364.000 298.400 C 363.780 298.400,363.600 298.766,363.600 299.213 C 363.600 299.659,363.330 300.129,363.000 300.255 C 362.670 300.382,362.400 300.787,362.400 301.154 C 362.400 301.522,362.040 302.083,361.600 302.400 C 361.160 302.717,360.800 303.297,360.800 303.688 C 360.800 304.080,360.620 304.400,360.400 304.400 C 360.180 304.400,360.000 304.688,360.000 305.040 C 360.000 305.391,359.460 306.183,358.800 306.800 C 358.140 307.417,357.600 308.169,357.600 308.472 C 357.600 308.775,357.240 309.283,356.800 309.600 C 356.360 309.917,356.000 310.457,356.000 310.800 C 356.000 311.143,355.640 311.683,355.200 312.000 C 354.760 312.317,354.400 312.818,354.400 313.114 C 354.400 313.410,353.860 314.106,353.200 314.661 C 352.540 315.217,352.000 315.889,352.000 316.154 C 352.000 316.420,351.280 317.341,350.400 318.200 C 349.520 319.059,348.800 319.990,348.800 320.268 C 348.800 320.546,348.170 321.403,347.400 322.173 C 346.630 322.943,346.000 323.763,346.000 323.995 C 346.000 324.227,344.740 325.682,343.200 327.228 C 341.660 328.774,340.400 330.185,340.400 330.363 C 340.400 330.791,330.028 341.200,329.601 341.200 C 329.419 341.200,328.089 342.370,326.645 343.800 C 325.201 345.230,323.854 346.400,323.652 346.400 C 323.450 346.400,322.321 347.297,321.142 348.393 C 319.964 349.489,318.809 350.389,318.575 350.393 C 318.341 350.397,317.632 350.940,317.000 351.600 C 316.368 352.260,315.634 352.800,315.370 352.800 C 315.106 352.800,314.465 353.338,313.945 353.996 C 313.425 354.654,312.725 355.194,312.388 355.196 C 312.052 355.198,311.517 355.560,311.200 356.000 C 310.883 356.440,310.375 356.800,310.072 356.800 C 309.769 356.800,309.017 357.340,308.400 358.000 C 307.783 358.660,307.031 359.200,306.728 359.200 C 306.425 359.200,305.917 359.560,305.600 360.000 C 305.283 360.440,304.703 360.800,304.312 360.800 C 303.920 360.800,303.600 360.980,303.600 361.200 C 303.600 361.420,303.240 361.600,302.800 361.600 C 302.360 361.600,301.999 361.735,301.997 361.900 C 301.994 362.302,299.681 363.600,298.968 363.600 C 298.655 363.600,298.400 363.762,298.400 363.960 C 298.400 364.418,295.745 366.000,294.977 366.000 C 294.660 366.000,294.400 366.180,294.400 366.400 C 294.400 366.620,294.106 366.800,293.747 366.800 C 293.388 366.800,292.803 367.115,292.447 367.500 C 291.690 368.319,288.562 370.000,287.796 370.000 C 287.505 370.000,287.207 370.135,287.133 370.300 C 286.940 370.734,283.627 372.400,282.957 372.400 C 282.432 372.400,280.864 373.136,280.400 373.600 C 279.922 374.078,278.361 374.800,277.805 374.800 C 277.472 374.800,277.200 374.980,277.200 375.200 C 277.200 375.420,276.660 375.600,276.000 375.600 C 275.340 375.600,274.800 375.780,274.800 376.000 C 274.800 376.220,274.440 376.400,274.000 376.400 C 273.560 376.400,273.200 376.580,273.200 376.800 C 273.200 377.020,272.660 377.200,272.000 377.200 C 271.340 377.200,270.800 377.380,270.800 377.600 C 270.800 377.820,270.440 378.000,270.000 378.000 C 269.560 378.000,269.200 378.156,269.200 378.347 C 269.200 378.538,268.439 378.797,267.509 378.922 C 266.578 379.046,265.753 379.340,265.675 379.574 C 265.597 379.808,265.109 380.000,264.590 380.000 C 264.072 380.000,263.536 380.180,263.400 380.400 C 263.264 380.620,262.724 380.800,262.200 380.800 C 261.676 380.800,261.136 380.980,261.000 381.200 C 260.864 381.420,260.324 381.600,259.800 381.600 C 259.276 381.600,258.736 381.780,258.600 382.000 C 258.464 382.220,257.924 382.400,257.400 382.400 C 256.876 382.400,256.336 382.580,256.200 382.800 C 256.064 383.020,255.524 383.200,255.000 383.200 C 254.476 383.200,253.936 383.380,253.800 383.600 C 253.664 383.820,252.944 384.000,252.200 384.000 C 251.456 384.000,250.736 384.180,250.600 384.400 C 250.464 384.620,249.924 384.800,249.400 384.800 C 248.876 384.800,248.336 384.980,248.200 385.200 C 248.064 385.420,247.333 385.600,246.576 385.600 C 245.819 385.600,245.200 385.780,245.200 386.000 C 245.200 386.220,244.480 386.400,243.600 386.400 C 242.720 386.400,242.000 386.580,242.000 386.800 C 242.000 387.020,241.201 387.200,240.224 387.200 C 239.247 387.200,238.336 387.380,238.200 387.600 C 238.064 387.820,237.164 388.000,236.200 388.000 C 235.236 388.000,234.336 388.180,234.200 388.400 C 234.064 388.620,232.973 388.800,231.776 388.800 C 230.579 388.800,229.600 388.980,229.600 389.200 C 229.600 389.429,228.400 389.600,226.800 389.600 C 225.200 389.600,224.000 389.771,224.000 390.000 C 224.000 390.238,222.475 390.400,220.224 390.400 C 218.137 390.400,216.337 390.579,216.200 390.800 C 216.049 391.045,212.870 391.200,208.000 391.200 C 203.130 391.200,199.951 391.355,199.800 391.600 C 199.664 391.820,198.123 392.000,196.376 392.000 C 194.525 392.000,193.200 391.833,193.200 391.600 C 193.200 391.359,191.541 391.200,189.024 391.200 C 186.671 391.200,184.739 391.025,184.600 390.800 C 184.463 390.579,182.663 390.400,180.576 390.400 C 178.325 390.400,176.800 390.238,176.800 390.000 C 176.800 389.767,175.467 389.600,173.600 389.600 C 171.733 389.600,170.400 389.433,170.400 389.200 C 170.400 388.980,169.421 388.800,168.224 388.800 C 167.027 388.800,165.936 388.620,165.800 388.400 C 165.664 388.180,164.764 388.000,163.800 388.000 C 162.836 388.000,161.936 387.820,161.800 387.600 C 161.664 387.380,160.753 387.200,159.776 387.200 C 158.799 387.200,158.000 387.020,158.000 386.800 C 158.000 386.580,157.381 386.400,156.624 386.400 C 155.867 386.400,155.136 386.220,155.000 386.000 C 154.864 385.780,154.144 385.600,153.400 385.600 C 152.656 385.600,151.936 385.420,151.800 385.200 C 151.664 384.980,151.124 384.800,150.600 384.800 C 150.076 384.800,149.536 384.620,149.400 384.400 C 149.264 384.180,148.544 384.000,147.800 384.000 C 147.056 384.000,146.336 383.820,146.200 383.600 C 146.064 383.380,145.524 383.200,145.000 383.200 C 144.476 383.200,143.936 383.020,143.800 382.800 C 143.664 382.580,143.113 382.400,142.576 382.400 C 142.039 382.400,141.600 382.240,141.600 382.045 C 141.600 381.850,141.060 381.580,140.400 381.445 C 139.740 381.310,138.660 381.090,138.000 380.955 C 137.340 380.820,136.800 380.570,136.800 380.400 C 136.800 380.230,136.305 379.992,135.700 379.872 C 133.039 379.342,130.800 378.639,130.800 378.333 C 130.800 378.150,130.386 378.000,129.880 378.000 C 128.826 378.000,126.808 377.147,126.803 376.700 C 126.801 376.535,126.260 376.400,125.600 376.400 C 124.940 376.400,124.400 376.220,124.400 376.000 C 124.400 375.780,124.040 375.600,123.600 375.600 C 123.160 375.600,122.800 375.420,122.800 375.200 C 122.800 374.980,122.485 374.801,122.100 374.803 C 121.325 374.807,114.678 371.586,114.467 371.104 C 114.393 370.937,114.095 370.800,113.804 370.800 C 113.163 370.800,109.853 369.120,109.667 368.700 C 109.593 368.535,109.254 368.400,108.914 368.400 C 108.573 368.400,108.003 368.085,107.647 367.700 C 107.291 367.315,106.100 366.552,105.000 366.004 C 103.900 365.457,102.280 364.534,101.400 363.955 C 100.520 363.375,99.395 362.776,98.900 362.623 C 98.405 362.471,98.000 362.178,98.000 361.973 C 98.000 361.768,97.680 361.600,97.288 361.600 C 96.897 361.600,96.317 361.240,96.000 360.800 C 95.683 360.360,95.143 360.000,94.800 360.000 C 94.457 360.000,93.917 359.640,93.600 359.200 C 93.283 358.760,92.731 358.400,92.374 358.400 C 92.016 358.400,91.398 358.040,91.000 357.600 C 90.602 357.160,90.106 356.800,89.898 356.800 C 89.691 356.800,89.017 356.260,88.400 355.600 C 87.783 354.940,87.070 354.400,86.814 354.400 C 86.558 354.400,85.894 353.860,85.339 353.200 C 84.783 352.540,84.103 352.000,83.826 352.000 C 83.550 352.000,82.982 351.622,82.563 351.159 C 82.144 350.697,81.288 350.052,80.659 349.727 C 80.031 349.402,78.868 348.431,78.075 347.568 C 77.282 346.706,76.410 346.000,76.138 346.000 C 75.867 346.000,74.429 344.740,72.944 343.200 C 71.459 341.660,70.074 340.400,69.867 340.400 C 69.357 340.400,58.001 329.115,57.998 328.605 C 57.996 328.382,57.006 327.239,55.798 326.064 C 54.589 324.890,53.594 323.720,53.587 323.464 C 53.580 323.209,52.860 322.285,51.987 321.411 C 51.114 320.537,50.400 319.625,50.400 319.386 C 50.400 319.146,49.860 318.432,49.200 317.800 C 48.540 317.168,48.000 316.486,48.000 316.286 C 48.000 316.085,47.460 315.417,46.800 314.800 C 46.140 314.183,45.600 313.470,45.600 313.214 C 45.600 312.958,45.060 312.294,44.400 311.739 C 43.740 311.183,43.200 310.451,43.200 310.111 C 43.200 309.772,42.884 309.203,42.497 308.847 C 42.111 308.491,41.540 307.705,41.230 307.100 C 40.919 306.495,40.515 306.000,40.332 306.000 C 40.150 306.000,40.000 305.640,40.000 305.200 C 40.000 304.760,39.832 304.400,39.627 304.400 C 39.422 304.400,39.129 303.995,38.977 303.500 C 38.824 303.005,38.227 301.880,37.650 301.000 C 37.072 300.120,36.331 298.860,36.003 298.200 C 35.674 297.540,35.089 296.709,34.703 296.353 C 34.316 295.997,34.000 295.412,34.000 295.053 C 34.000 294.694,33.820 294.400,33.600 294.400 C 33.380 294.400,33.200 294.040,33.200 293.600 C 33.200 293.160,33.020 292.800,32.800 292.800 C 32.580 292.800,32.400 292.558,32.400 292.262 C 32.400 291.966,32.040 291.398,31.600 291.000 C 31.160 290.602,30.800 289.959,30.800 289.571 C 30.800 289.184,30.663 288.807,30.495 288.733 C 30.011 288.522,25.994 280.276,25.997 279.500 C 25.999 279.115,25.820 278.800,25.600 278.800 C 25.380 278.800,25.200 278.440,25.200 278.000 C 25.200 277.560,25.020 277.200,24.800 277.200 C 24.580 277.200,24.400 276.840,24.400 276.400 C 24.400 275.960,24.220 275.600,24.000 275.600 C 23.780 275.600,23.600 275.161,23.600 274.624 C 23.600 274.087,23.436 273.546,23.235 273.422 C 23.034 273.297,22.743 272.447,22.588 271.531 C 22.434 270.616,21.969 269.312,21.555 268.633 C 21.141 267.955,20.802 267.025,20.801 266.567 C 20.801 266.108,20.677 265.610,20.526 265.459 C 20.127 265.061,19.213 262.318,19.206 261.500 C 19.203 261.115,19.020 260.800,18.800 260.800 C 18.580 260.800,18.400 260.260,18.400 259.600 C 18.400 258.940,18.220 258.400,18.000 258.400 C 17.780 258.400,17.600 257.961,17.600 257.424 C 17.600 256.887,17.420 256.336,17.200 256.200 C 16.980 256.064,16.800 255.423,16.800 254.776 C 16.800 254.129,16.620 253.600,16.400 253.600 C 16.180 253.600,16.000 252.981,16.000 252.224 C 16.000 251.467,15.820 250.736,15.600 250.600 C 15.380 250.464,15.200 249.924,15.200 249.400 C 15.200 248.876,15.020 248.336,14.800 248.200 C 14.580 248.064,14.400 247.153,14.400 246.176 C 14.400 245.199,14.220 244.400,14.000 244.400 C 13.780 244.400,13.600 243.781,13.600 243.024 C 13.600 242.267,13.420 241.536,13.200 241.400 C 12.980 241.264,12.800 240.443,12.800 239.576 C 12.800 238.709,12.620 238.000,12.400 238.000 C 12.180 238.000,12.000 237.021,12.000 235.824 C 12.000 234.627,11.820 233.536,11.600 233.400 C 11.380 233.264,11.200 232.274,11.200 231.200 C 11.200 230.126,11.020 229.136,10.800 229.000 C 10.580 228.864,10.400 227.503,10.400 225.976 C 10.400 224.392,10.228 223.200,10.000 223.200 C 9.762 223.200,9.600 221.675,9.600 219.424 C 9.600 217.337,9.421 215.537,9.200 215.400 C 8.971 215.258,8.800 213.196,8.800 210.576 C 8.800 207.792,8.643 206.000,8.400 206.000 C 8.151 206.000,8.000 203.733,8.000 200.000 C 8.000 196.267,8.151 194.000,8.400 194.000 C 8.643 194.000,8.800 192.200,8.800 189.400 C 8.800 186.600,8.957 184.800,9.200 184.800 C 9.440 184.800,9.600 183.200,9.600 180.800 C 9.600 178.400,9.760 176.800,10.000 176.800 C 10.231 176.800,10.400 175.541,10.400 173.824 C 10.400 172.187,10.580 170.736,10.800 170.600 C 11.020 170.464,11.200 169.384,11.200 168.200 C 11.200 167.016,11.380 165.936,11.600 165.800 C 11.820 165.664,12.000 164.764,12.000 163.800 C 12.000 162.836,12.180 161.936,12.400 161.800 C 12.620 161.664,12.800 160.753,12.800 159.776 C 12.800 158.799,12.980 158.000,13.200 158.000 C 13.420 158.000,13.600 157.280,13.600 156.400 C 13.600 155.520,13.780 154.800,14.000 154.800 C 14.220 154.800,14.400 154.181,14.400 153.424 C 14.400 152.667,14.580 151.936,14.800 151.800 C 15.020 151.664,15.200 150.933,15.200 150.176 C 15.200 149.419,15.380 148.800,15.600 148.800 C 15.820 148.800,16.000 148.271,16.000 147.624 C 16.000 146.977,16.180 146.336,16.400 146.200 C 16.620 146.064,16.800 145.333,16.800 144.576 C 16.800 143.819,16.980 143.200,17.200 143.200 C 17.420 143.200,17.600 142.660,17.600 142.000 C 17.600 141.340,17.780 140.800,18.000 140.800 C 18.220 140.800,18.400 140.348,18.400 139.795 C 18.400 139.242,18.557 138.477,18.750 138.095 C 20.251 135.116,20.800 133.846,20.800 133.357 C 20.800 133.045,20.956 132.477,21.146 132.095 C 21.733 130.917,22.481 128.660,22.701 127.400 C 22.816 126.740,23.021 126.110,23.155 126.000 C 23.567 125.663,25.200 122.354,25.197 121.862 C 25.194 121.254,29.301 113.039,29.695 112.867 C 29.863 112.793,30.000 112.514,30.000 112.246 C 30.000 111.537,30.949 109.607,31.300 109.603 C 31.465 109.601,31.600 109.280,31.600 108.888 C 31.600 108.497,31.960 107.917,32.400 107.600 C 32.840 107.283,33.200 106.703,33.200 106.312 C 33.200 105.920,33.380 105.600,33.600 105.600 C 33.820 105.600,34.000 105.259,34.000 104.843 C 34.000 104.426,34.261 103.985,34.581 103.863 C 34.900 103.740,35.530 102.832,35.980 101.844 C 36.430 100.857,36.953 99.953,37.143 99.835 C 37.332 99.718,38.153 98.258,38.966 96.590 C 39.779 94.922,40.705 93.458,41.022 93.336 C 41.340 93.214,41.600 92.862,41.600 92.554 C 41.600 92.245,42.140 91.428,42.800 90.737 C 43.460 90.046,44.000 89.278,44.000 89.029 C 44.000 88.780,44.360 88.317,44.800 88.000 C 45.240 87.683,45.600 87.227,45.600 86.987 C 45.600 86.746,46.140 86.032,46.800 85.400 C 47.460 84.768,48.000 84.102,48.000 83.922 C 48.000 83.741,48.540 83.028,49.200 82.337 C 49.860 81.646,50.400 80.875,50.400 80.622 C 50.400 80.369,51.120 79.459,52.000 78.600 C 52.880 77.741,53.600 76.844,53.600 76.607 C 53.600 76.371,54.770 75.017,56.200 73.600 C 57.630 72.183,58.800 70.840,58.800 70.616 C 58.800 70.078,70.869 58.000,71.407 58.000 C 71.636 58.000,72.983 56.830,74.400 55.400 C 75.817 53.970,77.171 52.800,77.407 52.800 C 77.644 52.800,78.541 52.080,79.400 51.200 C 80.259 50.320,81.241 49.598,81.581 49.596 C 81.922 49.594,82.625 49.054,83.145 48.396 C 83.665 47.738,84.306 47.200,84.570 47.200 C 84.834 47.200,85.568 46.660,86.200 46.000 C 86.832 45.340,87.586 44.800,87.875 44.800 C 88.164 44.800,88.400 44.650,88.400 44.468 C 88.400 44.285,88.895 43.880,89.500 43.568 C 90.105 43.255,91.050 42.550,91.600 42.000 C 92.150 41.450,93.770 40.392,95.200 39.650 C 96.630 38.907,98.084 38.052,98.431 37.750 C 98.779 37.447,99.246 37.200,99.470 37.200 C 99.693 37.200,100.170 36.875,100.529 36.478 C 100.889 36.081,101.817 35.507,102.591 35.203 C 103.366 34.899,104.000 34.504,104.000 34.325 C 104.000 34.146,104.320 34.000,104.712 34.000 C 105.103 34.000,105.683 33.640,106.000 33.200 C 106.317 32.760,106.897 32.400,107.288 32.400 C 107.680 32.400,108.000 32.220,108.000 32.000 C 108.000 31.780,108.360 31.600,108.800 31.600 C 109.240 31.600,109.601 31.465,109.603 31.300 C 109.607 30.949,111.537 30.000,112.246 30.000 C 112.514 30.000,112.793 29.863,112.867 29.695 C 113.039 29.301,121.254 25.194,121.862 25.197 C 122.354 25.200,125.663 23.567,126.000 23.155 C 126.110 23.021,126.740 22.816,127.400 22.701 C 128.660 22.481,130.917 21.733,132.095 21.146 C 132.477 20.956,133.141 20.800,133.571 20.800 C 134.001 20.800,134.464 20.620,134.600 20.400 C 134.736 20.180,135.242 19.996,135.724 19.991 C 136.206 19.986,137.050 19.630,137.600 19.200 C 138.150 18.770,139.095 18.414,139.700 18.409 C 140.305 18.404,140.800 18.220,140.800 18.000 C 140.800 17.780,141.419 17.600,142.176 17.600 C 142.933 17.600,143.664 17.420,143.800 17.200 C 143.936 16.980,144.476 16.800,145.000 16.800 C 145.524 16.800,146.064 16.620,146.200 16.400 C 146.336 16.180,146.977 16.000,147.624 16.000 C 148.271 16.000,148.800 15.820,148.800 15.600 C 148.800 15.380,149.419 15.200,150.176 15.200 C 150.933 15.200,151.664 15.020,151.800 14.800 C 151.936 14.580,152.667 14.400,153.424 14.400 C 154.181 14.400,154.800 14.220,154.800 14.000 C 154.800 13.780,155.520 13.600,156.400 13.600 C 157.280 13.600,158.000 13.420,158.000 13.200 C 158.000 12.980,158.799 12.800,159.776 12.800 C 160.753 12.800,161.664 12.620,161.800 12.400 C 161.936 12.180,162.836 12.000,163.800 12.000 C 164.764 12.000,165.664 11.820,165.800 11.600 C 165.936 11.380,167.016 11.200,168.200 11.200 C 169.384 11.200,170.464 11.020,170.600 10.800 C 170.736 10.580,172.007 10.400,173.424 10.400 C 174.875 10.400,176.000 10.225,176.000 10.000 C 176.000 9.763,177.467 9.600,179.600 9.600 C 181.733 9.600,183.200 9.437,183.200 9.200 C 183.200 8.940,188.792 8.800,199.176 8.800 C 209.396 8.800,215.242 8.944,215.400 9.200 M215.010 133.569 C 214.876 133.992,214.054 134.981,213.183 135.768 C 212.312 136.554,211.600 137.558,211.600 137.999 C 211.600 138.444,211.334 138.800,211.000 138.800 C 210.670 138.800,210.397 138.935,210.392 139.100 C 210.380 139.563,207.600 142.644,207.599 142.196 C 207.598 141.978,207.262 142.340,206.852 143.000 C 206.443 143.660,203.937 146.354,201.283 148.986 C 198.630 151.618,196.563 153.941,196.691 154.148 C 196.819 154.354,196.742 154.412,196.521 154.275 C 196.299 154.138,195.310 154.875,194.321 155.913 C 192.461 157.867,189.200 160.805,189.200 160.527 C 189.200 160.440,188.430 161.161,187.489 162.129 C 186.549 163.097,185.365 164.021,184.859 164.181 C 184.354 164.342,184.030 164.564,184.141 164.674 C 184.251 164.785,183.410 165.663,182.271 166.626 C 181.132 167.588,179.821 168.741,179.358 169.188 C 178.895 169.635,178.292 170.000,178.018 170.000 C 177.745 170.000,177.017 170.540,176.400 171.200 C 175.783 171.860,175.118 172.400,174.921 172.400 C 174.724 172.400,173.859 173.120,173.000 174.000 C 172.141 174.880,171.288 175.600,171.105 175.600 C 170.923 175.600,170.245 176.140,169.600 176.800 C 168.955 177.460,168.233 178.000,167.995 178.000 C 167.758 178.000,167.157 178.405,166.660 178.900 C 166.162 179.395,165.091 180.156,164.278 180.591 C 163.465 181.026,162.800 181.521,162.800 181.691 C 162.800 181.861,162.556 182.000,162.258 182.000 C 161.961 182.000,161.196 182.483,160.558 183.074 C 159.921 183.664,159.339 184.096,159.264 184.032 C 159.190 183.969,158.693 184.296,158.161 184.759 C 157.629 185.222,157.015 185.600,156.797 185.600 C 156.579 185.600,156.400 185.789,156.400 186.020 C 156.400 186.252,155.801 186.691,155.068 186.997 C 154.336 187.303,153.504 187.834,153.219 188.177 C 152.935 188.520,152.536 188.800,152.334 188.800 C 151.967 188.800,151.402 189.204,150.005 190.467 C 149.599 190.833,149.147 191.014,149.001 190.867 C 148.854 190.721,148.524 190.871,148.267 191.201 C 148.010 191.530,147.305 192.055,146.700 192.368 C 146.095 192.680,145.600 193.085,145.600 193.268 C 145.600 193.450,145.330 193.600,145.000 193.600 C 144.670 193.600,144.400 193.750,144.400 193.933 C 144.400 194.117,144.175 194.268,143.900 194.271 C 143.625 194.273,141.985 195.201,140.255 196.333 C 138.525 197.465,136.983 198.313,136.828 198.217 C 136.673 198.121,136.293 198.393,135.985 198.821 C 135.676 199.250,135.186 199.600,134.895 199.600 C 134.430 199.600,132.138 201.012,131.600 201.630 C 131.490 201.756,130.590 202.296,129.600 202.830 C 128.610 203.363,127.740 203.935,127.667 204.100 C 127.593 204.265,127.233 204.406,126.867 204.413 C 126.136 204.427,124.706 205.373,124.989 205.656 C 125.086 205.753,124.785 205.861,124.319 205.896 C 123.853 205.931,123.366 206.113,123.236 206.301 C 122.832 206.885,119.840 208.583,120.177 208.036 C 120.603 207.348,118.990 208.192,117.850 209.254 C 117.409 209.664,116.813 210.000,116.525 210.000 C 116.236 210.000,116.000 210.191,116.000 210.424 C 116.000 210.657,115.835 210.745,115.632 210.620 C 115.430 210.495,114.993 210.664,114.661 210.996 C 114.329 211.328,113.864 211.600,113.629 211.600 C 113.393 211.600,113.200 211.791,113.200 212.024 C 113.200 212.257,113.060 212.361,112.889 212.255 C 112.718 212.149,111.601 212.679,110.408 213.431 C 109.214 214.184,107.924 214.800,107.541 214.800 C 107.158 214.800,106.610 215.136,106.323 215.546 C 106.035 215.957,105.170 216.427,104.400 216.592 C 103.630 216.757,102.820 217.033,102.600 217.204 C 101.486 218.072,96.777 220.375,95.309 220.771 C 94.389 221.018,93.371 221.486,93.047 221.811 C 92.722 222.135,92.286 222.400,92.078 222.400 C 91.869 222.400,91.470 222.674,91.192 223.010 C 90.914 223.345,90.601 223.534,90.497 223.430 C 90.393 223.326,89.313 223.772,88.098 224.421 C 86.882 225.069,85.698 225.600,85.468 225.600 C 85.237 225.600,83.957 226.121,82.624 226.757 C 81.291 227.393,79.441 228.140,78.513 228.417 C 77.586 228.693,76.908 229.051,77.007 229.211 C 77.106 229.371,76.672 229.606,76.042 229.732 C 75.412 229.858,74.650 230.199,74.348 230.490 C 74.047 230.781,73.530 231.002,73.200 230.981 C 72.517 230.937,68.744 232.799,68.322 233.388 C 68.169 233.602,67.920 233.653,67.769 233.502 C 67.618 233.352,67.113 233.440,66.647 233.700 C 66.181 233.959,65.710 234.202,65.600 234.240 C 65.490 234.277,64.995 234.439,64.500 234.600 C 64.005 234.762,63.600 235.033,63.600 235.204 C 63.600 236.433,56.765 237.234,43.487 237.558 C 41.892 237.597,37.937 238.806,37.291 239.452 C 36.990 239.753,36.395 240.000,35.969 240.000 C 35.543 240.000,34.803 240.450,34.325 241.000 C 33.847 241.550,33.134 242.000,32.740 242.000 C 32.269 242.000,32.104 242.205,32.255 242.600 C 32.382 242.930,32.293 243.200,32.057 243.200 C 30.630 243.200,28.238 246.998,29.257 247.644 C 29.558 247.834,105.938 247.990,200.473 247.994 L 371.145 248.000 371.007 247.100 C 370.723 245.263,370.313 244.576,368.916 243.600 C 368.128 243.050,366.835 241.964,366.042 241.186 C 365.249 240.408,364.175 239.743,363.655 239.707 C 363.136 239.672,362.416 239.389,362.055 239.079 C 361.666 238.744,360.862 238.583,360.072 238.683 C 359.341 238.775,358.518 238.664,358.243 238.435 C 357.899 238.150,321.662 238.007,242.871 237.978 C 179.692 237.955,128.000 237.876,128.000 237.804 C 128.000 237.433,131.597 236.000,132.526 236.000 C 133.117 236.000,133.600 235.837,133.600 235.637 C 133.600 235.438,133.972 235.372,134.426 235.491 C 134.881 235.610,135.646 235.517,136.126 235.284 C 136.607 235.051,137.540 234.753,138.200 234.623 C 138.860 234.492,139.580 234.327,139.800 234.255 C 140.020 234.184,140.740 233.992,141.400 233.829 C 142.060 233.666,142.870 233.426,143.200 233.295 C 143.530 233.164,144.070 233.022,144.400 232.980 C 144.730 232.938,145.990 232.447,147.200 231.889 C 148.410 231.330,149.882 230.767,150.472 230.636 C 151.062 230.506,151.814 230.129,152.143 229.799 C 152.473 229.470,153.306 229.200,153.995 229.200 C 154.684 229.200,155.171 229.065,155.079 228.900 C 154.986 228.735,155.704 228.197,156.675 227.705 C 157.646 227.213,158.328 226.992,158.191 227.215 C 158.053 227.438,158.629 227.226,159.470 226.744 C 160.312 226.263,161.508 225.609,162.129 225.291 C 162.751 224.972,163.351 224.473,163.463 224.181 C 163.575 223.889,163.921 223.748,164.233 223.868 C 164.545 223.988,164.800 223.882,164.800 223.633 C 164.800 223.384,165.255 223.007,165.810 222.796 C 166.366 222.585,166.925 222.139,167.053 221.806 C 167.181 221.473,167.542 221.200,167.855 221.200 C 168.169 221.200,168.529 220.930,168.655 220.600 C 168.782 220.270,169.091 219.995,169.343 219.989 C 170.030 219.971,174.113 215.949,174.800 214.613 C 175.130 213.971,176.163 212.740,177.095 211.877 C 178.027 211.014,178.712 210.181,178.616 210.027 C 178.521 209.872,178.793 209.493,179.221 209.185 C 179.650 208.876,180.000 208.427,180.000 208.187 C 180.000 207.947,180.324 207.402,180.720 206.975 C 181.116 206.549,181.573 205.930,181.736 205.600 C 182.296 204.463,183.002 203.398,183.800 202.487 C 184.240 201.985,184.515 201.535,184.411 201.487 C 184.252 201.414,187.464 196.894,188.802 195.308 C 189.030 195.037,189.213 194.722,189.208 194.608 C 189.173 193.741,189.250 193.583,189.600 193.800 C 189.820 193.936,190.000 193.851,190.000 193.610 C 190.000 193.075,192.278 190.800,192.814 190.800 C 193.026 190.800,193.200 190.650,193.200 190.468 C 193.200 190.285,193.695 189.880,194.300 189.568 C 194.905 189.255,195.749 188.685,196.175 188.300 C 196.602 187.915,197.144 187.600,197.380 187.600 C 197.615 187.600,198.298 187.146,198.896 186.591 C 199.494 186.037,200.077 185.587,200.192 185.591 C 200.306 185.596,200.552 185.600,200.739 185.600 C 200.925 185.600,201.493 185.240,202.000 184.800 C 202.507 184.360,203.165 184.000,203.461 184.000 C 203.758 184.000,204.000 183.809,204.000 183.576 C 204.000 183.343,204.168 183.257,204.374 183.384 C 204.786 183.638,207.059 182.848,210.330 181.312 C 212.083 180.489,214.475 179.681,217.000 179.060 C 217.220 179.006,217.807 178.738,218.305 178.464 C 218.802 178.191,219.432 178.003,219.705 178.047 C 220.232 178.131,221.356 177.778,222.495 177.171 C 222.877 176.967,223.464 176.800,223.800 176.800 C 224.136 176.800,224.768 176.620,225.205 176.400 C 225.642 176.180,226.358 175.820,226.795 175.600 C 227.232 175.380,227.952 175.200,228.395 175.200 C 228.838 175.200,229.200 175.001,229.200 174.757 C 229.200 174.514,229.448 174.410,229.751 174.526 C 230.054 174.642,230.504 174.536,230.751 174.289 C 230.998 174.042,231.200 173.971,231.200 174.130 C 231.200 174.290,231.738 174.142,232.396 173.802 C 233.054 173.462,233.729 173.165,233.896 173.141 C 234.452 173.063,235.397 172.662,235.600 172.418 C 235.710 172.286,236.610 171.825,237.600 171.394 C 243.102 168.999,245.535 163.935,243.492 159.133 C 243.149 158.326,242.986 157.547,243.131 157.403 C 243.275 157.258,243.080 156.965,242.698 156.751 C 242.315 156.537,241.637 155.560,241.191 154.581 C 240.745 153.601,240.201 152.800,239.981 152.800 C 239.762 152.800,239.362 152.305,239.092 151.700 C 238.519 150.415,234.301 146.000,233.647 146.000 C 233.401 146.000,233.200 145.839,233.200 145.642 C 233.200 145.039,230.924 142.809,230.619 143.114 C 230.462 143.271,230.393 143.156,230.467 142.857 C 230.540 142.558,229.912 141.950,229.066 141.500 C 228.222 141.052,227.437 140.441,227.323 140.143 C 227.208 139.844,226.852 139.600,226.531 139.600 C 226.211 139.600,225.494 139.060,224.939 138.400 C 224.383 137.740,223.784 137.200,223.607 137.200 C 223.430 137.200,222.707 136.660,222.000 136.000 C 221.293 135.340,220.447 134.800,220.119 134.800 C 219.792 134.800,219.025 134.445,218.417 134.012 C 217.808 133.578,217.195 133.338,217.055 133.478 C 216.915 133.619,216.800 133.523,216.800 133.267 C 216.800 132.487,215.271 132.746,215.010 133.569 M228.769 138.100 C 228.365 139.423,229.542 141.130,230.465 140.560 C 230.649 140.446,230.800 140.567,230.800 140.828 C 230.800 141.217,232.175 142.645,235.702 145.920 C 237.186 147.297,240.400 150.852,240.400 151.116 C 240.400 151.299,240.715 151.807,241.100 152.245 C 241.790 153.029,242.166 153.630,243.200 155.600 C 244.264 157.626,244.400 158.009,244.400 158.971 C 244.400 159.511,244.580 160.064,244.800 160.200 C 245.020 160.336,245.200 161.772,245.200 163.391 L 245.200 166.336 243.200 168.524 C 242.100 169.727,241.200 170.912,241.200 171.156 C 241.200 171.400,240.857 171.600,240.438 171.600 C 239.771 171.600,236.547 173.053,236.000 173.600 C 235.410 174.190,233.887 174.800,233.005 174.800 C 232.452 174.800,232.000 174.960,232.000 175.155 C 232.000 175.350,231.505 175.601,230.900 175.712 C 229.430 175.984,225.012 177.518,222.892 178.494 C 221.952 178.926,220.917 179.177,220.592 179.052 C 220.266 178.927,220.000 178.975,220.000 179.158 C 220.000 179.482,215.297 180.662,214.700 180.488 C 214.535 180.439,214.400 180.551,214.400 180.736 C 214.400 180.921,213.635 181.313,212.700 181.607 C 211.765 181.901,210.716 182.380,210.369 182.671 C 210.021 182.962,209.301 183.204,208.769 183.209 C 208.236 183.214,207.350 183.570,206.800 184.000 C 206.250 184.430,205.485 184.786,205.100 184.791 C 204.715 184.796,204.400 184.991,204.400 185.224 C 204.400 185.457,204.224 185.538,204.008 185.405 C 203.502 185.092,202.533 185.606,198.457 188.350 C 196.618 189.587,194.830 190.780,194.483 191.000 C 193.689 191.504,190.766 194.471,190.092 195.457 C 189.813 195.866,189.093 196.986,188.492 197.946 C 187.892 198.906,186.840 200.279,186.156 200.996 C 185.471 201.713,184.662 202.862,184.358 203.550 C 184.054 204.237,183.669 204.800,183.502 204.800 C 183.336 204.800,183.200 205.070,183.200 205.400 C 183.200 205.730,183.020 206.000,182.800 206.000 C 182.580 206.000,182.400 206.360,182.400 206.800 C 182.400 207.244,182.133 207.600,181.800 207.600 C 181.470 207.600,181.200 207.825,181.200 208.100 C 181.199 208.375,180.749 209.123,180.200 209.762 C 179.650 210.401,179.200 211.072,179.200 211.253 C 179.200 211.433,178.570 212.154,177.800 212.855 C 177.030 213.555,176.400 214.384,176.400 214.696 C 176.400 215.275,173.293 218.400,172.718 218.400 C 172.543 218.400,172.400 218.601,172.400 218.847 C 172.400 219.286,170.029 221.581,169.562 221.594 C 169.431 221.597,168.813 222.040,168.187 222.577 C 167.562 223.115,166.936 223.484,166.798 223.399 C 166.659 223.313,166.293 223.593,165.985 224.021 C 165.676 224.450,165.122 224.800,164.754 224.800 C 164.387 224.800,163.990 225.050,163.872 225.356 C 163.755 225.662,162.610 226.398,161.329 226.991 C 160.048 227.584,158.730 228.235,158.400 228.437 C 158.070 228.639,157.530 228.913,157.200 229.046 C 156.870 229.178,155.837 229.627,154.904 230.043 C 153.972 230.459,153.020 230.800,152.790 230.800 C 152.560 230.800,151.928 231.091,151.386 231.446 C 150.844 231.801,150.400 231.990,150.400 231.866 C 150.400 231.742,149.725 231.924,148.900 232.269 C 148.075 232.615,146.860 232.984,146.200 233.088 C 145.540 233.193,144.868 233.486,144.706 233.739 C 144.544 233.993,144.404 234.020,144.393 233.800 C 144.383 233.580,144.128 233.726,143.826 234.124 C 143.459 234.607,143.186 234.700,143.003 234.405 C 142.811 234.093,142.578 234.086,142.223 234.381 C 141.945 234.611,141.106 234.850,140.359 234.910 C 139.210 235.004,139.000 235.173,139.000 236.010 L 139.000 237.000 246.000 237.116 C 304.850 237.180,353.773 237.123,354.718 236.989 C 356.684 236.710,356.764 235.756,354.955 234.153 C 354.430 233.688,354.000 233.137,354.000 232.928 C 354.000 232.720,353.460 232.032,352.800 231.400 C 352.140 230.768,351.599 230.059,351.597 229.825 C 351.596 229.591,350.426 228.254,348.997 226.853 C 347.569 225.452,346.400 224.138,346.400 223.933 C 346.400 223.729,345.140 222.331,343.600 220.827 C 342.060 219.323,340.800 217.917,340.800 217.701 C 340.800 217.140,332.114 208.419,331.834 208.700 C 331.705 208.828,331.600 208.760,331.600 208.547 C 331.600 207.931,327.427 203.724,326.968 203.877 C 326.740 203.953,325.162 202.492,323.463 200.631 C 321.763 198.769,320.016 197.132,319.580 196.994 C 319.144 196.855,317.935 195.896,316.894 194.861 C 315.852 193.827,314.163 192.355,313.141 191.590 C 312.118 190.826,311.364 190.065,311.464 189.900 C 311.565 189.735,311.363 189.600,311.017 189.600 C 310.670 189.600,309.774 188.970,309.026 188.200 C 308.279 187.430,307.491 186.800,307.275 186.800 C 307.060 186.800,306.460 186.353,305.942 185.807 C 305.424 185.261,304.865 184.811,304.700 184.807 C 304.535 184.803,304.063 184.485,303.652 184.100 C 301.583 182.163,300.449 181.200,300.239 181.200 C 300.112 181.200,299.491 180.660,298.860 180.000 C 298.229 179.340,297.418 178.800,297.057 178.800 C 296.696 178.800,296.400 178.650,296.400 178.468 C 296.400 178.285,295.913 177.880,295.317 177.568 C 294.722 177.255,293.757 176.505,293.174 175.900 C 292.591 175.295,291.923 174.800,291.690 174.800 C 291.457 174.800,291.207 174.634,291.133 174.430 C 291.060 174.227,290.743 174.002,290.428 173.930 C 289.798 173.787,289.415 173.518,286.862 171.425 C 285.906 170.641,284.861 170.000,284.539 170.000 C 284.216 170.000,284.064 169.820,284.200 169.600 C 284.336 169.380,284.167 169.200,283.824 169.200 C 283.481 169.200,283.200 169.020,283.200 168.800 C 283.200 168.580,283.012 168.400,282.783 168.400 C 282.554 168.400,281.391 167.680,280.200 166.800 C 279.009 165.920,277.846 165.200,277.617 165.200 C 277.388 165.200,277.200 165.020,277.200 164.800 C 277.200 164.580,277.065 164.444,276.900 164.499 C 276.735 164.553,275.953 164.103,275.162 163.499 C 274.371 162.894,273.531 162.400,273.296 162.400 C 273.060 162.400,272.803 162.210,272.726 161.978 C 272.649 161.746,272.319 161.515,271.993 161.464 C 271.667 161.412,270.500 160.707,269.400 159.895 C 268.300 159.084,267.175 158.415,266.900 158.410 C 266.625 158.404,266.400 158.190,266.400 157.933 C 266.400 157.677,266.285 157.582,266.144 157.722 C 266.004 157.863,265.360 157.533,264.714 156.989 C 264.067 156.445,263.194 156.000,262.773 156.000 C 262.351 156.000,261.782 155.640,261.507 155.200 C 261.232 154.760,260.717 154.400,260.362 154.400 C 260.007 154.400,259.236 153.955,258.649 153.410 C 258.062 152.866,257.450 152.392,257.290 152.356 C 256.731 152.232,254.994 151.511,254.400 151.156 C 254.070 150.959,253.395 150.623,252.900 150.409 C 252.405 150.195,252.000 149.876,252.000 149.701 C 252.000 149.357,250.406 148.488,247.700 147.357 C 246.765 146.966,246.000 146.471,246.000 146.256 C 246.000 146.042,245.886 145.980,245.747 146.119 C 245.608 146.258,244.738 145.928,243.812 145.386 C 242.887 144.844,241.858 144.400,241.527 144.400 C 241.195 144.400,240.598 144.040,240.200 143.600 C 239.802 143.160,239.217 142.800,238.900 142.800 C 238.583 142.800,237.816 142.439,237.196 141.997 C 236.364 141.405,236.015 141.326,235.866 141.697 C 235.705 142.096,235.657 142.097,235.632 141.700 C 235.614 141.425,235.330 141.200,235.000 141.200 C 234.670 141.200,234.400 141.020,234.400 140.800 C 234.400 140.580,234.130 140.400,233.800 140.400 C 233.470 140.400,233.200 140.220,233.200 140.000 C 233.200 139.780,232.761 139.600,232.224 139.600 C 231.687 139.600,231.134 139.417,230.996 139.193 C 230.858 138.970,230.596 138.879,230.414 138.991 C 230.233 139.104,229.981 138.926,229.854 138.598 C 229.665 138.104,228.878 137.744,228.769 138.100 " stroke="none" fill="#d64937" fill-rule="evenodd"></path><path id="path20" d="M146.100 10.676 C 146.485 10.776,147.115 10.776,147.500 10.676 C 147.885 10.575,147.570 10.493,146.800 10.493 C 146.030 10.493,145.715 10.575,146.100 10.676 M252.500 10.676 C 252.885 10.776,253.515 10.776,253.900 10.676 C 254.285 10.575,253.970 10.493,253.200 10.493 C 252.430 10.493,252.115 10.575,252.500 10.676 M140.705 12.283 C 141.202 12.379,141.922 12.375,142.305 12.275 C 142.687 12.175,142.280 12.096,141.400 12.101 C 140.520 12.105,140.207 12.187,140.705 12.283 M258.100 12.276 C 258.485 12.376,259.115 12.376,259.500 12.276 C 259.885 12.175,259.570 12.093,258.800 12.093 C 258.030 12.093,257.715 12.175,258.100 12.276 M12.101 141.400 C 12.105 142.280,12.187 142.593,12.283 142.095 C 12.379 141.598,12.375 140.878,12.275 140.495 C 12.175 140.113,12.096 140.520,12.101 141.400 M10.493 146.800 C 10.493 147.570,10.575 147.885,10.676 147.500 C 10.776 147.115,10.776 146.485,10.676 146.100 C 10.575 145.715,10.493 146.030,10.493 146.800 M390.893 152.400 C 390.893 153.170,390.975 153.485,391.076 153.100 C 391.176 152.715,391.176 152.085,391.076 151.700 C 390.975 151.315,390.893 151.630,390.893 152.400 M244.493 163.200 C 244.493 163.970,244.575 164.285,244.676 163.900 C 244.776 163.515,244.776 162.885,244.676 162.500 C 244.575 162.115,244.493 162.430,244.493 163.200 M8.161 200.000 C 8.161 203.410,8.222 204.805,8.297 203.100 C 8.372 201.395,8.372 198.605,8.297 196.900 C 8.222 195.195,8.161 196.590,8.161 200.000 M390.893 247.600 C 390.893 248.370,390.975 248.685,391.076 248.300 C 391.176 247.915,391.176 247.285,391.076 246.900 C 390.975 246.515,390.893 246.830,390.893 247.600 M10.493 253.200 C 10.493 253.970,10.575 254.285,10.676 253.900 C 10.776 253.515,10.776 252.885,10.676 252.500 C 10.575 252.115,10.493 252.430,10.493 253.200 M12.093 258.800 C 12.093 259.570,12.175 259.885,12.276 259.500 C 12.376 259.115,12.376 258.485,12.276 258.100 C 12.175 257.715,12.093 258.030,12.093 258.800 M151.700 391.076 C 152.085 391.176,152.715 391.176,153.100 391.076 C 153.485 390.975,153.170 390.893,152.400 390.893 C 151.630 390.893,151.315 390.975,151.700 391.076 M246.900 391.076 C 247.285 391.176,247.915 391.176,248.300 391.076 C 248.685 390.975,248.370 390.893,247.600 390.893 C 246.830 390.893,246.515 390.975,246.900 391.076 " stroke="none" fill="#dc3e2c" fill-rule="evenodd"></path><path id="path21" d="M244.093 163.200 C 244.093 163.970,244.175 164.285,244.276 163.900 C 244.376 163.515,244.376 162.885,244.276 162.500 C 244.175 162.115,244.093 162.430,244.093 163.200 M193.532 237.900 C 223.305 237.957,271.905 237.957,301.532 237.900 C 331.160 237.843,306.800 237.797,247.400 237.797 C 188.000 237.797,163.760 237.843,193.532 237.900 " stroke="none" fill="#e14435" fill-rule="evenodd"></path><path id="path22" d="" stroke="none" fill="#e73828" fill-rule="evenodd"></path><path id="path23" d="" stroke="none" fill="#e14b0f" fill-rule="evenodd"></path><path id="path24" d="" stroke="none" fill="#e74828" fill-rule="evenodd"></path><path id="path25" d="M192.800 191.533 C 192.800 191.790,192.665 191.955,192.500 191.900 C 192.335 191.845,192.170 191.960,192.134 192.155 C 192.098 192.351,191.828 192.663,191.534 192.849 C 191.236 193.038,191.194 193.190,191.438 193.194 C 192.041 193.202,193.390 191.657,193.064 191.331 C 192.919 191.186,192.800 191.277,192.800 191.533 " stroke="none" fill="#ff1c1c" fill-rule="evenodd"></path><path id="path26" d="M214.155 133.412 C 213.790 133.969,213.564 134.498,213.653 134.587 C 213.742 134.676,214.118 134.220,214.489 133.574 C 215.314 132.136,215.069 132.017,214.155 133.412 M227.400 139.600 C 227.798 140.040,228.304 140.400,228.523 140.400 C 228.743 140.400,228.507 140.040,228.000 139.600 C 227.493 139.160,226.987 138.800,226.877 138.800 C 226.766 138.800,227.002 139.160,227.400 139.600 M203.381 146.100 L 201.800 147.800 203.500 146.219 C 205.081 144.748,205.384 144.400,205.081 144.400 C 205.016 144.400,204.251 145.165,203.381 146.100 M239.200 150.708 C 239.200 150.894,239.440 151.375,239.733 151.776 C 240.121 152.306,240.267 152.350,240.267 151.935 C 240.267 151.622,240.027 151.141,239.733 150.867 C 239.440 150.593,239.200 150.521,239.200 150.708 M157.902 227.704 C 157.079 228.163,156.465 228.598,156.538 228.671 C 156.733 228.866,159.145 227.612,159.416 227.175 C 159.708 226.701,159.698 226.705,157.902 227.704 M59.200 236.018 C 58.762 236.315,58.924 236.352,59.800 236.156 C 61.271 235.827,61.590 235.598,60.567 235.606 C 60.145 235.609,59.530 235.795,59.200 236.018 M33.200 240.860 C 32.430 241.535,32.162 241.905,32.604 241.681 C 33.335 241.311,35.147 239.578,34.762 239.616 C 34.673 239.625,33.970 240.185,33.200 240.860 M114.700 248.300 C 161.615 248.356,238.385 248.356,285.300 248.300 C 332.215 248.244,293.830 248.198,200.000 248.198 C 106.170 248.198,67.785 248.244,114.700 248.300 " stroke="none" fill="#ff0000" fill-rule="evenodd"></path><path id="path27" d="" stroke="none" fill="#ff3300" fill-rule="evenodd"></path><path id="path28" d="" stroke="none" fill="#ff3333" fill-rule="evenodd"></path><path id="path29" d="M193.532 237.500 C 223.305 237.557,271.905 237.557,301.532 237.500 C 331.160 237.443,306.800 237.397,247.400 237.397 C 188.000 237.397,163.760 237.443,193.532 237.500 " stroke="none" fill="#ff3b14" fill-rule="evenodd"></path><path id="path30" d="" stroke="none" fill="#ff4617" fill-rule="evenodd"></path><path id="path31" d="" stroke="none" fill="#ff5500" fill-rule="evenodd"></path></g></svg>
