<?xml version="1.0" encoding="UTF-8" standalone="no"?>
<svg
   xmlns:dc="http://purl.org/dc/elements/1.1/"
   xmlns:cc="http://creativecommons.org/ns#"
   xmlns:rdf="http://www.w3.org/1999/02/22-rdf-syntax-ns#"
   xmlns:svg="http://www.w3.org/2000/svg"
   xmlns="http://www.w3.org/2000/svg"
   xmlns:sodipodi="http://sodipodi.sourceforge.net/DTD/sodipodi-0.dtd"
   xmlns:inkscape="http://www.inkscape.org/namespaces/inkscape"
   viewBox="0 0 64 64"
   id="svg2"
   version="1.1"
   inkscape:version="0.91 r13725"
   sodipodi:docname="manually.svg"
   width="64"
   height="64">
  <metadata
     id="metadata12">
    <rdf:RDF>
      <cc:Work
         rdf:about="">
        <dc:format>image/svg+xml</dc:format>
        <dc:type
           rdf:resource="http://purl.org/dc/dcmitype/StillImage" />
        <dc:title></dc:title>
      </cc:Work>
    </rdf:RDF>
  </metadata>
  <sodipodi:namedview
     pagecolor="#f9f9f9"
     bordercolor="#666666"
     borderopacity="1"
     objecttolerance="10"
     gridtolerance="10"
     guidetolerance="10"
     inkscape:pageopacity="0"
     inkscape:pageshadow="2"
     inkscape:window-width="1920"
     inkscape:window-height="1006"
     id="namedview10"
     showgrid="false"
     inkscape:zoom="9.8333333"
     inkscape:cx="12"
     inkscape:cy="12"
     inkscape:window-x="0"
     inkscape:window-y="0"
     inkscape:window-maximized="1"
     inkscape:current-layer="svg2" />
  <defs
     id="defs3051">
    <style
       type="text/css"
       id="current-color-scheme">
      .ColorScheme-Text {
        color:#4d4d4d;
      }
      </style>
  </defs>
  <a
     transform="matrix(3.4533898,0,0,3.4533898,-5.9872881,-5.9872881)"
     id="a6">
    <path
       style="color:#4d4d4d;fill:currentColor;fill-opacity:1;stroke:none"
       d="m 11,3 -8,4.6230469 0,0.375 L 3,9 l 1,0 0,1 0,8 -1,0 0,1 16,0 0,-1 -1,0 0,-8 0,-1 1,0 0,-1.0019531 0,-0.375 L 11,3 Z m 0,1.15625 6.650391,3.8417969 -13.3007816,0 L 11,4.15625 Z M 5,9 7,9 7,10 7,18 5,18 5,10 5,9 Z m 3,0 6,0 0,1 0,8 -1,0 0,-4 -4,0 0,4 -1,0 0,-8 0,-1 z m 7,0 2,0 0,1 0,8 -2,0 0,-8 0,-1 z"
       class="ColorScheme-Text"
       id="path8"
       inkscape:connector-curvature="0" />
  </a>
</svg>
