<?xml version="1.0" encoding="UTF-8" standalone="no"?>
<svg
   xmlns:dc="http://purl.org/dc/elements/1.1/"
   xmlns:cc="http://creativecommons.org/ns#"
   xmlns:rdf="http://www.w3.org/1999/02/22-rdf-syntax-ns#"
   xmlns:svg="http://www.w3.org/2000/svg"
   xmlns="http://www.w3.org/2000/svg"
   xmlns:sodipodi="http://sodipodi.sourceforge.net/DTD/sodipodi-0.dtd"
   xmlns:inkscape="http://www.inkscape.org/namespaces/inkscape"
   version="1.1"
   id="svg2"
   viewBox="0 0 64 64"
   inkscape:version="0.91 r13725"
   sodipodi:docname="paypal.svg"
   width="64"
   height="64">
  <sodipodi:namedview
     pagecolor="#f9f9f9"
     bordercolor="#666666"
     borderopacity="1"
     objecttolerance="10"
     gridtolerance="10"
     guidetolerance="10"
     inkscape:pageopacity="0"
     inkscape:pageshadow="2"
     inkscape:window-width="1920"
     inkscape:window-height="1006"
     id="namedview21"
     showgrid="false"
     inkscape:zoom="5.3636364"
     inkscape:cx="-21.085089"
     inkscape:cy="-0.85686041"
     inkscape:window-x="0"
     inkscape:window-y="0"
     inkscape:window-maximized="1"
     inkscape:current-layer="svg2" />
  <metadata
     id="metadata10">
    <rdf:RDF>
      <cc:Work
         rdf:about="">
        <dc:format>image/svg+xml</dc:format>
        <dc:type
           rdf:resource="http://purl.org/dc/dcmitype/StillImage" />
        <dc:title></dc:title>
      </cc:Work>
    </rdf:RDF>
  </metadata>
  <defs
     id="defs3051">
    <style
       id="current-color-scheme"
       type="text/css">
      .ColorScheme-Text {
        color:#4d4d4d;
      }
      </style>
  </defs>
  <path
     id="path6"
     class="ColorScheme-Text"
     d="m 29.888953,5.1598863 c -2.149763,0 -4.230512,0.2805463 -6.231678,0.7535664 -0.93268,0.220458 -1.840829,0.4915196 -2.732501,0.8059918 -0.360208,0.1270544 -0.721774,0.2448825 -1.074655,0.3866117 -0.0064,0.00257 -0.01308,0.00403 -0.01979,0.00671 -2.052514,0.8263031 -3.965178,1.9094225 -5.727114,3.1911958 -0.110245,0.08019 -0.218713,0.160638 -0.32765,0.242467 -0.806505,0.605704 -1.581225,1.248498 -2.313125,1.939617 -0.03828,0.03617 -0.07988,0.06844 -0.117962,0.104844 -1.5788263,1.508492 -2.9622161,3.209998 -4.1347935,5.065287 -0.051902,0.08223 -0.099678,0.166174 -0.1507073,0.249009 -0.5512355,0.893581 -1.0553029,1.818606 -1.5005804,2.778371 -0.013085,0.02852 -0.026169,0.0567 -0.039321,0.08518 C 4.5748569,22.822835 3.8836334,25.010556 3.4811626,27.308402 3.2141034,28.832987 3.0486811,30.396424 3.0486811,32 c 0,11.418724 7.0726919,21.100788 17.0830509,24.992236 0.0081,0.0034 0.01174,0.0097 0.0198,0.01308 0.02114,0.0081 0.04435,0.01141 0.06552,0.0198 1.112033,0.427918 2.254909,0.782637 3.433646,1.06155 0.01342,0.0032 0.02583,0.01006 0.03932,0.01308 1.990798,0.467703 4.061406,0.740365 6.198936,0.740365 2.324679,0 4.564282,-0.325001 6.710028,-0.878071 l 0,-3.479516 c -2.127586,0.632112 -4.371513,1.002573 -6.710028,1.002573 -2.843925,0 -5.554351,-0.530167 -8.073003,-1.448162 0.04566,-0.04268 0.117358,-0.06331 0.131046,-0.131047 0.0302,-0.133194 -0.03221,-0.193282 -0.03932,-0.406272 0.05033,-0.218747 0.288564,-0.242501 0.334193,-0.465247 -0.09327,-0.159698 -0.311581,-0.05542 -0.452142,-0.137622 -0.136549,-0.07951 -0.196369,-0.256793 -0.17691,-0.425933 0.233509,-0.09864 0.68448,0.235388 0.851861,-0.09173 0.08354,-0.154666 -0.0934,-0.531998 0.0198,-0.68804 0.07851,-0.105347 0.509227,-0.110111 0.674932,-0.137622 0.23787,-0.04127 0.514625,-0.08934 0.648725,-0.17691 0.146279,-0.09595 0.359755,-0.372742 0.334193,-0.648726 -0.01342,-0.132187 -0.102831,-0.178453 -0.203146,-0.294872 -0.08421,-0.09797 -0.116184,-0.221599 -0.17691,-0.314532 -0.105012,-0.157015 -0.268233,-0.129236 -0.314532,-0.35385 0.32141,-0.06307 0.812849,0.261892 1.277787,0.131046 0.220424,-0.06207 0.526771,-0.533524 0.629065,-0.740461 0.0034,-0.06509 0.03087,-0.162618 0.06552,-0.242467 0.04127,-0.0869 0.124539,-0.158189 0.137623,-0.203146 0.0034,-0.122123 0.01174,-0.218043 0.03932,-0.294872 0.08153,-0.22747 0.291316,-0.297188 0.425929,-0.465247 0.101992,-0.12682 0.152385,-0.279506 0.249009,-0.406272 0.105348,-0.137891 0.199221,-0.258336 0.26867,-0.380059 0.06609,-0.408876 -0.161477,-0.696914 -0.06552,-1.054995 0.107361,-0.402266 0.658794,-0.644176 1.048446,-0.825649 0.1342,-0.0624 0.270816,-0.164563 0.380059,-0.203146 0.269743,-0.09461 0.605231,-0.04046 0.851858,-0.131047 0.419713,-0.153324 0.467998,-0.60713 0.674935,-0.989467 0.09864,-0.180835 0.223008,-0.362556 0.242467,-0.491456 0.01677,-0.116083 -0.04147,-0.223377 -0.0198,-0.360402 0.02013,-0.134536 0.146581,-0.251157 0.183486,-0.39972 0.04865,-0.193584 0.06552,-0.478496 0.06552,-0.694592 0,-0.177145 -0.08367,-0.331173 -0.09173,-0.491456 -0.0302,-0.580921 0.211164,-0.647014 0.425932,-0.963258 0.107025,-0.157015 0.153861,-0.339444 0.229349,-0.452139 0.360731,-0.538446 0.982405,-0.798121 0.937045,-1.61198 -0.01677,-0.269407 -0.181506,-0.877272 -0.380059,-0.963255 -0.113064,-0.04932 -0.373303,-4.42e-4 -0.537329,-0.06552 -0.529421,-0.19761 -0.840609,-0.855757 -1.389184,-0.897728 -0.116755,-0.0067 -0.228745,0.04855 -0.360402,0.04586 -0.21707,-3.36e-4 -0.539426,-0.149399 -0.77978,-0.17691 -0.152653,-0.01677 -0.360472,0.04496 -0.452141,0 -0.14024,-0.06777 -0.15527,-0.329496 -0.26867,-0.406272 -0.09092,-0.06173 -0.262832,-0.07837 -0.399716,-0.131047 -0.220425,-0.08555 -0.400666,-0.185666 -0.655278,-0.203146 -0.07851,-0.0034 -0.171173,0.03322 -0.262127,0.0198 -0.140911,-0.02013 -0.256156,-0.189492 -0.386616,-0.26867 -0.162382,-0.09864 -0.312754,-0.146748 -0.380059,-0.28833 0.147285,-0.482417 -0.255015,-0.61896 -0.35385,-0.897728 -0.04663,-0.13051 -0.02281,-0.283398 -0.06552,-0.399716 -0.05804,-0.16708 -0.225189,-0.267093 -0.406269,-0.406272 -0.324094,-0.249278 -0.611391,-0.480167 -1.074655,-0.537326 -0.203649,-0.02349 -0.402732,0.06163 -0.648722,0.04586 -0.260685,-0.01678 -0.591271,-0.249043 -0.786331,-0.471799 -0.189559,-0.21774 -0.280144,-0.407074 -0.44559,-0.511113 -0.156679,-0.09964 -0.365042,-0.101489 -0.471799,-0.203146 -0.0473,-0.04529 -0.04308,-0.118465 -0.09173,-0.222806 -0.07851,-0.162719 -0.209688,-0.250351 -0.111386,-0.44559 -0.178823,-0.09126 -0.184593,0.165268 -0.38006,0.131047 -0.17446,-0.247265 -0.318961,-0.36731 -0.714252,-0.294872 -0.1805,0.0034 -0.280177,0.26263 -0.491456,0.268669 -0.173119,3.36e-4 -0.308728,-0.189927 -0.537326,-0.222806 -0.172783,-0.02349 -0.375315,0.05136 -0.498011,0.02617 -0.190901,-0.03691 -0.251056,-0.199456 -0.425929,-0.314533 -0.127491,-0.08421 -0.373652,-0.231361 -0.445586,-0.229348 -0.225122,3.35e-4 -0.384223,0.479029 -0.694596,0.314532 -0.151311,-0.1909 0.244346,-0.286518 0.06552,-0.465246 -0.135543,-0.135878 -0.245319,0.05623 -0.353847,0.131047 -0.1238,0.08555 -0.242601,0.172145 -0.380063,0.222806 -0.307654,0.114742 -0.500041,0.05935 -0.740461,0.183486 -0.223109,0.115748 -0.234046,0.308393 -0.360403,0.537325 -0.10367,0.187881 -0.336722,0.460483 -0.491456,0.471803 -0.187545,0.01342 -0.367193,-0.26716 -0.537325,-0.340746 -0.512982,-0.222102 -0.760065,0.197107 -1.186051,0.203146 -0.395288,3.36e-4 -0.96346,-0.637456 -0.943598,-1.009124 0.01342,-0.226464 0.130107,-0.571315 0.157249,-0.851862 0.02013,-0.223108 0.174897,-0.353199 0.17691,-0.556982 3.36e-4,-0.271757 -0.354434,-0.485461 -0.530773,-0.517669 -0.418505,-0.07683 -1.001291,0.169227 -1.4809236,-0.01979 -0.091256,-0.151311 0.1059516,-0.252498 0.1572496,-0.399716 0.0302,-0.08387 0.0151,-0.202609 0.04586,-0.294872 0.05301,-0.141917 0.201905,-0.254948 0.26867,-0.406272 0.05032,-0.115077 0.06039,-0.282627 0.111386,-0.425929 0.05804,-0.162719 0.164161,-0.259242 0.17691,-0.373507 0.01678,-0.151312 -0.03751,-0.326242 -0.15725,-0.42593 -0.372272,0.02013 -0.6140813,0.03355 -0.8256485,0.131047 -0.4846989,0.220425 -0.3939424,0.87378 -0.8780709,1.028782 -0.1674152,0.05402 -0.3989045,0.05851 -0.5831954,0.09173 C 8.060294,27.731469 7.8720005,27.81568 7.7078732,27.81266 7.5142889,27.812325 7.1744931,27.622263 7.0591477,27.498128 7.016539,27.45203 6.9684616,27.316957 6.9018982,27.183595 7.1654681,25.909867 7.5496105,24.682378 8.0093145,23.494391 8.322069,23.323219 8.5913089,23.066869 8.9594646,23.04225 c 0.1898938,-0.01342 0.4726679,0.05381 0.6552779,0.09173 0.1687572,0.0034 0.2996363,0.146211 0.4455865,0.157249 0.413975,0.0034 0.514146,-0.291349 0.851861,-0.471799 0.348821,0.04898 0.576039,-0.06344 0.891176,-0.02617 0.214721,0.02349 0.369676,0.262463 0.537326,0.275212 0.141246,0.0067 0.270112,-0.139434 0.406272,-0.117962 0.132523,0.02013 0.358688,0.310137 0.380059,0.471799 0.02349,0.200965 -0.149097,0.388245 -0.09173,0.609408 0.21103,0.214721 0.59628,0.256356 0.897728,0.380059 0.196268,-0.162047 0.03019,-0.460412 0,-0.694592 -0.0067,-0.10367 0.01342,-0.199925 0,-0.294872 -0.02013,-0.161376 -0.09106,-0.307319 -0.09173,-0.445586 -0.002,-0.637419 0.516035,-0.934358 0.943598,-1.186051 0.185196,-0.109374 0.330838,-0.299939 0.491456,-0.38006 0.226463,-0.113399 0.395616,-0.14299 0.583195,-0.249009 0.33936,-0.190565 0.632417,-0.347475 0.897731,-0.563538 0.123129,-0.288867 0.0064,-0.67109 0.01979,-0.956703 0.123129,-0.07515 0.22388,0.03321 0.353846,0.01979 0.204992,-0.04361 0.224854,-0.336729 0.340746,-0.452142 0.0671,-0.06609 0.250653,-0.111152 0.334193,-0.17691 0.20432,-0.160034 0.267394,-0.402853 0.445586,-0.471799 0.06375,-0.02349 0.213882,-0.01677 0.314532,-0.04586 0.133195,-0.03691 0.321142,-0.194859 0.537326,-0.268669 0.14024,-0.04798 0.463888,-0.05704 0.517669,-0.111387 0.06609,-0.0671 2.35e-4,-0.252699 0.01979,-0.35385 0.108703,-0.505668 0.873384,-0.616131 1.323661,-0.786331 0.315371,-0.119774 0.636171,-0.336065 0.982912,-0.26867 -0.06777,0.240219 -0.38938,0.154029 -0.334193,0.44559 0.07649,0.405151 0.617061,-0.116855 0.760122,-0.17691 0.273098,-0.114742 0.735795,-0.184358 1.094311,-0.314533 0.314701,-0.11407 0.879578,-0.289135 0.583196,-0.648725 -0.247265,-0.01677 -0.367669,0.287893 -0.583196,0.380062 -0.148962,0.02013 -0.115647,-0.125544 -0.242466,-0.137622 -0.12011,-0.0067 -0.190733,0.113198 -0.314533,0.09173 -0.123129,-0.02013 -0.295409,-0.216264 -0.314533,-0.360403 -0.04932,-0.373882 0.316848,-0.52057 0.471799,-0.799439 -0.102328,-0.338118 -0.569067,-0.07096 -0.851861,-0.203146 0.03019,-0.201637 0.236662,-0.341376 0.471799,-0.38006 0.192577,-0.0034 0.625656,-0.0087 0.740465,0.08518 0.0671,0.05636 0.0054,0.201268 0.111386,0.294872 0.114406,0.103335 0.251123,0.09002 0.399716,0.06552 0.05402,-0.254981 -0.330267,-0.191504 -0.288329,-0.360402 0.302286,-0.197946 0.796,-0.03187 1.16639,-0.08518 0.213044,-0.0034 0.433592,-0.188183 0.622513,-0.294872 0.179829,-0.101657 0.41874,-0.278802 0.609408,-0.111387 0.05234,0.182513 -0.167012,0.243172 -0.268669,0.334193 -0.342648,0.304971 -0.696833,0.655107 -0.963255,1.009128 0.163725,0.159699 0.457356,0.07884 0.733909,0.111386 0.108032,0.01342 0.246124,0.05194 0.360403,0.07207 0.133529,0.02348 0.275513,0.01543 0.380059,0.03932 0.188552,0.0463 0.240018,0.249009 0.425933,0.249009 0.306312,-5.7e-4 0.311076,-0.3302 0.137589,-0.537329 0.05469,-0.211366 0.140004,-0.323524 0.06552,-0.471799 -0.137891,-0.276118 -0.6489,-0.0077 -0.674935,-0.360402 -0.01677,-0.223444 0.187478,-0.212775 0.26867,-0.38006 -0.03691,-0.431589 0.356171,-0.464991 0.314532,-0.851858 -0.02013,-0.162047 -0.154934,-0.156343 -0.268669,-0.30799 -0.05871,-0.07817 -0.08646,-0.234818 -0.15725,-0.294872 -0.23418,-0.197946 -0.70509,-0.159431 -0.733909,-0.537326 -0.01342,-0.222773 0.05254,-0.406829 0.01979,-0.648725 -0.03019,-0.225793 -0.182579,-0.854617 -0.380059,-0.897728 -0.249948,-0.05435 -0.512807,0.375785 -0.812544,0.517668 -0.163054,0.0775 -0.39356,0.161913 -0.556983,0.131047 -0.106018,-0.02013 -0.318089,-0.17483 -0.334193,-0.380059 -0.02013,-0.235187 0.160202,-0.240588 0.203146,-0.49146 -0.03691,-0.147956 -0.195698,-0.111755 -0.340745,-0.222806 -0.164396,-0.125142 -0.292155,-0.3954657 -0.511116,-0.4259292 -0.109038,-0.016775 -0.251828,0.084345 -0.360403,0.091726 -0.200193,0.012078 -0.355212,-0.038482 -0.52422,-0.091726 0.539751,-0.1896254 1.087507,-0.3604695 1.644745,-0.511113 0.104341,0.1120575 0.141514,0.3259397 0.268669,0.3997164 0.08488,0.048648 0.23153,0.033986 0.334193,0.065523 0.328792,0.099644 0.603564,0.2789693 0.963255,0.2031463 0.123465,-0.2167341 -0.253974,-0.2754804 -0.111386,-0.4455864 0.24089,0.02013 0.397663,0.121418 0.583195,0.1965703 0.259007,-0.1895583 0.428637,-0.2066018 0.419377,-0.5111163 -0.0024,-0.1837877 -0.146715,-0.2706154 -0.242467,-0.3997197 0.199758,-0.033651 0.401646,-0.063041 0.60298,-0.091693 0.04439,0.048681 0.08136,0.12276 0.137623,0.1310469 0.12749,0.02013 0.506768,-0.166241 0.583195,-0.2031461 0.01409,-0.00705 0.03845,-0.034657 0.05898,-0.045863 0.846608,-0.09178 1.702261,-0.1441515 2.574652,-0.1441515 4.011362,0 7.77764,1.0000459 11.074167,2.7587145 -0.111185,0.03405 -0.220324,0.05771 -0.35385,0.104844 -0.158021,0.05569 -0.45076,0.329227 -0.491456,0.425929 -0.06744,0.159699 0.01677,0.331106 0,0.576643 0.127826,0.05569 0.207474,0.306078 0.425929,0.425929 0.08253,0.04529 0.188619,0.02281 0.262127,0.06552 0.127826,0.07213 0.229315,0.232368 0.203146,0.360402 -0.03691,0.183855 -0.27501,0.132456 -0.399719,0.268669 0.02013,0.260685 -0.183587,0.297691 -0.24901,0.471799 0.04127,0.11038 0.205025,0.09028 0.222807,0.222807 -0.02349,0.142923 -0.278164,0.163892 -0.222807,0.314532 0.239884,0.18721 0.494006,-0.03633 0.720805,-0.06552 0.501071,-0.0624 1.009383,0.06465 1.317105,-0.17691 -0.04194,-0.239548 0.255182,-0.32349 0.229349,-0.537329 -0.02013,-0.161376 -0.288565,-0.183486 -0.406272,-0.294872 -0.06307,-0.05972 -0.08045,-0.198785 -0.15725,-0.314533 -0.08857,-0.132858 -0.255417,-0.224182 -0.353847,-0.353846 -0.131516,-0.174797 -0.407077,-0.430546 -0.406272,-0.563539 0.002,-0.152653 0.188586,-0.190766 0.222807,-0.39972 -0.04127,-0.191906 -0.39825,-0.06502 -0.425929,-0.268669 0.007,-0.06512 0.03875,-0.10934 0.07207,-0.150707 1.028436,0.562179 1.995623,1.215585 2.922533,1.91996 -0.0104,0.0014 -0.02952,-0.0018 -0.03932,0 -0.22445,0.04127 -0.306682,0.322316 -0.491456,0.543878 -0.128161,0.154666 -0.372973,0.317519 -0.563538,0.39972 -0.09293,0.04127 -0.203113,0.03738 -0.28833,0.09173 -0.125813,0.08354 -0.171609,0.283499 -0.314532,0.380059 -0.102999,0.06978 -0.494221,0.266657 -0.602856,0.26867 -0.127491,0.002 -0.242937,-0.12125 -0.334193,-0.09173 -0.134536,0.04227 -0.123263,0.306514 -0.275212,0.360402 -0.296919,0.105348 -0.787697,-0.265616 -0.891179,0.17691 0.127155,0.256323 0.44618,0.192612 0.668383,0.334193 0.139904,0.0879 0.434994,0.479163 0.471798,0.629065 0.0034,0.12682 -0.01375,0.625549 -0.06552,0.760122 -0.138562,0.357477 -0.466914,0.238408 -0.878071,0.229349 -0.112393,-0.002 -0.230188,0.02986 -0.334193,0.01979 -0.693448,-0.04697 -1.390361,-0.297624 -1.70372,0.19657 0.02349,0.38009 0.110414,0.639469 0.02617,0.969807 -0.0614,0.242568 -0.279405,0.45799 -0.268669,0.668383 0.0067,0.108031 0.131114,0.213983 0.157249,0.360402 0.01678,0.07817 -0.0369,0.243742 0,0.314533 0.114071,0.220424 0.419971,0.03288 0.622513,0.06552 0.197946,0.0034 0.428009,0.315774 0.425929,0.537326 -0.002,0.154666 -0.144165,0.408191 -0.242467,0.556986 -0.195932,0.296919 -0.460485,0.313157 -0.740461,0.471799 -0.233509,0.132523 -0.334965,0.35284 -0.471799,0.583195 -0.148627,0.248942 -0.237971,0.399928 -0.17691,0.760119 -0.200294,0.396931 -0.502742,0.643314 -0.917388,0.832201 -0.12313,0.05569 -0.293967,0.07572 -0.406273,0.157249 -0.08924,0.06442 -0.141514,0.236932 -0.268669,0.38006 -0.156679,0.175132 -0.316915,0.246258 -0.399717,0.380063 -0.06375,0.104005 -0.0875,0.307017 -0.157249,0.445586 -0.09595,0.187881 -0.300442,0.281284 -0.425929,0.471799 -0.05771,0.0879 -0.0935,0.264375 -0.157283,0.380059 -0.141917,0.258001 -0.386333,0.448102 -0.360399,0.674935 0.02349,0.219753 0.278097,0.254377 0.294872,0.445589 0.01342,0.108032 -0.07676,0.170569 -0.07207,0.28833 3.36e-4,0.171777 0.124203,0.293665 0.137589,0.425929 0.0034,0.332818 -0.121082,0.467257 -0.183485,0.694592 -0.03019,0.108703 -0.01174,0.229987 -0.03932,0.314533 -0.05469,0.166073 -0.290846,0.320538 -0.294872,0.517665 -3.36e-4,0.14024 0.145171,0.249345 0.157249,0.44559 0.0067,0.134871 -0.07002,0.281787 -0.04586,0.406272 0.04764,0.243909 0.485511,0.524825 0.674935,0.714249 0.253304,0.253303 0.585386,0.44726 0.694592,0.714252 0.09226,0.226464 0.09253,0.530206 0.26867,0.701144 0.13051,0.125478 0.343701,0.203012 0.511116,0.334193 0.156344,0.121452 0.331341,0.22388 0.498008,0.353847 0.272763,0.213379 0.679535,0.642187 1.113969,0.609408 0.226463,-0.01677 0.463509,-0.203381 0.720805,-0.249009 0.265046,-0.04664 0.604493,-0.07304 0.871518,-0.04586 0.204992,0.02013 0.416425,0.141447 0.629065,0.131047 0.224786,-0.01342 0.48538,-0.176944 0.740462,-0.28833 0.441721,-0.192242 1.097764,-0.448361 1.743034,-0.35385 0.49151,0.07146 0.472077,0.629746 0.812544,0.845306 0.395321,0.0034 0.709475,-0.142689 1.022229,-0.06552 0.236529,0.05838 0.521235,0.415576 0.543882,0.602853 0.02349,0.194255 -0.109105,0.489533 -0.137623,0.609408 -0.06173,0.261356 -0.06442,0.568239 -0.111386,0.733909 -0.03691,0.128162 -0.139636,0.206032 -0.137623,0.334193 0.002,0.117761 0.14856,0.409577 0.268669,0.563539 0.147286,0.188887 0.384884,0.332549 0.563539,0.537325 0.327785,0.374722 0.467759,0.829296 0.694592,1.323657 0.05757,0.125243 0.117861,0.294034 0.170367,0.452142 l 9.010045,0 c 0.179896,-0.730302 0.384924,-1.45097 0.511117,-2.201728 0.04509,-0.265784 0.08723,-0.531005 0.124504,-0.799436 0.166946,-1.214673 0.281855,-2.447161 0.281855,-3.708995 0,-1.013744 -0.06851,-2.01069 -0.17691,-2.994612 -0.108602,-0.985606 -0.279875,-1.95297 -0.491459,-2.902876 -0.162249,-0.728356 -0.337186,-1.451489 -0.556983,-2.155858 -0.03982,-0.127625 -0.09414,-0.247969 -0.137623,-0.373507 -0.131248,-0.399401 -0.276755,-0.788734 -0.425929,-1.179495 -0.187981,-0.492359 -0.387289,-0.976937 -0.602855,-1.454714 -0.0077,-0.01711 -0.01241,-0.0352 -0.0198,-0.05244 -0.006,-0.01342 -0.01342,-0.02583 -0.01979,-0.03932 -0.08263,-0.181372 -0.175568,-0.358178 -0.262127,-0.537326 -0.324195,-0.671197 -0.671456,-1.327498 -1.048442,-1.96583 -0.005,-0.0084 -0.0081,-0.01778 -0.01308,-0.02617 -0.194524,-0.328825 -0.388048,-0.656872 -0.59617,-0.97637 -0.523419,-0.803522 -1.079831,-1.579292 -1.684059,-2.319677 -0.602856,-0.7387 -1.242741,-1.446769 -1.919961,-2.116541 -0.310875,-0.307453 -0.644186,-0.592616 -0.969807,-0.884623 -0.0047,-0.004 -0.0084,-0.0091 -0.01308,-0.01308 C 46.84247,11.157994 45.847151,10.363772 44.783387,9.6550819 40.525975,6.8187529 35.410034,5.1598863 29.888953,5.1598863 Z m -8.439958,4.9342297 c -0.07656,0.145641 -0.152116,0.292892 -0.30799,0.340745 0.04127,0.218747 -0.255451,0.357722 -0.28833,0.530773 -0.02013,0.116419 0.03187,0.254545 0.03932,0.360403 0.0671,1.071256 -0.817472,1.575337 -1.860986,1.54645 -0.204991,0.195933 -0.151042,0.563599 -0.262127,0.832201 -0.09394,0.225793 -0.429613,0.464847 -0.655274,0.445586 -0.166745,-0.01342 -0.353448,-0.250686 -0.35385,-0.406268 -5.37e-4,-0.191572 0.277124,-0.292155 0.111386,-0.511117 0.02348,-0.148962 0.35533,-0.234649 0.314533,-0.471799 -0.04194,-0.246929 -0.387075,-0.119002 -0.694596,-0.157249 -0.173118,-0.02348 -0.375302,-0.122727 -0.556982,-0.209689 1.403707,-0.926973 2.92004,-1.688417 4.514852,-2.300019 z m 18.138045,2.522813 c -0.09126,0.01342 -0.18107,0.03187 -0.255551,0.07864 -0.170435,0.104006 -0.228678,0.263872 -0.360402,0.314533 -0.181842,0.06878 -0.307353,0.0097 -0.334193,0.17691 -0.02013,0.137891 0.115748,0.205025 0.111386,0.334193 -0.06609,0.164395 -0.255451,0.207675 -0.28833,0.406272 0.226464,0.370192 0.773341,0.03969 1.054995,-0.04586 0.126819,-0.03691 0.30487,-0.0302 0.373507,-0.131047 0.07817,-0.118432 0.0104,-0.326678 0.07207,-0.498012 0.06509,-0.188551 0.24495,-0.211701 0.222807,-0.380059 -0.02013,-0.16708 -0.321813,-0.282727 -0.5963,-0.255551 z m -24.62528,2.608 c 0.203313,0.05301 0.741193,0.642106 0.294872,0.832201 -0.04227,0.02013 -0.654332,0.08364 -0.760119,0.06552 -0.154666,-0.02349 -0.24968,-0.241159 -0.406272,-0.26867 -0.309332,-0.05435 -0.724975,0.370893 -0.937045,0.0198 0.05401,-0.198953 0.274742,-0.204589 0.511116,-0.26867 0.419712,-0.114527 0.934301,-0.47506 1.297448,-0.38018 z m 0.851858,1.081207 c 0.105012,0.0067 0.233777,0.121653 0.360402,0.131047 0.119774,0.0067 0.214855,-0.06465 0.28833,-0.04586 0.18721,0.04932 0.2682,0.333287 0.09173,0.471799 -0.146279,0.01677 -0.203817,-0.06532 -0.314532,-0.04586 -0.3043,0.05234 -0.421387,0.648792 -0.648723,0.629065 -0.214385,-0.02013 -0.329127,-0.539024 -0.111386,-0.694596 0.0067,-0.135878 -0.09877,-0.161007 -0.09173,-0.294872 0.06576,-0.08387 0.247399,-0.165805 0.425929,-0.150707 z m -1.009125,0.06552 c 0.06207,0.002 0.114473,0.02047 0.137623,0.04586 -0.0302,0.238542 -0.222169,0.222706 -0.406272,0.334193 -0.318391,0.192243 -0.501561,0.487142 -0.602853,0.897728 -0.03019,0.120445 -0.339946,0.43122 -0.491459,0.399717 -0.355397,-0.07448 0.09605,-0.726102 0.17691,-0.825646 0.08924,-0.11038 0.20885,-0.207038 0.314533,-0.334193 0.102328,-0.123464 0.170032,-0.292087 0.268669,-0.360402 0.108367,-0.07448 0.415713,-0.164295 0.602856,-0.15725 z m 31.892296,0.137623 0.0067,0 c 0.159631,0.04318 0.147352,0.184157 0.268669,0.26867 0.08924,0.06207 0.207676,0.04865 0.307991,0.111386 0.117761,0.07415 0.181674,0.268099 0.314532,0.380059 0.187881,0.158022 0.521722,0.273568 0.786332,0.399717 0.05261,0.02516 0.115479,0.06281 0.176909,0.09173 0.169596,0.222337 0.342859,0.439869 0.504564,0.668382 -0.0037,0.02986 -0.01074,0.06512 -0.0067,0.09173 0.02013,0.132858 0.113165,0.271957 0.17691,0.360402 0.173119,0.238541 0.418777,0.450924 0.609408,0.740462 -0.0024,0.276889 0.113836,0.434028 0.307991,0.511116 0.360865,0.616665 0.691455,1.249055 0.996023,1.9003 -0.09961,-0.0067 -0.202576,-0.01342 -0.301415,-0.03932 -0.220424,-0.388745 -1.332987,-0.414562 -1.428504,0.15725 -0.04261,0.252297 0.126081,0.605211 -0.249009,0.648722 -0.238206,0.03019 -0.47965,-0.243742 -0.805992,-0.314533 -0.133865,-0.0302 -0.321847,-0.0084 -0.425929,-0.04586 -0.244245,-0.08421 -0.215862,-0.316981 -0.425929,-0.465243 -0.122123,-0.08555 -0.436152,-0.208212 -0.629066,-0.229349 -0.120109,-0.01342 -0.23371,0.03644 -0.360402,0.01979 -0.15064,-0.01677 -0.364234,-0.119069 -0.491456,-0.19657 -0.121451,-0.07415 -0.368853,-0.188854 -0.39972,-0.294872 -0.04764,-0.165067 0.30279,-0.351052 0.314533,-0.49146 0.0067,-0.105683 -0.131114,-0.171474 -0.15725,-0.334193 -0.01677,-0.0983 0.0408,-0.203246 0.0198,-0.268669 -0.0034,-0.115748 -0.225792,-0.245654 -0.406272,-0.249009 -0.159699,-0.002 -0.308997,0.133596 -0.44559,0.137622 -0.196939,3.36e-4 -0.516343,-0.110849 -0.760118,-0.09173 -0.149298,0.01342 -0.286988,0.100651 -0.425929,0.111387 -0.390356,0.0034 -0.707123,-0.02013 -1.009125,0 -0.220089,0.01342 -0.601269,0.08364 -0.805992,0.17691 -0.104005,0.04731 -0.180667,0.161577 -0.314532,0.229348 -0.06039,0.03019 -0.142622,0.02885 -0.222807,0.06552 -0.127155,0.05771 -0.25904,0.192276 -0.380059,0.222806 -0.175132,0.04496 -0.443409,-0.03321 -0.760122,-0.01979 -0.22747,0.01342 -0.606315,0.007 -0.609408,-0.26867 -0.0034,-0.414545 0.70939,-0.261389 1.100867,-0.334193 0.147621,-0.03019 0.223679,-0.163993 0.399716,-0.268669 0.08421,-0.05033 0.189492,-0.05704 0.26867,-0.111387 0.135878,-0.09327 0.340641,-0.318122 0.360402,-0.425929 0.02013,-0.09964 -0.05761,-0.240722 -0.04586,-0.314533 0.01678,-0.09427 0.127222,-0.194423 0.249009,-0.314532 0.188888,-0.186203 0.390715,-0.434763 0.622513,-0.556983 0.158357,-0.08354 0.379425,-0.077 0.452142,-0.203146 0.01678,-0.143594 -0.02315,-0.23002 -0.0198,-0.360402 0.09763,-0.08891 0.16094,-0.159464 0.242467,-0.17691 0.241561,-0.05234 0.479002,0.169327 0.760119,0.157249 0.121452,-0.0067 0.23002,-0.09035 0.360402,-0.17691 0.109709,-0.0728 0.226833,-0.128799 0.334193,-0.183485 0.118432,-0.0614 0.243071,-0.194088 0.386612,-0.203146 0.352511,-0.02013 0.488587,0.370923 0.648722,0.583195 0.134201,0.176474 0.513955,0.478952 0.73391,0.602853 0.1238,0.06945 0.289638,0.07589 0.425929,0.137622 0.290879,0.13051 0.868811,0.566786 0.878071,0.851862 0.0067,0.142252 -0.13353,0.248975 -0.111387,0.380059 0.220089,0.03691 0.460114,-0.205461 0.465247,-0.425929 0.002,-0.137891 -0.137891,-0.215291 -0.111387,-0.360402 0.102999,-0.221767 0.404602,0.0054 0.537326,-0.08518 -0.02349,-0.25062 -0.36928,-0.276151 -0.583195,-0.406272 -0.115413,-0.07046 -0.188217,-0.219687 -0.307991,-0.26867 -0.173454,-0.07113 -0.362939,-0.05291 -0.498011,-0.157249 -0.12682,-0.09797 -0.183184,-0.316345 -0.307991,-0.465247 -0.181841,-0.216398 -0.580971,-0.251928 -0.471799,-0.740462 0.05338,-0.07247 0.177581,-0.182781 0.262094,-0.157249 z m -29.238426,0.674932 c 0.1134,0.0021 0.215157,0.0151 0.262127,0.05898 -0.0728,0.295912 -0.710524,0.224316 -0.943597,0.117962 0.01342,-0.111051 0.187914,-0.142521 0.334193,-0.157249 0.10367,-0.0067 0.233274,-0.01979 0.347294,-0.01979 z m 27.737842,0.537319 c -0.145272,0.04764 -0.221096,0.360664 0,0.399716 0.102999,-0.06173 0.182781,-0.14497 0.157249,-0.334193 -0.0567,-0.0614 -0.109272,-0.08163 -0.157249,-0.06552 z m -29.192556,0.0067 c 0.07649,-0.002 0.156377,0.0026 0.235891,0.03288 -0.206669,0.172783 -0.432277,0.268065 -0.786331,0.380059 -0.170435,0.05402 -0.46267,0.124706 -0.491456,-0.06552 -0.0369,-0.232838 0.250653,-0.182681 0.406269,-0.203146 0.195932,-0.02349 0.406168,-0.136784 0.635617,-0.144165 z m 29.133581,0.622509 c -0.07213,0.02013 -0.152519,0.07019 -0.229348,0.150707 0.0034,0.250284 0.03053,0.411828 -0.0198,0.629065 0.144266,0.276118 0.463717,0.0312 0.537326,-0.157249 0.08656,-0.466213 -0.07327,-0.681226 -0.28833,-0.622513 z m 1.906853,1.238473 c -0.196839,-0.0064 -0.382847,0.0022 -0.498008,0.0983 0.16406,0.268737 0.504443,0.359634 0.871515,0.425929 0.132523,-0.09931 0.142756,-0.320102 0.203146,-0.491456 -0.158893,0.002 -0.372742,-0.02248 -0.570091,-0.03288 z M 7.301581,28.684303 c 0.5492158,-0.01677 0.7884183,0.697363 1.2319176,0.917385 0.111051,0.05603 0.2561889,0.05918 0.3997198,0.09173 0.116419,0.02349 0.2031461,0.07347 0.3145325,0.111387 0.236864,0.08019 0.5313471,0.07304 0.7208047,0.157249 0.2855114,0.12682 0.4883554,0.662371 0.7339094,0.805989 0.01342,0.144936 -0.02382,0.337457 0.0198,0.445589 0.116083,0.157015 0.28068,0.126686 0.471798,0.229349 0.228477,0.123465 0.301079,0.440034 0.517669,0.537329 0.07381,0.0034 0.26206,0.03053 0.380059,0.06552 0.296919,0.08958 0.394077,0.435589 0.648723,0.360403 0.167079,-0.04865 0.150438,-0.220458 0.17691,-0.380063 0.110379,-0.120109 0.234213,-0.311177 0.406272,-0.314532 0.278466,-0.0034 0.304635,0.286518 0.406272,0.556986 0.0567,0.152653 0.203213,0.284505 0.242467,0.445589 0.06878,0.278466 0.03737,1.111379 -0.01979,1.277787 -0.07046,0.204321 -0.347402,0.291383 -0.517669,0.517669 -0.07985,0.105683 -0.115848,0.259712 -0.17691,0.334193 -0.109037,0.13353 -0.278701,0.171408 -0.360402,0.294872 -0.04663,0.06911 -0.08676,0.220928 -0.131047,0.314533 -0.134871,0.285176 -0.31621,0.483504 -0.203146,0.825649 0.0463,0.140575 0.267999,0.234045 0.26867,0.399716 4.36e-4,0.195262 -0.413375,0.36928 -0.445586,0.583195 -0.02349,0.158357 0.12692,0.44824 0.176909,0.655278 0.03691,0.15668 0.33359,0.249714 0.42593,0.35385 0.157014,0.176474 0.282257,0.427023 0.425929,0.648723 0.283834,0.436118 0.509811,0.966727 0.786331,1.389183 0.145272,0.221431 0.348157,0.419109 0.445586,0.648726 0.04932,0.116083 0.04509,0.256222 0.09173,0.360402 0.160035,0.36157 0.867064,0.73806 1.231921,0.917385 0.170771,0.08388 0.354404,0.115245 0.511117,0.203146 0.237199,0.132524 0.712323,0.486414 0.832197,0.694592 0.107361,0.18721 0.170469,0.639557 0.222807,0.937046 0.06911,0.393241 0.0029,0.694739 0.01979,1.120524 0.01342,0.23049 0.08871,0.463767 0.09173,0.694592 0.001,0.08052 -0.04284,0.14648 -0.04586,0.229349 -0.0067,0.279137 0.07002,0.590402 0.04586,0.871519 -0.01342,0.152988 -0.05727,0.278466 -0.04586,0.406272 0.01342,0.138897 0.08099,0.251827 0.09173,0.373507 0.0067,0.131181 -0.03962,0.304299 -0.02617,0.406268 0.03019,0.282828 0.239179,0.501585 0.294872,0.760123 0.04429,0.205997 0.07237,0.631443 0.04586,0.87807 -0.01677,0.129504 -0.09159,0.2579 -0.111387,0.399717 -0.01342,0.112057 0.01677,0.229516 0,0.334193 -0.02013,0.156679 -0.12078,0.279875 -0.111386,0.425929 0.02013,0.301951 0.352414,0.549773 0.39972,0.851858 0.01678,0.101322 -0.02315,0.216902 -0.01979,0.314533 0.0033,0.09199 0.03899,0.172045 0.06552,0.255551 C 11.1603,48.35394 6.403853,40.758224 6.403853,32 c 0,-1.050052 0.090518,-2.073513 0.2228065,-3.086351 0.2123724,0.001 0.440822,-0.222975 0.6749349,-0.229349 z m 9.114893,2.535918 c 0.215056,-0.09864 0.268535,0.311781 0.09173,0.340745 -0.167416,0.02349 -0.254109,-0.265818 -0.09173,-0.340745 z"
     style="color:#4d4d4d;fill:currentColor;fill-opacity:1;stroke:none"
     inkscape:connector-curvature="0" />
  <a
     id="a6"
     transform="matrix(1.3416503,0,0,1.3416503,35.459917,34.756158)">
    <path
       id="path8"
       class="ColorScheme-Text"
       d="M 3,5 3,17 19,17 19,5 3,5 Z M 4,6 18,6 18,16 4,16 4,6 Z M 7.5,7 C 6.669,7 6,7.669 6,8.5 l 0,1.5 -1,0 0,3 5,0 0,-3 -1,0 0,-1.5 C 9,7.669 8.331,7 7.5,7 Z m 0,1 C 7.777,8 8,8.223 8,8.5 L 8,10 7,10 7,8.5 C 7,8.223 7.223,8 7.5,8 Z m 3.5,0 0,1 6,0 0,-1 -6,0 z m 0,2 0,1 5,0 0,-1 -5,0 z m 0,2 0,1 4,0 0,-1 -4,0 z"
       style="color:#4d4d4d;fill:currentColor;fill-opacity:1;stroke:none"
       inkscape:connector-curvature="0" />
  </a>
</svg>
