<?xml version="1.0" encoding="UTF-8" standalone="no"?>
<svg
   xmlns:dc="http://purl.org/dc/elements/1.1/"
   xmlns:cc="http://creativecommons.org/ns#"
   xmlns:rdf="http://www.w3.org/1999/02/22-rdf-syntax-ns#"
   xmlns:svg="http://www.w3.org/2000/svg"
   xmlns="http://www.w3.org/2000/svg"
   id="svg2"
   height="64"
   viewBox="0 0 64 64"
   version="1.1"
   width="64">
  <defs
     id="defs4" />
  <metadata
     id="metadata84">
    <rdf:RDF>
      <cc:Work
         rdf:about="">
        <dc:format>image/svg+xml</dc:format>
        <dc:type
           rdf:resource="http://purl.org/dc/dcmitype/StillImage" />
        <dc:title></dc:title>
      </cc:Work>
    </rdf:RDF>
  </metadata>
  <path
     d="M 20.907138,1.7457627 18.248074,2.4602193 19.66087,7.7246271 22.314562,7.0101705 20.907138,1.7457627 Z m 22.185724,0 -1.407424,5.2644078 2.653692,0.7144566 1.412796,-5.2644078 -2.659064,-0.7144566 z M 9.6262599,2.8469922 7.2465331,4.2221848 12.747304,13.746466 15.12703,12.371274 9.6262599,2.8469922 Z m 44.7474801,0 -5.50077,9.5242818 2.379726,1.375192 L 56.753467,4.2221848 54.37374,2.8469922 Z M 3.1209553,13.182423 1.7457627,15.562152 6.4676158,18.291049 7.8428084,15.90595 3.1209553,13.182423 Z m 57.7580897,0 -4.721853,2.723527 1.375192,2.385099 4.721853,-2.728897 -1.375192,-2.379729 z m -45.41896,5.065651 -10.9639371,10.963938 0,0.0376 25.1026361,30.125313 0.107439,0.128924 L 32,62.254237 l 2.401216,-2.879309 0.161156,-0.19876 24.94148,-29.926553 0,-0.02149 -10.980055,-10.980055 -0.02149,0 -30.033992,0 -3.008234,0 z m 1.138833,2.750385 2.610715,0 1.471888,5.500771 -9.583373,0 5.50077,-5.500771 z m 5.457796,0 6.720178,0 -3.174761,5.500771 -2.06816,0 -1.477257,-5.500771 z m 9.900311,0 0.08595,0 3.174761,5.500771 -6.435472,0 3.174761,-5.500771 z m 3.266083,0 6.720178,0 -1.477257,5.500771 -2.06816,0 -3.174761,-5.500771 z m 9.57263,0 2.589229,0 5.500771,5.500771 -9.567259,0 1.477259,-5.500771 z m -36.7595445,8.251156 0.3115691,0 13.0697014,0 6.354894,23.705958 L 8.0361935,29.249615 Z m 16.2337195,0 2.922284,0 9.615606,0 2.922284,0 L 32.02686,58.005107 32,58.037338 31.97314,58.005107 24.269913,29.249615 Z m 18.312623,0 13.053587,0 0.327684,0 -19.736165,23.705958 6.354894,-23.705958 z"
     id="rect4186"
     style="fill:#d64937;fill-opacity:1" />
</svg>
