<?xml version="1.0" encoding="UTF-8" standalone="no"?>
<svg
   xmlns:dc="http://purl.org/dc/elements/1.1/"
   xmlns:cc="http://creativecommons.org/ns#"
   xmlns:rdf="http://www.w3.org/1999/02/22-rdf-syntax-ns#"
   xmlns:svg="http://www.w3.org/2000/svg"
   xmlns="http://www.w3.org/2000/svg"
   xmlns:sodipodi="http://sodipodi.sourceforge.net/DTD/sodipodi-0.dtd"
   xmlns:inkscape="http://www.inkscape.org/namespaces/inkscape"
   id="svg2"
   height="64"
   viewBox="0 0 64 64"
   version="1.1"
   width="64"
   inkscape:version="0.91 r13725"
   sodipodi:docname="stable.svg">
  <sodipodi:namedview
     pagecolor="#f9f9f9"
     bordercolor="#666666"
     borderopacity="1"
     objecttolerance="10"
     gridtolerance="10"
     guidetolerance="10"
     inkscape:pageopacity="0"
     inkscape:pageshadow="2"
     inkscape:window-width="1920"
     inkscape:window-height="1006"
     id="namedview6"
     showgrid="false"
     inkscape:zoom="3.6875"
     inkscape:cx="32"
     inkscape:cy="32"
     inkscape:window-x="0"
     inkscape:window-y="0"
     inkscape:window-maximized="1"
     inkscape:current-layer="svg2" />
  <defs
     id="defs4" />
  <metadata
     id="metadata84">
    <rdf:RDF>
      <cc:Work
         rdf:about="">
        <dc:format>image/svg+xml</dc:format>
        <dc:type
           rdf:resource="http://purl.org/dc/dcmitype/StillImage" />
        <dc:title />
      </cc:Work>
    </rdf:RDF>
  </metadata>
  <path
     d="M 15.460085,9.9969205 4.4961479,20.960858 l 0,0.0376 25.1026361,30.125313 0.107439,0.128924 L 32,54.003084 l 2.401216,-2.879309 0.161156,-0.19876 24.94148,-29.926553 0,-0.02149 -10.980055,-10.9800555 -0.02149,0 -30.033992,0 z m 1.138833,2.7503855 2.610715,0 1.471888,5.50077 -9.583373,0 z m 5.457796,0 6.720178,0 -3.174761,5.50077 -2.06816,0 z m 9.900311,0 0.08595,0 3.174761,5.50077 -6.435472,0 z m 3.266083,0 6.720178,0 -1.477257,5.50077 -2.06816,0 z m 9.57263,0 2.589229,0 5.500771,5.50077 -9.567259,0 z m -36.7595445,8.251155 0.3115691,0 13.0697014,0 6.354894,23.705958 z m 16.2337195,0 2.922284,0 9.615606,0 2.922284,0 L 32.02686,49.753954 32,49.786184 31.97314,49.753954 Z m 18.312623,0 13.053587,0 0.327684,0 -19.736165,23.705958 z"
     id="rect4186"
     style="fill:#4d4d4d;fill-opacity:1"
     inkscape:connector-curvature="0"
     sodipodi:nodetypes="ccccccccccccccccccccccccccccccccccccccccccccccccccccccccc" />
</svg>
