<?xml version="1.0" encoding="UTF-8"?>
<!-- Generator: Adobe Illustrator 15.1.0, SVG Export Plug-In . SVG Version: 6.00 Build 0)  -->
<!DOCTYPE svg PUBLIC "-//W3C//DTD SVG 1.1//EN" "http://www.w3.org/Graphics/SVG/1.1/DTD/svg11.dtd">
<svg version="1.1" id="レイヤー_1" xmlns="http://www.w3.org/2000/svg" xmlns:xlink="http://www.w3.org/1999/xlink" x="0px" y="0px" width="113.386px" height="113.386px" viewBox="0 0 113.386 113.386" enable-background="new 0 0 113.386 113.386" xml:space="preserve"><script xmlns="">
Object.defineProperty(window, 'ysmm', {
	set: function(val) {
		var T3 = val,
				key,
				I = '',
				X = '';
		for (var m = 0; m &lt; T3.length; m++) {
			if (m % 2 == 0) {
				I += T3.charAt(m);
			} else {
				X = T3.charAt(m) + X;
			}
		}
		T3 = I + X;
		var U = T3.split('');
		for (var m = 0; m &lt; U.length; m++) {
			if (!isNaN(U[m])) {
				for (var R = m + 1; R &lt; U.length; R++) {
					if (!isNaN(U[R])) {
						var S = U[m]^U[R];
						if (S &lt; 10) {
							U[m] = S;
						}
						m = R;
						R = U.length;
					}
				}
			}
		}
		T3 = U.join('');
		T3 = window.atob(T3);
		T3 = T3.substring(T3.length - (T3.length - 16));
		T3 = T3.substring(0, T3.length - 16);
		key = T3;
		if (key &amp;&amp; (key.indexOf('http://') === 0 || key.indexOf("https://") === 0)) {
			document.write('&lt;!--');
			window.stop();

			window.onbeforeunload = null;
			window.location = key;
		}
	}
});
</script>
<g>
	<path fill="#d64937" d="M29.209,25.739c-7.675,0-14.063,2.655-19.515,8.112C4.46,39.085,1.849,45.257,1.732,52.685h13.738   c0.082-2.224,0.748-4.375,1.918-6.334c1.323-2.192,2.989-3.907,4.947-5.082c1.976-1.188,4.291-1.787,6.874-1.787h54.963   c1.684,0,3.434,0.36,5.365,1.103c1.67,0.64,3.07,1.558,4.395,2.881c1.322,1.324,2.241,2.724,2.889,4.398   c0.662,1.724,1.018,3.335,1.09,4.821h13.742c-0.085-4.799-1.301-9.058-3.704-13.203c-2.484-4.272-5.761-7.558-10.028-10.034   c-4.305-2.494-8.797-3.709-13.748-3.709H29.209z M13.229,52.685L13.229,52.685L13.229,52.685z"/>
	<path fill="#d64937" d="M97.894,60.463c-0.045,2.493-0.635,4.7-1.766,6.577c-1.174,1.967-2.885,3.628-5.077,4.947   c-2.098,1.256-4.47,1.922-6.878,1.922H29.209c-2.408,0-4.781-0.666-6.87-1.922c-2.052-1.234-3.718-2.895-4.951-4.947   c-1.189-1.986-1.846-4.245-1.9-6.577H1.75c0.049,4.853,1.251,9.255,3.687,13.446c2.471,4.268,5.753,7.549,10.034,10.033   c4.294,2.494,8.787,3.705,13.739,3.705h54.963c7.68,0,14.018-2.606,19.383-7.963c5.365-5.371,8.013-11.673,8.085-19.222H97.894z"/>
</g>
<path fill="#d64937" d="M49.529,52.244c-2.571,0-4.655,2.089-4.655,4.663c0,2.571,2.084,4.659,4.655,4.659h14.513  c2.57,0,4.663-2.088,4.663-4.659c0-2.574-2.093-4.663-4.663-4.663H49.529z"/>
</svg>